{
familyName = "Xdareg(darage)v1(RL)";
customParameters = (
{
name = glyphOrder;
value = (
.notdef,
NULL,
CR,
space,
A,
B,
C,
D,
E,
F,
G,
H,
I,
J,
K,
L,
M,
N,
P,
Q,
R,
S,
T,
U,
V,
W,
X,
Y,
Z,
a,
b,
c,
d,
e,
f,
g,
Z_A_k,
Z_A_g,
z_A_c,
z_A_C,
z_A_j,
z_A_z,
N_A_q,
N_A_Q,
N_A_w,
N_A_W,
n_A_t,
n_A_d,
n_A_D,
A_y,
h,
i,
j,
k,
l,
m,
n,
p,
q,
r,
s,
t,
u,
v,
w,
x,
y,
z,
A_A,
A_a,
A_i,
A_I,
A_u,
A_U,
A_R,
e_A,
E_A,
e_e_A,
e_A_a,
E_A_a,
A_Y,
k_A_x,
B_u,
B_U,
C_u,
C_U,
N_u,
N_U,
S_u,
S_U,
g_u,
g_U,
h_u,
h_U,
j_u,
j_U,
k_u,
k_U,
n_u,
n_U,
r_u,
r_U,
t_u,
t_U,
A_l,
A_r,
A_v,
A_s,
j_A_j,
k_A_k,
g_A_g,
c_A_c,
q_A_q,
t_A_t,
n_A_n,
f_A,
p_A_p,
b_A_b,
m_A_m,
L_A_L,
c_A_C,
Z_A_k_u,
Z_A_k_U,
Z_A_g_u,
Z_A_g_U,
z_A_C_u,
z_A_C_U,
n_A_t_u,
n_A_t_U,
t_A_n,
t_A_n_u,
t_A_n_U,
x_A_q,
x_A_Q,
n_A_t_A_n,
n_A_t_A_n_u,
n_A_t_A_n_U,
x_A_q_u,
x_A_q_U,
k_A_x_A_m,
j_A_j_u,
j_A_j_U,
x_A_Q_u,
x_A_Q_U,
A_y_u,
A_y_U,
A_r_u,
A_r_U,
A_v_u,
A_v_U,
A_s_u,
A_s_U,
d_u,
d_U,
d_A_d,
w_A_w,
w_A_w_u,
w_A_w_U,
c_A_C_u,
c_A_C_U,
c_A_c_u,
c_A_c_U,
b_A_b_u,
b_A_b_U,
o,
O,
o_A,
O_A,
S_A_r_I,
E_A_a_m_A,
one,
two,
three,
four,
five,
six,
seven,
eight,
nine,
zero,
xxtenxx,
xxhundred,
xxrhaxx,
xxzhaxx,
M_M,
z_u,
z_U,
z_A_z_u,
z_A_z_U,
j_A_z,
d_A_D,
k_A_X,
q_A_X,
N_A_X,
t_A_X,
m_A_X,
g_A_X,
s_A_T,
t_A_T,
s_A_v,
t_A_v,
h_A_X,
t_A_m,
h_A_m,
n_A_m,
N_A_m,
j_A_z_u,
j_A_z_U,
n_A_d_u,
n_A_d_U,
n_A_X,
f_i,
f_I,
d_A_X,
d_A_D1,
t_A_t_u,
t_A_t_U,
k_A_k_u,
k_A_k_U,
g_A_g_u,
g_A_g_U,
n_A_n_u,
n_A_n_U,
z_A_j_u,
z_A_j_U,
l_A_p,
L_A_p,
L_A_p_u,
L_A_p_U,
t_A_k,
t_A_k_u,
t_A_k_U,
k_A_t,
k_A_t_u,
k_A_t_U,
x_A_N,
x_A_N_u,
x_A_N_U,
n_A_t_A_r,
t_A_r,
k_A_r,
g_A_r,
d_A_r,
k_A_y,
g_A_y,
q_A_y,
w_A_y,
N_A_y,
t_A_y,
d_A_y,
n_A_y,
p_A_y,
b_A_y,
m_A_y,
l_A_y,
v_A_y,
S_A_y,
s_A_y,
h_A_y,
p_A_r,
S_A_r,
A_m,
S_A_v,
S_A_c,
m_A_p,
B.pnum,
C.pnum,
D.pnum,
G.pnum,
J.pnum,
K.pnum,
L.pnum,
N.pnum,
P.pnum,
Q.pnum,
S.pnum,
T.pnum,
W.pnum,
Z.pnum,
a.pnum,
b.pnum,
c.pnum,
d.pnum,
g.pnum,
h.pnum,
j.pnum,
k.pnum,
l.pnum,
m.pnum,
n.pnum,
p.pnum,
q.pnum,
r.pnum,
s.pnum,

glyphs = (
{
glyphname = A;
layers = (
{
guideLines = (
{
angle = 90;
position = "{217, 0}";
}
);
layerId = "AD4F0B22-3094-4AE6-A818-B3E1049B6D0D";
paths = (
{
closed = 1;
nodes = (
"-205 521 OFFCURVE",
"-224 525 OFFCURVE",
"-240 534 CURVE SMOOTH",
"-275 553 OFFCURVE",
"-370 637 OFFCURVE",
"-370 678 CURVE SMOOTH",
"-370 686 OFFCURVE",
"-367 690 OFFCURVE",
"-359 690 CURVE SMOOTH",
"-344 690 OFFCURVE",
"-308 645 OFFCURVE",
"-296 634 CURVE SMOOTH",
"-286 624 OFFCURVE",
"-273 615 OFFCURVE",
"-261 607 CURVE",
"-260 607 LINE",
"-250 604 OFFCURVE",
"-240 602 OFFCURVE",
"-229 602 CURVE SMOOTH",
"-212 602 OFFCURVE",
"-188 606 OFFCURVE",
"-173 616 CURVE SMOOTH",
"-153 629 OFFCURVE",
"-127 695 OFFCURVE",
"-109 695 CURVE SMOOTH",
"-88 695 OFFCURVE",
"-56 647 OFFCURVE",
"-56 627 CURVE SMOOTH",
"-56 619 OFFCURVE",
"-69 603 OFFCURVE",
"-74 596 CURVE SMOOTH",
"-109 541 OFFCURVE",
"-116 521 OFFCURVE",
"-187 521 CURVE SMOOTH"
);
}
);
width = -2;
}
);
unicode = 0041;
},
{
glyphname = B;
layers = (
{
layerId = "AD4F0B22-3094-4AE6-A818-B3E1049B6D0D";
paths = (
{
closed = 1;
nodes = (
"81 359 OFFCURVE",
"190 420 OFFCURVE",
"329 420 CURVE SMOOTH",
"353 420 OFFCURVE",
"399 414 OFFCURVE",
"413 392 CURVE SMOOTH",
"420 381 OFFCURVE",
"424 353 OFFCURVE",
"424 340 CURVE SMOOTH",
"424 253 OFFCURVE",
"382 145 OFFCURVE",
"307 96 CURVE SMOOTH",
"298 90 OFFCURVE",
"287 86 OFFCURVE",
"278 80 CURVE SMOOTH",
"275 78 OFFCURVE",
"274 73 OFFCURVE",
"274 69 CURVE SMOOTH",
"274 45 OFFCURVE",
"301 11 OFFCURVE",
"322 2 CURVE SMOOTH",
"328 0 OFFCURVE",
"628 -1 OFFCURVE",
"657 -1 CURVE",
"776 0 LINE",
"784 0 OFFCURVE",
"787 4 OFFCURVE",
"787 12 CURVE SMOOTH",
"787 31 OFFCURVE",
"769 57 OFFCURVE",
"755 69 CURVE SMOOTH",
"739 83 OFFCURVE",
"718 89 OFFCURVE",
"702 104 CURVE SMOOTH",
"656 146 OFFCURVE",
"637 221 OFFCURVE",
"637 282 CURVE SMOOTH",
"637 364 OFFCURVE",
"692 419 OFFCURVE",
"774 419 CURVE SMOOTH",
"828 419 OFFCURVE",
"931 406 OFFCURVE",
"961 355 CURVE SMOOTH",
"978 327 OFFCURVE",
"980 294 OFFCURVE",
"980 263 CURVE SMOOTH",
"980 227 OFFCURVE",
"969 184 OFFCURVE",
"955 151 CURVE SMOOTH",
"947 131 OFFCURVE",
"938 112 OFFCURVE",
"926 94 CURVE SMOOTH",
"922 88 OFFCURVE",
"917 83 OFFCURVE",
"913 76 CURVE SMOOTH",
"912 74 OFFCURVE",
"911 70 OFFCURVE",
"911 67 CURVE SMOOTH",
"911 47 OFFCURVE",
"943 -1 OFFCURVE",
"964 -1 CURVE SMOOTH",
"975 -1 OFFCURVE",
"981 13 OFFCURVE",
"986 21 CURVE SMOOTH",
"1020 77 OFFCURVE",
"1044 140 OFFCURVE",
"1044 206 CURVE SMOOTH",
"1044 233 OFFCURVE",
"1042 260 OFFCURVE",
"1035 286 CURVE SMOOTH",
"1012 374 OFFCURVE",
"946 449 OFFCURVE",
"860 480 CURVE SMOOTH",
"819 495 OFFCURVE",
"775 499 OFFCURVE",
"732 499 CURVE SMOOTH",
"633 499 OFFCURVE",
"574 437 OFFCURVE",
"574 339 CURVE SMOOTH",
"574 246 OFFCURVE",
"610 152 OFFCURVE",
"670 81 CURVE",
"670 81 LINE",
"425 81 LINE",
"466 134 OFFCURVE",
"487 216 OFFCURVE",
"487 283 CURVE SMOOTH",
"487 357 OFFCURVE",
"442 441 OFFCURVE",
"377 478 CURVE SMOOTH",
"350 494 OFFCURVE",
"318 500 OFFCURVE",
"287 500 CURVE SMOOTH",
"130 500 OFFCURVE",
"17 434 OFFCURVE",
"17 264 CURVE SMOOTH",
"17 186 OFFCURVE",
"54 97 OFFCURVE",
"99 34 CURVE SMOOTH",
"106 24 OFFCURVE",
"125 0 OFFCURVE",
"139 0 CURVE SMOOTH",
"147 0 OFFCURVE",
"150 4 OFFCURVE",
"150 12 CURVE SMOOTH",
"150 36 OFFCURVE",
"124 63 OFFCURVE",
"113 84 CURVE SMOOTH",
"95 121 OFFCURVE",
"81 166 OFFCURVE",
"81 207 CURVE SMOOTH"
);
}
);
width = 1061;
}
);
leftKerningGroup = general;
rightKerningGroup = general;
unicode = 0042;
},
{
glyphname = C;
layers = (
{
layerId = "AD4F0B22-3094-4AE6-A818-B3E1049B6D0D";
paths = (
{
closed = 1;
nodes = (
"244 169 OFFCURVE",
"248 169 OFFCURVE",
"252 168 CURVE",
"252 167 LINE",
"243 126 OFFCURVE",
"213 77 OFFCURVE",
"166 77 CURVE SMOOTH",
"109 77 OFFCURVE",
"97 147 OFFCURVE",
"97 192 CURVE SMOOTH",
"97 303 OFFCURVE",
"175 414 OFFCURVE",
"294 414 CURVE SMOOTH",
"323 414 OFFCURVE",
"351 411 OFFCURVE",
"375 394 CURVE",
"376 393 LINE",
"389 361 OFFCURVE",
"389 330 OFFCURVE",
"389 296 CURVE SMOOTH",
"389 252 OFFCURVE",
"385 209 OFFCURVE",
"385 165 CURVE SMOOTH",
"385 141 OFFCURVE",
"386 117 OFFCURVE",
"393 94 CURVE SMOOTH",
"405 53 OFFCURVE",
"446 -4 OFFCURVE",
"494 -4 CURVE SMOOTH",
"555 -4 OFFCURVE",
"562 62 OFFCURVE",
"562 109 CURVE SMOOTH",
"562 153 OFFCURVE",
"558 196 OFFCURVE",
"558 240 CURVE SMOOTH",
"558 339 OFFCURVE",
"582 416 OFFCURVE",
"697 416 CURVE SMOOTH",
"800 416 OFFCURVE",
"851 348 OFFCURVE",
"851 249 CURVE SMOOTH",
"851 222 OFFCURVE",
"847 191 OFFCURVE",
"836 166 CURVE SMOOTH",
"820 129 OFFCURVE",
"784 78 OFFCURVE",
"739 78 CURVE SMOOTH",
"713 78 OFFCURVE",
"695 91 OFFCURVE",
"695 119 CURVE SMOOTH",
"695 152 OFFCURVE",
"719 170 OFFCURVE",
"751 170 CURVE SMOOTH",
"774 170 OFFCURVE",
"797 165 OFFCURVE",
"818 157 CURVE SMOOTH",
"826 154 OFFCURVE",
"876 132 OFFCURVE",
"879 132 CURVE SMOOTH",
"887 132 OFFCURVE",
"890 136 OFFCURVE",
"890 144 CURVE SMOOTH",
"890 164 OFFCURVE",
"868 195 OFFCURVE",
"852 206 CURVE SMOOTH",
"844 211 OFFCURVE",
"836 214 OFFCURVE",
"828 218 CURVE SMOOTH",
"790 235 OFFCURVE",
"750 251 OFFCURVE",
"708 251 CURVE SMOOTH",
"660 251 OFFCURVE",
"632 223 OFFCURVE",
"632 175 CURVE SMOOTH",
"632 106 OFFCURVE",
"707 -3 OFFCURVE",
"781 -3 CURVE SMOOTH",
"842 -3 OFFCURVE",
"886 60 OFFCURVE",
"903 112 CURVE SMOOTH",
"911 138 OFFCURVE",
"915 166 OFFCURVE",
"915 193 CURVE SMOOTH",
"915 331 OFFCURVE",
"805 496 OFFCURVE",
"655 496 CURVE SMOOTH",
"523 496 OFFCURVE",
"494 413 OFFCURVE",
"494 297 CURVE SMOOTH",
"494 253 OFFCURVE",
"498 209 OFFCURVE",
"498 165 CURVE SMOOTH",
"498 133 OFFCURVE",
"495 77 OFFCURVE",
"451 77 CURVE",
"450 77 LINE",
"449 88 OFFCURVE",
"448 97 OFFCURVE",
"448 108 CURVE SMOOTH",
"448 152 OFFCURVE",
"453 196 OFFCURVE",
"453 240 CURVE SMOOTH",
"453 275 OFFCURVE",
"451 310 OFFCURVE",
"442 343 CURVE SMOOTH",
"417 434 OFFCURVE",
"348 495 OFFCURVE",
"251 495 CURVE SMOOTH",
"116 495 OFFCURVE",
"33 374 OFFCURVE",
"33 248 CURVE SMOOTH",
"33 218 OFFCURVE",
"38 188 OFFCURVE",
"47 160 CURVE SMOOTH",
"67 97 OFFCURVE",
"134 -4 OFFCURVE",
"208 -4 CURVE SMOOTH",
"269 -4 OFFCURVE",
"316 61 OFFCURVE",
"316 118 CURVE SMOOTH",
"316 178 OFFCURVE",
"263 250 OFFCURVE",
"199 250 CURVE SMOOTH",
"185 250 OFFCURVE",
"171 249 OFFCURVE",
"157 246 CURVE SMOOTH",
"139 242 OFFCURVE",
"75 220 OFFCURVE",
"62 210 CURVE SMOOTH",
"59 207 OFFCURVE",
"58 203 OFFCURVE",
"58 199 CURVE SMOOTH",
"58 179 OFFCURVE",
"90 131 OFFCURVE",
"111 131 CURVE SMOOTH",
"119 131 OFFCURVE",
"138 141 OFFCURVE",
"146 145 CURVE SMOOTH",
"174 158 OFFCURVE",
"209 169 OFFCURVE",
"240 169 CURVE SMOOTH"
);
}
);
width = 939;
}
);
leftKerningGroup = general;
rightKerningGroup = general;
unicode = 0043;
},
{
glyphname = D;
layers = (
{
layerId = "AD4F0B22-3094-4AE6-A818-B3E1049B6D0D";
paths = (
{
closed = 1;
nodes = (
"17 145 OFFCURVE",
"117 0 OFFCURVE",
"240 0 CURVE SMOOTH",
"321 0 OFFCURVE",
"369 69 OFFCURVE",
"395 138 CURVE",
"427 75 OFFCURVE",
"492 0 OFFCURVE",
"569 0 CURVE SMOOTH",
"677 0 OFFCURVE",
"751 100 OFFCURVE",
"751 202 CURVE SMOOTH",
"751 307 OFFCURVE",
"686 402 OFFCURVE",
"611 470 CURVE SMOOTH",
"603 477 OFFCURVE",
"578 500 OFFCURVE",
"568 500 CURVE SMOOTH",
"560 500 OFFCURVE",
"557 496 OFFCURVE",
"557 488 CURVE SMOOTH",
"557 423 OFFCURVE",
"688 397 OFFCURVE",
"688 259 CURVE SMOOTH",
"688 173 OFFCURVE",
"619 81 OFFCURVE",
"528 81 CURVE SMOOTH",
"457 81 OFFCURVE",
"432 143 OFFCURVE",
"419 203 CURVE SMOOTH",
"417 214 OFFCURVE",
"415 225 OFFCURVE",
"411 236 CURVE SMOOTH",
"405 251 OFFCURVE",
"380 286 OFFCURVE",
"363 286 CURVE SMOOTH",
"351 286 OFFCURVE",
"352 274 OFFCURVE",
"350 265 CURVE SMOOTH",
"336 189 OFFCURVE",
"288 81 OFFCURVE",
"197 81 CURVE SMOOTH",
"123 81 OFFCURVE",
"80 129 OFFCURVE",
"80 202 CURVE SMOOTH",
"80 269 OFFCURVE",
"116 333 OFFCURVE",
"162 380 CURVE SMOOTH",
"174 392 OFFCURVE",
"201 412 OFFCURVE",
"209 423 CURVE SMOOTH",
"210 425 OFFCURVE",
"211 430 OFFCURVE",
"211 432 CURVE",
"211 452 OFFCURVE",
"179 500 OFFCURVE",
"158 500 CURVE SMOOTH",
"148 500 OFFCURVE",
"132 482 OFFCURVE",
"125 476 CURVE SMOOTH",
"63 418 OFFCURVE",
"17 347 OFFCURVE",
"17 259 CURVE SMOOTH"
);
}
);
width = 768;
}
);
leftKerningGroup = general;
rightKerningGroup = general;
unicode = 0044;
},
{
glyphname = E;
layers = (
{
layerId = "AD4F0B22-3094-4AE6-A818-B3E1049B6D0D";
paths = (
{
closed = 1;
nodes = (
"179 331 OFFCURVE",
"146 334 OFFCURVE",
"134 342 CURVE",
"133 347 OFFCURVE",
"132 352 OFFCURVE",
"132 358 CURVE SMOOTH",
"132 392 OFFCURVE",
"164 418 OFFCURVE",
"197 418 CURVE SMOOTH",
"208 418 OFFCURVE",
"220 414 OFFCURVE",
"229 408 CURVE",
"235 387 OFFCURVE",
"236 363 OFFCURVE",
"236 341 CURVE SMOOTH",
"236 275 OFFCURVE",
"228 163 OFFCURVE",
"183 112 CURVE SMOOTH",
"164 91 OFFCURVE",
"131 81 OFFCURVE",
"103 81 CURVE SMOOTH",
"96 81 OFFCURVE",
"88 82 OFFCURVE",
"81 84 CURVE",
"83 93 OFFCURVE",
"96 127 OFFCURVE",
"96 131 CURVE SMOOTH",
"96 151 OFFCURVE",
"64 199 OFFCURVE",
"43 199 CURVE",
"41 199 OFFCURVE",
"38 199 OFFCURVE",
"36 198 CURVE SMOOTH",
"27 191 OFFCURVE",
"17 147 OFFCURVE",
"17 135 CURVE SMOOTH",
"17 69 OFFCURVE",
"78 0 OFFCURVE",
"145 0 CURVE SMOOTH",
"177 0 OFFCURVE",
"210 8 OFFCURVE",
"234 30 CURVE SMOOTH",
"285 76 OFFCURVE",
"299 197 OFFCURVE",
"299 263 CURVE SMOOTH",
"299 349 OFFCURVE",
"295 419 OFFCURVE",
"220 474 CURVE SMOOTH",
"203 486 OFFCURVE",
"176 499 OFFCURVE",
"155 499 CURVE SMOOTH",
"100 499 OFFCURVE",
"69 463 OFFCURVE",
"69 409 CURVE SMOOTH",
"69 389 OFFCURVE",
"76 368 OFFCURVE",
"84 349 CURVE SMOOTH",
"113 284 OFFCURVE",
"163 250 OFFCURVE",
"235 250 CURVE SMOOTH",
"247 250 OFFCURVE",
"281 251 OFFCURVE",
"290 258 CURVE SMOOTH",
"293 261 OFFCURVE",
"294 265 OFFCURVE",
"294 269 CURVE SMOOTH",
"294 289 OFFCURVE",
"262 337 OFFCURVE",
"241 337 CURVE SMOOTH",
"236 337 OFFCURVE",
"232 335 OFFCURVE",
"227 334 CURVE SMOOTH",
"216 331 OFFCURVE",
"205 331 OFFCURVE",
"194 331 CURVE SMOOTH"
);
}
);
width = 316;
}
);
leftKerningGroup = general;
rightKerningGroup = general;
unicode = 0045;
},
{
glyphname = F;
layers = (
{
layerId = "AD4F0B22-3094-4AE6-A818-B3E1049B6D0D";
paths = (
{
closed = 1;
nodes = (
"354 330 OFFCURVE",
"345 331 OFFCURVE",
"336 334 CURVE",
"342 363 OFFCURVE",
"358 419 OFFCURVE",
"395 419 CURVE SMOOTH",
"423 419 OFFCURVE",
"424 342 OFFCURVE",
"424 322 CURVE SMOOTH",
"424 303 OFFCURVE",
"421 284 OFFCURVE",
"417 265 CURVE SMOOTH",
"390 135 OFFCURVE",
"289 83 OFFCURVE",
"164 83 CURVE SMOOTH",
"129 83 OFFCURVE",
"92 86 OFFCURVE",
"58 92 CURVE SMOOTH",
"49 93 OFFCURVE",
"36 99 OFFCURVE",
"28 99 CURVE SMOOTH",
"20 99 OFFCURVE",
"17 95 OFFCURVE",
"17 87 CURVE SMOOTH",
"17 76 OFFCURVE",
"24 62 OFFCURVE",
"30 53 CURVE SMOOTH",
"39 40 OFFCURVE",
"50 27 OFFCURVE",
"64 20 CURVE SMOOTH",
"88 8 OFFCURVE",
"175 2 OFFCURVE",
"205 2 CURVE SMOOTH",
"349 2 OFFCURVE",
"457 62 OFFCURVE",
"482 212 CURVE SMOOTH",
"485 230 OFFCURVE",
"487 248 OFFCURVE",
"487 266 CURVE SMOOTH",
"487 344 OFFCURVE",
"465 424 OFFCURVE",
"404 476 CURVE SMOOTH",
"392 486 OFFCURVE",
"370 500 OFFCURVE",
"354 500 CURVE SMOOTH",
"341 500 OFFCURVE",
"329 498 OFFCURVE",
"318 490 CURVE SMOOTH",
"291 470 OFFCURVE",
"271 412 OFFCURVE",
"271 379 CURVE SMOOTH",
"271 315 OFFCURVE",
"340 249 OFFCURVE",
"404 249 CURVE SMOOTH",
"420 249 OFFCURVE",
"469 254 OFFCURVE",
"478 267 CURVE SMOOTH",
"479 269 OFFCURVE",
"480 274 OFFCURVE",
"480 276 CURVE",
"480 296 OFFCURVE",
"448 344 OFFCURVE",
"427 344 CURVE SMOOTH",
"419 344 OFFCURVE",
"412 339 OFFCURVE",
"405 337 CURVE SMOOTH",
"392 332 OFFCURVE",
"377 330 OFFCURVE",
"363 330 CURVE SMOOTH"
);
}
);
width = 504;
}
);
leftKerningGroup = general;
rightKerningGroup = general;
unicode = 0046;
},
{
glyphname = G;
layers = (
{
layerId = "AD4F0B22-3094-4AE6-A818-B3E1049B6D0D";
paths = (
{
closed = 1;
nodes = (
"80 295 OFFCURVE",
"109 417 OFFCURVE",
"192 417 CURVE SMOOTH",
"216 417 OFFCURVE",
"239 408 OFFCURVE",
"259 395 CURVE",
"259 392 OFFCURVE",
"260 389 OFFCURVE",
"260 386 CURVE SMOOTH",
"260 323 OFFCURVE",
"234 265 OFFCURVE",
"234 202 CURVE SMOOTH",
"234 163 OFFCURVE",
"244 127 OFFCURVE",
"265 94 CURVE SMOOTH",
"316 16 OFFCURVE",
"393 -1 OFFCURVE",
"480 -1 CURVE SMOOTH",
"629 -1 OFFCURVE",
"739 124 OFFCURVE",
"739 270 CURVE SMOOTH",
"739 360 OFFCURVE",
"691 452 OFFCURVE",
"606 487 CURVE SMOOTH",
"589 494 OFFCURVE",
"569 500 OFFCURVE",
"550 500 CURVE SMOOTH",
"487 500 OFFCURVE",
"466 446 OFFCURVE",
"466 391 CURVE SMOOTH",
"466 257 OFFCURVE",
"559 80 OFFCURVE",
"684 23 CURVE SMOOTH",
"721 6 OFFCURVE",
"773 0 OFFCURVE",
"814 0 CURVE SMOOTH",
"957 0 OFFCURVE",
"1045 95 OFFCURVE",
"1045 236 CURVE SMOOTH",
"1045 272 OFFCURVE",
"1038 306 OFFCURVE",
"1027 340 CURVE SMOOTH",
"1003 412 OFFCURVE",
"941 501 OFFCURVE",
"857 501 CURVE SMOOTH",
"847 501 OFFCURVE",
"840 500 OFFCURVE",
"840 488 CURVE SMOOTH",
"840 464 OFFCURVE",
"867 431 OFFCURVE",
"888 421 CURVE SMOOTH",
"892 419 OFFCURVE",
"898 420 OFFCURVE",
"903 420 CURVE SMOOTH",
"920 420 OFFCURVE",
"940 415 OFFCURVE",
"952 402 CURVE SMOOTH",
"973 378 OFFCURVE",
"981 323 OFFCURVE",
"981 292 CURVE SMOOTH",
"981 167 OFFCURVE",
"898 81 OFFCURVE",
"772 81 CURVE SMOOTH",
"692 81 OFFCURVE",
"637 94 OFFCURVE",
"586 159 CURVE SMOOTH",
"551 204 OFFCURVE",
"529 277 OFFCURVE",
"529 334 CURVE SMOOTH",
"529 373 OFFCURVE",
"545 419 OFFCURVE",
"591 419 CURVE SMOOTH",
"611 419 OFFCURVE",
"647 408 OFFCURVE",
"661 394 CURVE SMOOTH",
"673 383 OFFCURVE",
"675 342 OFFCURVE",
"675 327 CURVE SMOOTH",
"675 197 OFFCURVE",
"571 80 OFFCURVE",
"438 80 CURVE SMOOTH",
"397 80 OFFCURVE",
"350 84 OFFCURVE",
"313 102 CURVE",
"311 103 OFFCURVE",
"303 108 OFFCURVE",
"302 109 CURVE",
"298 117 OFFCURVE",
"297 136 OFFCURVE",
"297 145 CURVE SMOOTH",
"297 208 OFFCURVE",
"323 267 OFFCURVE",
"323 330 CURVE SMOOTH",
"323 398 OFFCURVE",
"279 448 OFFCURVE",
"221 478 CURVE SMOOTH",
"199 489 OFFCURVE",
"175 498 OFFCURVE",
"150 498 CURVE SMOOTH",
"50 498 OFFCURVE",
"17 367 OFFCURVE",
"17 287 CURVE SMOOTH",
"17 199 OFFCURVE",
"38 108 OFFCURVE",
"88 34 CURVE SMOOTH",
"95 24 OFFCURVE",
"114 0 OFFCURVE",
"128 0 CURVE SMOOTH",
"136 0 OFFCURVE",
"139 4 OFFCURVE",
"139 12 CURVE SMOOTH",
"139 30 OFFCURVE",
"126 44 OFFCURVE",
"118 59 CURVE SMOOTH",
"89 111 OFFCURVE",
"80 171 OFFCURVE",
"80 230 CURVE SMOOTH"
);
}
);
width = 1062;
}
);
leftKerningGroup = general;
rightKerningGroup = general;
unicode = 0047;
},
{
glyphname = H;
layers = (
{
layerId = "AD4F0B22-3094-4AE6-A818-B3E1049B6D0D";
paths = (
{
closed = 1;
nodes = (
"207 1 OFFCURVE",
"242 37 OFFCURVE",
"242 92 CURVE SMOOTH",
"242 154 OFFCURVE",
"183 227 OFFCURVE",
"118 227 CURVE SMOOTH",
"65 227 OFFCURVE",
"22 200 OFFCURVE",
"22 143 CURVE SMOOTH",
"22 82 OFFCURVE",
"87 1 OFFCURVE",
"151 1 CURVE SMOOTH"
);
},
{
closed = 1;
nodes = (
"85 86 OFFCURVE",
"84 88 OFFCURVE",
"84 89 CURVE",
"84 128 OFFCURVE",
"124 148 OFFCURVE",
"159 148 CURVE SMOOTH",
"165 148 OFFCURVE",
"173 147 OFFCURVE",
"179 145 CURVE",
"178 107 OFFCURVE",
"148 80 OFFCURVE",
"111 80 CURVE SMOOTH",
"102 80 OFFCURVE",
"93 81 OFFCURVE",
"85 85 CURVE"
);
},
{
closed = 1;
nodes = (
"202 256 OFFCURVE",
"237 292 OFFCURVE",
"237 347 CURVE SMOOTH",
"237 409 OFFCURVE",
"178 482 OFFCURVE",
"113 482 CURVE SMOOTH",
"60 482 OFFCURVE",
"17 455 OFFCURVE",
"17 398 CURVE SMOOTH",
"17 337 OFFCURVE",
"82 256 OFFCURVE",
"146 256 CURVE SMOOTH"
);
},
{
closed = 1;
nodes = (
"80 341 OFFCURVE",
"79 343 OFFCURVE",
"79 344 CURVE",
"79 383 OFFCURVE",
"119 403 OFFCURVE",
"154 403 CURVE SMOOTH",
"160 403 OFFCURVE",
"168 402 OFFCURVE",
"174 400 CURVE",
"173 362 OFFCURVE",
"143 335 OFFCURVE",
"106 335 CURVE SMOOTH",
"97 335 OFFCURVE",
"88 336 OFFCURVE",
"80 340 CURVE"
);
}
);
width = 259;
}
);
leftKerningGroup = general;
rightKerningGroup = general;
unicode = 0048;
},
{
glyphname = I;
layers = (
{
layerId = "AD4F0B22-3094-4AE6-A818-B3E1049B6D0D";
paths = (
{
closed = 1;
nodes = (
"-339 603 OFFCURVE",
"-355 604 OFFCURVE",
"-368 610 CURVE",
"-337 652 OFFCURVE",
"-256 663 OFFCURVE",
"-207 663 CURVE SMOOTH",
"-99 663 OFFCURVE",
"28 618 OFFCURVE",
"62 506 CURVE SMOOTH",
"64 500 OFFCURVE",
"67 493 OFFCURVE",
"67 486 CURVE SMOOTH",
"67 423 OFFCURVE",
"65 358 OFFCURVE",
"65 295 CURVE SMOOTH",
"65 275 OFFCURVE",
"97 227 OFFCURVE",
"118 227 CURVE SMOOTH",
"128 227 OFFCURVE",
"129 232 OFFCURVE",
"129 240 CURVE",
"130 260 OFFCURVE",
"129 281 OFFCURVE",
"129 301 CURVE SMOOTH",
"129 344 OFFCURVE",
"130 389 OFFCURVE",
"130 432 CURVE SMOOTH",
"130 456 OFFCURVE",
"113 497 OFFCURVE",
"103 519 CURVE SMOOTH",
"39 658 OFFCURVE",
"-95 744 OFFCURVE",
"-248 744 CURVE SMOOTH",
"-303 744 OFFCURVE",
"-436 728 OFFCURVE",
"-436 653 CURVE SMOOTH",
"-436 639 OFFCURVE",
"-431 625 OFFCURVE",
"-425 613 CURVE SMOOTH",
"-399 558 OFFCURVE",
"-343 522 OFFCURVE",
"-282 522 CURVE SMOOTH",
"-230 522 OFFCURVE",
"-192 551 OFFCURVE",
"-171 598 CURVE SMOOTH",
"-168 606 OFFCURVE",
"-161 621 OFFCURVE",
"-161 629 CURVE SMOOTH",
"-161 649 OFFCURVE",
"-193 697 OFFCURVE",
"-214 697 CURVE SMOOTH",
"-218 697 OFFCURVE",
"-221 697 OFFCURVE",
"-223 694 CURVE SMOOTH",
"-229 684 OFFCURVE",
"-230 671 OFFCURVE",
"-235 660 CURVE SMOOTH",
"-251 626 OFFCURVE",
"-287 603 OFFCURVE",
"-325 603 CURVE SMOOTH"
);
}
);
width = 147;
}
);
unicode = 0049;
},
{
glyphname = J;
layers = (
{
layerId = "AD4F0B22-3094-4AE6-A818-B3E1049B6D0D";
paths = (
{
closed = 1;
nodes = (
"80 324 OFFCURVE",
"119 389 OFFCURVE",
"209 414 CURVE SMOOTH",
"233 421 OFFCURVE",
"258 424 OFFCURVE",
"283 424 CURVE SMOOTH",
"382 424 OFFCURVE",
"418 354 OFFCURVE",
"418 265 CURVE SMOOTH",
"418 194 OFFCURVE",
"383 98 OFFCURVE",
"298 98 CURVE SMOOTH",
"250 98 OFFCURVE",
"230 136 OFFCURVE",
"230 180 CURVE SMOOTH",
"230 209 OFFCURVE",
"240 241 OFFCURVE",
"275 241 CURVE SMOOTH",
"293 241 OFFCURVE",
"330 229 OFFCURVE",
"342 215 CURVE SMOOTH",
"361 193 OFFCURVE",
"372 157 OFFCURVE",
"386 131 CURVE SMOOTH",
"430 47 OFFCURVE",
"483 0 OFFCURVE",
"581 0 CURVE SMOOTH",
"623 0 OFFCURVE",
"672 20 OFFCURVE",
"685 63 CURVE",
"718 18 OFFCURVE",
"761 1 OFFCURVE",
"816 1 CURVE SMOOTH",
"849 1 OFFCURVE",
"883 7 OFFCURVE",
"914 21 CURVE SMOOTH",
"938 32 OFFCURVE",
"960 46 OFFCURVE",
"976 67 CURVE SMOOTH",
"1018 122 OFFCURVE",
"1019 222 OFFCURVE",
"1019 289 CURVE SMOOTH",
"1019 317 OFFCURVE",
"1012 345 OFFCURVE",
"1002 371 CURVE SMOOTH",
"981 423 OFFCURVE",
"924 501 OFFCURVE",
"862 501 CURVE SMOOTH",
"828 501 OFFCURVE",
"780 483 OFFCURVE",
"763 452 CURVE SMOOTH",
"757 440 OFFCURVE",
"754 426 OFFCURVE",
"754 413 CURVE SMOOTH",
"754 397 OFFCURVE",
"760 381 OFFCURVE",
"766 366 CURVE SMOOTH",
"793 299 OFFCURVE",
"869 222 OFFCURVE",
"946 222 CURVE SMOOTH",
"962 222 OFFCURVE",
"1011 226 OFFCURVE",
"1011 247 CURVE SMOOTH",
"1011 267 OFFCURVE",
"979 315 OFFCURVE",
"958 315 CURVE SMOOTH",
"945 315 OFFCURVE",
"925 303 OFFCURVE",
"905 303 CURVE SMOOTH",
"876 303 OFFCURVE",
"818 324 OFFCURVE",
"818 360 CURVE SMOOTH",
"818 397 OFFCURVE",
"872 420 OFFCURVE",
"903 420 CURVE SMOOTH",
"957 420 OFFCURVE",
"955 360 OFFCURVE",
"955 322 CURVE SMOOTH",
"955 303 OFFCURVE",
"955 285 OFFCURVE",
"953 266 CURVE SMOOTH",
"945 183 OFFCURVE",
"930 121 OFFCURVE",
"843 93 CURVE SMOOTH",
"821 86 OFFCURVE",
"797 81 OFFCURVE",
"774 81 CURVE SMOOTH",
"754 81 OFFCURVE",
"732 83 OFFCURVE",
"714 92 CURVE",
"698 134 OFFCURVE",
"699 189 OFFCURVE",
"696 234 CURVE SMOOTH",
"695 252 OFFCURVE",
"695 270 OFFCURVE",
"690 287 CURVE SMOOTH",
"685 304 OFFCURVE",
"658 344 OFFCURVE",
"639 344 CURVE SMOOTH",
"631 344 OFFCURVE",
"628 340 OFFCURVE",
"628 332 CURVE SMOOTH",
"628 293 OFFCURVE",
"636 254 OFFCURVE",
"636 215 CURVE SMOOTH",
"636 147 OFFCURVE",
"620 81 OFFCURVE",
"538 81 CURVE SMOOTH",
"516 81 OFFCURVE",
"484 84 OFFCURVE",
"464 94 CURVE SMOOTH",
"451 100 OFFCURVE",
"447 104 OFFCURVE",
"439 117 CURVE SMOOTH",
"428 136 OFFCURVE",
"419 157 OFFCURVE",
"409 177 CURVE SMOOTH",
"382 231 OFFCURVE",
"345 283 OFFCURVE",
"288 308 CURVE SMOOTH",
"271 315 OFFCURVE",
"252 322 OFFCURVE",
"233 322 CURVE SMOOTH",
"181 322 OFFCURVE",
"167 281 OFFCURVE",
"167 236 CURVE SMOOTH",
"167 152 OFFCURVE",
"246 17 OFFCURVE",
"340 17 CURVE SMOOTH",
"442 17 OFFCURVE",
"481 121 OFFCURVE",
"481 208 CURVE SMOOTH",
"481 244 OFFCURVE",
"475 281 OFFCURVE",
"463 316 CURVE SMOOTH",
"431 410 OFFCURVE",
"348 505 OFFCURVE",
"242 505 CURVE SMOOTH",
"102 505 OFFCURVE",
"17 434 OFFCURVE",
"17 290 CURVE SMOOTH",
"17 211 OFFCURVE",
"41 88 OFFCURVE",
"95 28 CURVE SMOOTH",
"101 21 OFFCURVE",
"118 5 OFFCURVE",
"128 5 CURVE SMOOTH",
"136 5 OFFCURVE",
"139 9 OFFCURVE",
"139 17 CURVE SMOOTH",
"139 41 OFFCURVE",
"118 57 OFFCURVE",
"109 78 CURVE SMOOTH",
"89 126 OFFCURVE",
"80 181 OFFCURVE",
"80 233 CURVE SMOOTH"
);
}
);
width = 1036;
}
);
leftKerningGroup = general;
rightKerningGroup = general;
unicode = 004A;
},
{
glyphname = K;
layers = (
{
layerId = "AD4F0B22-3094-4AE6-A818-B3E1049B6D0D";
paths = (
{
closed = 1;
nodes = (
"728 226 OFFCURVE",
"723 108 OFFCURVE",
"667 90 CURVE SMOOTH",
"650 84 OFFCURVE",
"625 85 OFFCURVE",
"607 84 CURVE SMOOTH",
"563 81 OFFCURVE",
"518 80 OFFCURVE",
"474 80 CURVE",
"493 114 OFFCURVE",
"500 155 OFFCURVE",
"500 193 CURVE SMOOTH",
"500 333 OFFCURVE",
"366 503 OFFCURVE",
"219 503 CURVE SMOOTH",
"199 503 OFFCURVE",
"179 499 OFFCURVE",
"161 491 CURVE SMOOTH",
"47 441 OFFCURVE",
"21 271 OFFCURVE",
"21 161 CURVE SMOOTH",
"21 75 OFFCURVE",
"91 -4 OFFCURVE",
"179 -4 CURVE SMOOTH",
"214 -4 OFFCURVE",
"264 10 OFFCURVE",
"282 43 CURVE SMOOTH",
"289 56 OFFCURVE",
"291 74 OFFCURVE",
"291 89 CURVE SMOOTH",
"291 170 OFFCURVE",
"230 291 OFFCURVE",
"137 291 CURVE SMOOTH",
"125 291 OFFCURVE",
"114 288 OFFCURVE",
"102 285 CURVE SMOOTH",
"88 281 OFFCURVE",
"42 260 OFFCURVE",
"34 249 CURVE SMOOTH",
"33 247 OFFCURVE",
"32 242 OFFCURVE",
"32 240 CURVE",
"32 220 OFFCURVE",
"64 172 OFFCURVE",
"85 172 CURVE SMOOTH",
"95 172 OFFCURVE",
"139 210 OFFCURVE",
"180 210 CURVE SMOOTH",
"192 210 OFFCURVE",
"207 207 OFFCURVE",
"217 200 CURVE SMOOTH",
"224 195 OFFCURVE",
"228 155 OFFCURVE",
"228 145 CURVE SMOOTH",
"228 135 OFFCURVE",
"227 125 OFFCURVE",
"223 116 CURVE SMOOTH",
"211 90 OFFCURVE",
"164 77 OFFCURVE",
"137 77 CURVE SMOOTH",
"120 77 OFFCURVE",
"102 79 OFFCURVE",
"86 87 CURVE",
"85 93 OFFCURVE",
"85 99 OFFCURVE",
"85 105 CURVE SMOOTH",
"85 202 OFFCURVE",
"106 344 OFFCURVE",
"194 401 CURVE SMOOTH",
"214 414 OFFCURVE",
"238 422 OFFCURVE",
"262 422 CURVE SMOOTH",
"359 422 OFFCURVE",
"437 346 OFFCURVE",
"437 249 CURVE SMOOTH",
"437 200 OFFCURVE",
"419 153 OFFCURVE",
"390 114 CURVE SMOOTH",
"383 104 OFFCURVE",
"374 96 OFFCURVE",
"367 86 CURVE SMOOTH",
"366 84 OFFCURVE",
"365 80 OFFCURVE",
"365 77 CURVE SMOOTH",
"365 66 OFFCURVE",
"372 52 OFFCURVE",
"378 43 CURVE SMOOTH",
"386 31 OFFCURVE",
"396 19 OFFCURVE",
"408 12 CURVE SMOOTH",
"427 1 OFFCURVE",
"489 -1 OFFCURVE",
"513 -1 CURVE SMOOTH",
"553 -1 OFFCURVE",
"700 0 OFFCURVE",
"728 15 CURVE SMOOTH",
"786 47 OFFCURVE",
"792 160 OFFCURVE",
"792 218 CURVE SMOOTH",
"792 287 OFFCURVE",
"780 437 OFFCURVE",
"728 486 CURVE SMOOTH",
"723 490 OFFCURVE",
"712 499 OFFCURVE",
"705 499 CURVE SMOOTH",
"697 499 OFFCURVE",
"694 495 OFFCURVE",
"694 487 CURVE SMOOTH",
"694 475 OFFCURVE",
"701 465 OFFCURVE",
"705 454 CURVE SMOOTH",
"724 398 OFFCURVE",
"728 334 OFFCURVE",
"728 275 CURVE SMOOTH"
);
}
);
width = 809;
}
);
leftKerningGroup = general;
rightKerningGroup = general;
unicode = 004B;
},
{
glyphname = L;
layers = (
{
guideLines = (
{
angle = 90;
position = "{495, 0}";
}
);
layerId = "AD4F0B22-3094-4AE6-A818-B3E1049B6D0D";
paths = (
{
closed = 1;
nodes = (
"148 383 OFFCURVE",
"156 373 OFFCURVE",
"156 354 CURVE SMOOTH",
"156 320 OFFCURVE",
"128 300 OFFCURVE",
"96 300 CURVE SMOOTH",
"87 300 OFFCURVE",
"77 301 OFFCURVE",
"68 305 CURVE",
"68 308 OFFCURVE",
"68 313 OFFCURVE",
"68 316 CURVE SMOOTH",
"68 329 OFFCURVE",
"73 343 OFFCURVE",
"80 354 CURVE SMOOTH",
"116 413 OFFCURVE",
"210 427 OFFCURVE",
"274 427 CURVE SMOOTH",
"330 427 OFFCURVE",
"392 417 OFFCURVE",
"439 384 CURVE",
"438 376 OFFCURVE",
"438 369 OFFCURVE",
"434 362 CURVE SMOOTH",
"410 317 OFFCURVE",
"301 333 OFFCURVE",
"284 320 CURVE SMOOTH",
"280 317 OFFCURVE",
"279 313 OFFCURVE",
"279 309 CURVE SMOOTH",
"279 292 OFFCURVE",
"306 248 OFFCURVE",
"325 248 CURVE SMOOTH",
"337 248 OFFCURVE",
"348 255 OFFCURVE",
"360 255 CURVE SMOOTH",
"393 255 OFFCURVE",
"417 244 OFFCURVE",
"443 226 CURVE",
"443 226 LINE",
"443 194 OFFCURVE",
"409 185 OFFCURVE",
"383 185 CURVE SMOOTH",
"319 185 OFFCURVE",
"256 198 OFFCURVE",
"192 198 CURVE SMOOTH",
"116 198 OFFCURVE",
"25 190 OFFCURVE",
"25 92 CURVE SMOOTH",
"25 79 OFFCURVE",
"32 66 OFFCURVE",
"39 55 CURVE SMOOTH",
"48 42 OFFCURVE",
"58 30 OFFCURVE",
"72 22 CURVE SMOOTH",
"110 -1 OFFCURVE",
"205 -1 OFFCURVE",
"251 -1 CURVE SMOOTH",
"327 -1 OFFCURVE",
"405 2 OFFCURVE",
"481 6 CURVE SMOOTH",
"490 7 OFFCURVE",
"496 6 OFFCURVE",
"496 17 CURVE SMOOTH",
"496 34 OFFCURVE",
"469 78 OFFCURVE",
"450 78 CURVE SMOOTH",
"423 78 OFFCURVE",
"396 76 OFFCURVE",
"369 75 CURVE SMOOTH",
"314 73 OFFCURVE",
"259 71 OFFCURVE",
"204 71 CURVE SMOOTH",
"166 71 OFFCURVE",
"126 69 OFFCURVE",
"89 77 CURVE",
"110 123 OFFCURVE",
"186 126 OFFCURVE",
"229 126 CURVE SMOOTH",
"293 126 OFFCURVE",
"357 113 OFFCURVE",
"421 113 CURVE SMOOTH",
"435 113 OFFCURVE",
"450 114 OFFCURVE",
"463 119 CURVE SMOOTH",
"486 127 OFFCURVE",
"500 151 OFFCURVE",
"500 175 CURVE SMOOTH",
"500 208 OFFCURVE",
"473 247 OFFCURVE",
"451 269 CURVE",
"478 279 OFFCURVE",
"495 301 OFFCURVE",
"495 330 CURVE SMOOTH",
"495 355 OFFCURVE",
"483 383 OFFCURVE",
"468 403 CURVE SMOOTH",
"415 474 OFFCURVE",
"323 499 OFFCURVE",
"238 499 CURVE SMOOTH",
"170 499 OFFCURVE",
"86 488 OFFCURVE",
"38 434 CURVE SMOOTH",
"22 416 OFFCURVE",
"12 391 OFFCURVE",
"12 366 CURVE SMOOTH",
"12 301 OFFCURVE",
"64 228 OFFCURVE",
"134 228 CURVE SMOOTH",
"180 228 OFFCURVE",
"213 257 OFFCURVE",
"213 304 CURVE SMOOTH",
"213 359 OFFCURVE",
"152 455 OFFCURVE",
"92 455 CURVE SMOOTH",
"76 455 OFFCURVE",
"40 448 OFFCURVE",
"40 427 CURVE SMOOTH",
"40 410 OFFCURVE",
"67 366 OFFCURVE",
"86 366 CURVE SMOOTH",
"94 366 OFFCURVE",
"104 383 OFFCURVE",
"129 383 CURVE SMOOTH"
);
}
);
width = 513;
}
);
leftKerningGroup = general;
rightKerningGroup = general;
unicode = 004C;
},
{
glyphname = M;
layers = (
{
layerId = "AD4F0B22-3094-4AE6-A818-B3E1049B6D0D";
paths = (
{
closed = 1;
nodes = (
"324 6 OFFCURVE",
"389 74 OFFCURVE",
"389 175 CURVE SMOOTH",
"389 278 OFFCURVE",
"300 375 OFFCURVE",
"195 375 CURVE SMOOTH",
"107 375 OFFCURVE",
"17 328 OFFCURVE",
"17 230 CURVE SMOOTH",
"17 124 OFFCURVE",
"111 6 OFFCURVE",
"222 6 CURVE SMOOTH"
);
},
{
closed = 1;
nodes = (
"79 254 OFFCURVE",
"166 296 OFFCURVE",
"236 296 CURVE SMOOTH",
"256 296 OFFCURVE",
"312 286 OFFCURVE",
"321 267 CURVE SMOOTH",
"325 259 OFFCURVE",
"327 239 OFFCURVE",
"327 230 CURVE SMOOTH",
"327 145 OFFCURVE",
"266 86 OFFCURVE",
"182 86 CURVE SMOOTH",
"157 86 OFFCURVE",
"107 96 OFFCURVE",
"93 119 CURVE SMOOTH",
"83 135 OFFCURVE",
"79 156 OFFCURVE",
"79 174 CURVE SMOOTH"
);
}
);
width = 406;
}
);
leftKerningGroup = general;
rightKerningGroup = general;
unicode = 004D;
},
{
glyphname = N;
layers = (
{
layerId = "AD4F0B22-3094-4AE6-A818-B3E1049B6D0D";
paths = (
{
closed = 1;
nodes = (
"222 181 OFFCURVE",
"248 172 OFFCURVE",
"248 143 CURVE SMOOTH",
"248 99 OFFCURVE",
"201 83 OFFCURVE",
"164 83 CURVE SMOOTH",
"142 83 OFFCURVE",
"116 88 OFFCURVE",
"100 104 CURVE SMOOTH",
"87 117 OFFCURVE",
"81 170 OFFCURVE",
"81 188 CURVE SMOOTH",
"81 293 OFFCURVE",
"140 422 OFFCURVE",
"261 422 CURVE SMOOTH",
"296 422 OFFCURVE",
"354 416 OFFCURVE",
"381 393 CURVE SMOOTH",
"418 361 OFFCURVE",
"409 194 OFFCURVE",
"409 146 CURVE SMOOTH",
"409 127 OFFCURVE",
"408 73 OFFCURVE",
"413 57 CURVE SMOOTH",
"418 41 OFFCURVE",
"429 24 OFFCURVE",
"441 13 CURVE SMOOTH",
"446 9 OFFCURVE",
"457 0 OFFCURVE",
"464 0 CURVE SMOOTH",
"472 0 OFFCURVE",
"475 4 OFFCURVE",
"475 12 CURVE SMOOTH",
"475 28 OFFCURVE",
"473 43 OFFCURVE",
"472 59 CURVE SMOOTH",
"471 88 OFFCURVE",
"471 117 OFFCURVE",
"471 146 CURVE SMOOTH",
"471 251 OFFCURVE",
"483 422 OFFCURVE",
"624 422 CURVE SMOOTH",
"649 422 OFFCURVE",
"675 417 OFFCURVE",
"697 404 CURVE SMOOTH",
"748 373 OFFCURVE",
"753 205 OFFCURVE",
"753 148 CURVE SMOOTH",
"753 123 OFFCURVE",
"752 98 OFFCURVE",
"751 73 CURVE",
"769 51 OFFCURVE",
"791 31 OFFCURVE",
"815 17 CURVE",
"814 69 LINE",
"814 149 OFFCURVE",
"815 419 OFFCURVE",
"933 419 CURVE SMOOTH",
"1039 419 OFFCURVE",
"1060 374 OFFCURVE",
"1060 276 CURVE SMOOTH",
"1060 228 OFFCURVE",
"1050 174 OFFCURVE",
"1034 129 CURVE SMOOTH",
"1029 115 OFFCURVE",
"1006 75 OFFCURVE",
"1006 66 CURVE SMOOTH",
"1006 46 OFFCURVE",
"1038 -2 OFFCURVE",
"1059 -2 CURVE SMOOTH",
"1070 -2 OFFCURVE",
"1074 11 OFFCURVE",
"1078 18 CURVE SMOOTH",
"1109 77 OFFCURVE",
"1124 154 OFFCURVE",
"1124 220 CURVE SMOOTH",
"1124 361 OFFCURVE",
"1044 500 OFFCURVE",
"889 500 CURVE SMOOTH",
"854 500 OFFCURVE",
"828 484 OFFCURVE",
"808 455 CURVE SMOOTH",
"752 374 OFFCURVE",
"751 188 OFFCURVE",
"751 90 CURVE SMOOTH",
"751 56 OFFCURVE",
"756 37 OFFCURVE",
"781 13 CURVE SMOOTH",
"786 9 OFFCURVE",
"797 0 OFFCURVE",
"804 0 CURVE SMOOTH",
"807 0 OFFCURVE",
"811 0 OFFCURVE",
"813 3 CURVE SMOOTH",
"817 10 OFFCURVE",
"816 78 OFFCURVE",
"816 91 CURVE SMOOTH",
"816 212 OFFCURVE",
"805 353 OFFCURVE",
"716 445 CURVE SMOOTH",
"680 483 OFFCURVE",
"634 502 OFFCURVE",
"582 502 CURVE SMOOTH",
"551 502 OFFCURVE",
"519 496 OFFCURVE",
"493 478 CURVE SMOOTH",
"417 425 OFFCURVE",
"407 288 OFFCURVE",
"407 203 CURVE SMOOTH",
"407 160 OFFCURVE",
"409 117 OFFCURVE",
"411 74 CURVE",
"429 52 OFFCURVE",
"450 32 OFFCURVE",
"474 17 CURVE",
"471 67 OFFCURVE",
"473 116 OFFCURVE",
"473 166 CURVE SMOOTH",
"473 213 OFFCURVE",
"473 261 OFFCURVE",
"463 307 CURVE SMOOTH",
"446 385 OFFCURVE",
"398 458 OFFCURVE",
"321 487 CURVE SMOOTH",
"289 499 OFFCURVE",
"253 502 OFFCURVE",
"219 502 CURVE SMOOTH",
"81 502 OFFCURVE",
"17 365 OFFCURVE",
"17 244 CURVE SMOOTH",
"17 140 OFFCURVE",
"88 2 OFFCURVE",
"206 2 CURVE SMOOTH",
"260 2 OFFCURVE",
"312 24 OFFCURVE",
"312 86 CURVE SMOOTH",
"312 160 OFFCURVE",
"232 262 OFFCURVE",
"154 262 CURVE SMOOTH",
"109 262 OFFCURVE",
"75 229 OFFCURVE",
"51 194 CURVE SMOOTH",
"47 188 OFFCURVE",
"40 180 OFFCURVE",
"40 172 CURVE SMOOTH",
"40 152 OFFCURVE",
"72 104 OFFCURVE",
"93 104 CURVE",
"95 104 OFFCURVE",
"99 104 OFFCURVE",
"100 105 CURVE",
"106 111 OFFCURVE",
"109 119 OFFCURVE",
"114 126 CURVE SMOOTH",
"132 152 OFFCURVE",
"163 181 OFFCURVE",
"197 181 CURVE SMOOTH"
);
}
);
width = 1141;
}
);
leftKerningGroup = general;
rightKerningGroup = general;
unicode = 004E;
},
{
glyphname = P;
layers = (
{
layerId = "AD4F0B22-3094-4AE6-A818-B3E1049B6D0D";
paths = (
{
closed = 1;
nodes = (
"81 164 OFFCURVE",
"89 184 OFFCURVE",
"99 203 CURVE SMOOTH",
"139 277 OFFCURVE",
"227 326 OFFCURVE",
"311 326 CURVE SMOOTH",
"351 326 OFFCURVE",
"395 313 OFFCURVE",
"425 286 CURVE SMOOTH",
"429 283 OFFCURVE",
"436 276 OFFCURVE",
"438 272 CURVE SMOOTH",
"441 264 OFFCURVE",
"441 256 OFFCURVE",
"441 248 CURVE SMOOTH",
"441 189 OFFCURVE",
"361 108 OFFCURVE",
"311 82 CURVE",
"312 81 LINE",
"325 53 OFFCURVE",
"341 27 OFFCURVE",
"358 1 CURVE",
"377 1 LINE",
"449 1 OFFCURVE",
"520 -4 OFFCURVE",
"592 -4 CURVE SMOOTH",
"658 -4 OFFCURVE",
"798 -3 OFFCURVE",
"852 31 CURVE SMOOTH",
"897 60 OFFCURVE",
"920 124 OFFCURVE",
"920 176 CURVE SMOOTH",
"920 209 OFFCURVE",
"915 242 OFFCURVE",
"906 273 CURVE SMOOTH",
"880 363 OFFCURVE",
"794 499 OFFCURVE",
"688 499 CURVE SMOOTH",
"633 499 OFFCURVE",
"598 464 OFFCURVE",
"598 409 CURVE SMOOTH",
"598 385 OFFCURVE",
"603 362 OFFCURVE",
"612 340 CURVE SMOOTH",
"633 288 OFFCURVE",
"687 223 OFFCURVE",
"748 223 CURVE SMOOTH",
"795 223 OFFCURVE",
"842 236 OFFCURVE",
"871 276 CURVE SMOOTH",
"876 283 OFFCURVE",
"884 295 OFFCURVE",
"884 303 CURVE SMOOTH",
"884 323 OFFCURVE",
"852 371 OFFCURVE",
"831 371 CURVE",
"829 371 OFFCURVE",
"826 372 OFFCURVE",
"824 370 CURVE SMOOTH",
"816 363 OFFCURVE",
"809 343 OFFCURVE",
"793 330 CURVE SMOOTH",
"772 313 OFFCURVE",
"733 304 OFFCURVE",
"706 304 CURVE SMOOTH",
"691 304 OFFCURVE",
"681 310 OFFCURVE",
"668 316 CURVE",
"663 327 OFFCURVE",
"661 340 OFFCURVE",
"661 352 CURVE SMOOTH",
"661 392 OFFCURVE",
"691 418 OFFCURVE",
"730 418 CURVE SMOOTH",
"821 418 OFFCURVE",
"856 308 OFFCURVE",
"856 233 CURVE SMOOTH",
"856 189 OFFCURVE",
"836 134 OFFCURVE",
"797 109 CURVE SMOOTH",
"746 77 OFFCURVE",
"600 77 OFFCURVE",
"538 77 CURVE SMOOTH",
"465 77 OFFCURVE",
"392 82 OFFCURVE",
"319 82 CURVE SMOOTH",
"310 82 OFFCURVE",
"301 80 OFFCURVE",
"301 69 CURVE SMOOTH",
"301 48 OFFCURVE",
"332 0 OFFCURVE",
"355 0 CURVE SMOOTH",
"366 0 OFFCURVE",
"383 13 OFFCURVE",
"392 20 CURVE SMOOTH",
"442 57 OFFCURVE",
"504 125 OFFCURVE",
"504 191 CURVE SMOOTH",
"504 303 OFFCURVE",
"378 407 OFFCURVE",
"270 407 CURVE SMOOTH",
"244 407 OFFCURVE",
"218 404 OFFCURVE",
"193 396 CURVE SMOOTH",
"109 370 OFFCURVE",
"17 293 OFFCURVE",
"17 198 CURVE SMOOTH",
"17 127 OFFCURVE",
"59 65 OFFCURVE",
"111 20 CURVE SMOOTH",
"117 15 OFFCURVE",
"136 0 OFFCURVE",
"144 0 CURVE SMOOTH",
"152 0 OFFCURVE",
"155 4 OFFCURVE",
"155 12 CURVE SMOOTH",
"155 20 OFFCURVE",
"151 28 OFFCURVE",
"148 35 CURVE SMOOTH",
"123 86 OFFCURVE",
"81 75 OFFCURVE",
"81 142 CURVE SMOOTH"
);
}
);
width = 937;
}
);
leftKerningGroup = general;
rightKerningGroup = general;
unicode = 0050;
},
{
glyphname = Q;
layers = (
{
layerId = "AD4F0B22-3094-4AE6-A818-B3E1049B6D0D";
paths = (
{
closed = 1;
nodes = (
"16 232 OFFCURVE",
"27 198 OFFCURVE",
"42 169 CURVE SMOOTH",
"91 73 OFFCURVE",
"198 0 OFFCURVE",
"308 0 CURVE SMOOTH",
"426 0 OFFCURVE",
"524 81 OFFCURVE",
"524 203 CURVE SMOOTH",
"524 338 OFFCURVE",
"395 499 OFFCURVE",
"254 499 CURVE SMOOTH",
"183 499 OFFCURVE",
"127 462 OFFCURVE",
"81 411 CURVE SMOOTH",
"43 369 OFFCURVE",
"16 323 OFFCURVE",
"16 265 CURVE SMOOTH"
);
},
{
closed = 1;
nodes = (
"388 418 OFFCURVE",
"461 354 OFFCURVE",
"461 260 CURVE SMOOTH",
"461 155 OFFCURVE",
"367 81 OFFCURVE",
"267 81 CURVE SMOOTH",
"211 81 OFFCURVE",
"151 102 OFFCURVE",
"109 140 CURVE SMOOTH",
"103 145 OFFCURVE",
"97 152 OFFCURVE",
"93 159 CURVE SMOOTH",
"85 174 OFFCURVE",
"80 191 OFFCURVE",
"80 208 CURVE SMOOTH",
"80 307 OFFCURVE",
"199 418 OFFCURVE",
"296 418 CURVE SMOOTH"
);
},
{
closed = 1;
nodes = (
"239 214 OFFCURVE",
"261 196 OFFCURVE",
"286 196 CURVE SMOOTH",
"312 196 OFFCURVE",
"333 214 OFFCURVE",
"333 234 CURVE SMOOTH",
"333 256 OFFCURVE",
"312 274 OFFCURVE",
"286 274 CURVE SMOOTH",
"261 274 OFFCURVE",
"239 256 OFFCURVE",
"239 234 CURVE SMOOTH"
);
}
);
width = 536;
}
);
leftKerningGroup = general;
rightKerningGroup = general;
unicode = 0051;
},
{
glyphname = R;
layers = (
{
layerId = "AD4F0B22-3094-4AE6-A818-B3E1049B6D0D";
paths = (
{
closed = 1;
nodes = (
"-92 -96 OFFCURVE",
"-168 -11 OFFCURVE",
"-240 -11 CURVE SMOOTH",
"-281 -11 OFFCURVE",
"-365 -44 OFFCURVE",
"-365 -93 CURVE SMOOTH",
"-365 -113 OFFCURVE",
"-356 -132 OFFCURVE",
"-345 -149 CURVE SMOOTH",
"-303 -213 OFFCURVE",
"-225 -242 OFFCURVE",
"-151 -242 CURVE SMOOTH",
"-115 -242 OFFCURVE",
"-78 -238 OFFCURVE",
"-44 -227 CURVE SMOOTH",
"78 -188 OFFCURVE",
"168 -78 OFFCURVE",
"168 52 CURVE SMOOTH",
"168 146 OFFCURVE",
"127 235 OFFCURVE",
"75 311 CURVE SMOOTH",
"67 323 OFFCURVE",
"46 351 OFFCURVE",
"31 351 CURVE SMOOTH",
"23 351 OFFCURVE",
"20 347 OFFCURVE",
"20 339 CURVE SMOOTH",
"20 316 OFFCURVE",
"50 283 OFFCURVE",
"62 262 CURVE SMOOTH",
"69 250 OFFCURVE",
"74 238 OFFCURVE",
"80 226 CURVE SMOOTH",
"95 193 OFFCURVE",
"105 144 OFFCURVE",
"105 108 CURVE SMOOTH",
"105 -5 OFFCURVE",
"24 -103 OFFCURVE",
"-79 -142 CURVE SMOOTH",
"-115 -155 OFFCURVE",
"-154 -161 OFFCURVE",
"-192 -161 CURVE SMOOTH",
"-224 -161 OFFCURVE",
"-268 -153 OFFCURVE",
"-297 -139 CURVE",
"-286 -116 OFFCURVE",
"-221 -92 OFFCURVE",
"-197 -92 CURVE SMOOTH",
"-178 -92 OFFCURVE",
"-174 -96 OFFCURVE",
"-157 -102 CURVE",
"-156 -102 LINE",
"-160 -108 OFFCURVE",
"-149 -126 OFFCURVE",
"-177 -146 CURVE SMOOTH",
"-189 -154 OFFCURVE",
"-220 -154 OFFCURVE",
"-220 -170 CURVE SMOOTH",
"-220 -190 OFFCURVE",
"-188 -238 OFFCURVE",
"-167 -238 CURVE SMOOTH",
"-126 -238 OFFCURVE",
"-92 -208 OFFCURVE",
"-92 -166 CURVE SMOOTH"
);
}
);
width = 185;
}
);
unicode = 0052;
},
{
glyphname = S;
layers = (
{
layerId = "AD4F0B22-3094-4AE6-A818-B3E1049B6D0D";
paths = (
{
closed = 1;
nodes = (
"70 494 OFFCURVE",
"17 412 OFFCURVE",
"17 295 CURVE SMOOTH",
"17 187 OFFCURVE",
"96 -1 OFFCURVE",
"224 -1 CURVE SMOOTH",
"525 -1 OFFCURVE",
"266 420 OFFCURVE",
"613 420 CURVE SMOOTH",
"725 420 OFFCURVE",
"777 345 OFFCURVE",
"777 239 CURVE SMOOTH",
"777 159 OFFCURVE",
"731 82 OFFCURVE",
"643 82 CURVE SMOOTH",
"620 82 OFFCURVE",
"582 84 OFFCURVE",
"566 103 CURVE",
"567 103 LINE",
"567 106 OFFCURVE",
"566 109 OFFCURVE",
"565 112 CURVE SMOOTH",
"563 124 OFFCURVE",
"561 136 OFFCURVE",
"561 148 CURVE SMOOTH",
"561 201 OFFCURVE",
"607 220 OFFCURVE",
"653 220 CURVE SMOOTH",
"686 220 OFFCURVE",
"750 205 OFFCURVE",
"775 184 CURVE SMOOTH",
"786 175 OFFCURVE",
"799 136 OFFCURVE",
"823 136 CURVE SMOOTH",
"831 136 OFFCURVE",
"834 140 OFFCURVE",
"834 148 CURVE SMOOTH",
"834 161 OFFCURVE",
"825 179 OFFCURVE",
"819 190 CURVE SMOOTH",
"782 258 OFFCURVE",
"687 301 OFFCURVE",
"612 301 CURVE SMOOTH",
"548 301 OFFCURVE",
"497 276 OFFCURVE",
"497 205 CURVE SMOOTH",
"497 129 OFFCURVE",
"544 39 OFFCURVE",
"618 11 CURVE SMOOTH",
"639 3 OFFCURVE",
"663 1 OFFCURVE",
"686 1 CURVE SMOOTH",
"789 1 OFFCURVE",
"840 87 OFFCURVE",
"840 182 CURVE SMOOTH",
"840 327 OFFCURVE",
"730 500 OFFCURVE",
"571 500 CURVE SMOOTH",
"202 500 OFFCURVE",
"456 80 OFFCURVE",
"182 80 CURVE SMOOTH",
"158 80 OFFCURVE",
"145 82 OFFCURVE",
"126 98 CURVE SMOOTH",
"96 123 OFFCURVE",
"81 200 OFFCURVE",
"81 238 CURVE SMOOTH",
"81 339 OFFCURVE",
"127 413 OFFCURVE",
"236 413 CURVE SMOOTH",
"250 413 OFFCURVE",
"263 410 OFFCURVE",
"277 410 CURVE SMOOTH",
"285 410 OFFCURVE",
"288 414 OFFCURVE",
"288 422 CURVE SMOOTH",
"288 433 OFFCURVE",
"281 447 OFFCURVE",
"275 456 CURVE SMOOTH",
"253 490 OFFCURVE",
"234 494 OFFCURVE",
"195 494 CURVE SMOOTH"
);
}
);
width = 857;
}
);
leftKerningGroup = general;
rightKerningGroup = general;
unicode = 0053;
},
{
glyphname = T;
layers = (
{
layerId = "AD4F0B22-3094-4AE6-A818-B3E1049B6D0D";
paths = (
{
closed = 1;
nodes = (
"17 264 OFFCURVE",
"32 217 OFFCURVE",
"54 180 CURVE SMOOTH",
"125 59 OFFCURVE",
"248 2 OFFCURVE",
"386 2 CURVE SMOOTH",
"514 2 OFFCURVE",
"664 57 OFFCURVE",
"729 174 CURVE SMOOTH",
"744 200 OFFCURVE",
"755 234 OFFCURVE",
"755 264 CURVE SMOOTH",
"755 285 OFFCURVE",
"752 305 OFFCURVE",
"746 325 CURVE SMOOTH",
"717 413 OFFCURVE",
"621 498 OFFCURVE",
"526 498 CURVE SMOOTH",
"504 498 OFFCURVE",
"483 495 OFFCURVE",
"462 488 CURVE SMOOTH",
"396 466 OFFCURVE",
"341 403 OFFCURVE",
"341 331 CURVE SMOOTH",
"341 265 OFFCURVE",
"383 196 OFFCURVE",
"434 157 CURVE SMOOTH",
"465 134 OFFCURVE",
"510 115 OFFCURVE",
"546 103 CURVE SMOOTH",
"575 93 OFFCURVE",
"606 83 OFFCURVE",
"637 83 CURVE SMOOTH",
"646 83 OFFCURVE",
"651 86 OFFCURVE",
"651 96 CURVE SMOOTH",
"651 119 OFFCURVE",
"624 154 OFFCURVE",
"603 163 CURVE SMOOTH",
"599 165 OFFCURVE",
"593 164 OFFCURVE",
"589 164 CURVE SMOOTH",
"552 164 OFFCURVE",
"434 203 OFFCURVE",
"413 234 CURVE SMOOTH",
"406 245 OFFCURVE",
"404 261 OFFCURVE",
"404 274 CURVE SMOOTH",
"404 292 OFFCURVE",
"409 309 OFFCURVE",
"417 325 CURVE SMOOTH",
"445 381 OFFCURVE",
"505 417 OFFCURVE",
"567 417 CURVE SMOOTH",
"597 417 OFFCURVE",
"629 407 OFFCURVE",
"654 390 CURVE SMOOTH",
"662 385 OFFCURVE",
"676 376 OFFCURVE",
"681 368 CURVE SMOOTH",
"690 354 OFFCURVE",
"691 337 OFFCURVE",
"691 321 CURVE SMOOTH",
"691 293 OFFCURVE",
"678 259 OFFCURVE",
"663 236 CURVE SMOOTH",
"598 134 OFFCURVE",
"463 83 OFFCURVE",
"345 83 CURVE SMOOTH",
"242 83 OFFCURVE",
"81 122 OFFCURVE",
"81 251 CURVE SMOOTH",
"81 299 OFFCURVE",
"97 346 OFFCURVE",
"123 386 CURVE SMOOTH",
"131 399 OFFCURVE",
"142 411 OFFCURVE",
"150 424 CURVE SMOOTH",
"151 426 OFFCURVE",
"152 430 OFFCURVE",
"152 433 CURVE SMOOTH",
"152 453 OFFCURVE",
"120 501 OFFCURVE",
"99 501 CURVE SMOOTH",
"89 501 OFFCURVE",
"81 486 OFFCURVE",
"76 479 CURVE SMOOTH",
"40 425 OFFCURVE",
"17 374 OFFCURVE",
"17 308 CURVE SMOOTH"
);
}
);
width = 772;
}
);
leftKerningGroup = general;
rightKerningGroup = general;
unicode = 0054;
},
{
glyphname = U;
layers = (
{
layerId = "AD4F0B22-3094-4AE6-A818-B3E1049B6D0D";
paths = (
{
closed = 1;
nodes = (
"-136 -8 OFFCURVE",
"-134 -20 OFFCURVE",
"-134 -33 CURVE SMOOTH",
"-134 -63 OFFCURVE",
"-145 -114 OFFCURVE",
"-184 -114 CURVE SMOOTH",
"-187 -114 OFFCURVE",
"-190 -114 OFFCURVE",
"-193 -113 CURVE",
"-193 -112 LINE",
"-193 -77 OFFCURVE",
"-143 -32 OFFCURVE",
"-108 -32 CURVE SMOOTH",
"-60 -32 OFFCURVE",
"-46 -86 OFFCURVE",
"-46 -125 CURVE SMOOTH",
"-46 -177 OFFCURVE",
"-85 -214 OFFCURVE",
"-137 -214 CURVE SMOOTH",
"-166 -214 OFFCURVE",
"-181 -205 OFFCURVE",
"-202 -187 CURVE",
"-202 -187 LINE",
"-205 -178 OFFCURVE",
"-210 -164 OFFCURVE",
"-210 -155 CURVE SMOOTH",
"-210 -124 OFFCURVE",
"-198 -94 OFFCURVE",
"-177 -71 CURVE SMOOTH",
"-170 -63 OFFCURVE",
"-160 -57 OFFCURVE",
"-154 -49 CURVE SMOOTH",
"-152 -47 OFFCURVE",
"-152 -43 OFFCURVE",
"-152 -40 CURVE SMOOTH",
"-152 -20 OFFCURVE",
"-184 28 OFFCURVE",
"-205 28 CURVE SMOOTH",
"-214 28 OFFCURVE",
"-222 19 OFFCURVE",
"-227 13 CURVE SMOOTH",
"-258 -20 OFFCURVE",
"-273 -52 OFFCURVE",
"-273 -98 CURVE SMOOTH",
"-273 -183 OFFCURVE",
"-185 -295 OFFCURVE",
"-96 -295 CURVE SMOOTH",
"-28 -295 OFFCURVE",
"18 -249 OFFCURVE",
"18 -181 CURVE SMOOTH",
"18 -104 OFFCURVE",
"-29 -15 OFFCURVE",
"-93 28 CURVE SMOOTH",
"-109 39 OFFCURVE",
"-129 49 OFFCURVE",
"-149 49 CURVE SMOOTH",
"-158 49 OFFCURVE",
"-167 48 OFFCURVE",
"-176 45 CURVE SMOOTH",
"-214 34 OFFCURVE",
"-257 -14 OFFCURVE",
"-257 -55 CURVE SMOOTH",
"-257 -68 OFFCURVE",
"-255 -80 OFFCURVE",
"-251 -92 CURVE SMOOTH",
"-238 -134 OFFCURVE",
"-190 -195 OFFCURVE",
"-142 -195 CURVE SMOOTH",
"-86 -195 OFFCURVE",
"-71 -135 OFFCURVE",
"-71 -89 CURVE SMOOTH",
"-71 -50 OFFCURVE",
"-72 -25 OFFCURVE",
"-102 4 CURVE SMOOTH",
"-107 8 OFFCURVE",
"-118 17 OFFCURVE",
"-125 17 CURVE SMOOTH",
"-133 17 OFFCURVE",
"-136 13 OFFCURVE",
"-136 5 CURVE SMOOTH"
);
}
);
width = -15;
}
);
leftKerningGroup = u;
rightKerningGroup = u;
unicode = 0055;
},
{
glyphname = W;
layers = (
{
layerId = "AD4F0B22-3094-4AE6-A818-B3E1049B6D0D";
paths = (
{
closed = 1;
nodes = (
"82 271 OFFCURVE",
"81 274 OFFCURVE",
"81 279 CURVE SMOOTH",
"81 333 OFFCURVE",
"109 416 OFFCURVE",
"174 416 CURVE SMOOTH",
"189 416 OFFCURVE",
"200 412 OFFCURVE",
"214 407 CURVE",
"193 322 OFFCURVE",
"98 267 OFFCURVE",
"98 175 CURVE SMOOTH",
"98 88 OFFCURVE",
"185 1 OFFCURVE",
"272 1 CURVE SMOOTH",
"301 1 OFFCURVE",
"326 7 OFFCURVE",
"352 20 CURVE SMOOTH",
"427 57 OFFCURVE",
"440 117 OFFCURVE",
"440 194 CURVE SMOOTH",
"440 213 OFFCURVE",
"438 310 OFFCURVE",
"434 322 CURVE SMOOTH",
"429 338 OFFCURVE",
"418 354 OFFCURVE",
"406 366 CURVE SMOOTH",
"401 370 OFFCURVE",
"390 379 OFFCURVE",
"383 379 CURVE SMOOTH",
"375 379 OFFCURVE",
"372 375 OFFCURVE",
"372 367 CURVE SMOOTH",
"372 252 OFFCURVE",
"371 101 OFFCURVE",
"478 29 CURVE SMOOTH",
"500 14 OFFCURVE",
"528 2 OFFCURVE",
"555 2 CURVE SMOOTH",
"678 2 OFFCURVE",
"767 157 OFFCURVE",
"767 267 CURVE SMOOTH",
"767 296 OFFCURVE",
"764 324 OFFCURVE",
"755 351 CURVE SMOOTH",
"738 402 OFFCURVE",
"679 498 OFFCURVE",
"618 498 CURVE SMOOTH",
"552 498 OFFCURVE",
"516 419 OFFCURVE",
"516 362 CURVE SMOOTH",
"516 280 OFFCURVE",
"600 210 OFFCURVE",
"679 210 CURVE SMOOTH",
"710 210 OFFCURVE",
"737 216 OFFCURVE",
"757 242 CURVE SMOOTH",
"761 247 OFFCURVE",
"765 254 OFFCURVE",
"765 261 CURVE SMOOTH",
"765 281 OFFCURVE",
"733 329 OFFCURVE",
"712 329 CURVE SMOOTH",
"695 329 OFFCURVE",
"698 291 OFFCURVE",
"638 291 CURVE SMOOTH",
"619 291 OFFCURVE",
"597 296 OFFCURVE",
"580 305 CURVE",
"580 306 LINE",
"580 348 OFFCURVE",
"611 417 OFFCURVE",
"660 417 CURVE SMOOTH",
"700 417 OFFCURVE",
"703 351 OFFCURVE",
"703 323 CURVE SMOOTH",
"703 228 OFFCURVE",
"620 83 OFFCURVE",
"514 83 CURVE SMOOTH",
"500 83 OFFCURVE",
"468 90 OFFCURVE",
"459 101 CURVE SMOOTH",
"458 103 OFFCURVE",
"454 111 OFFCURVE",
"453 114 CURVE SMOOTH",
"435 170 OFFCURVE",
"437 247 OFFCURVE",
"436 306 CURVE",
"418 328 OFFCURVE",
"396 347 OFFCURVE",
"372 362 CURVE",
"373 325 OFFCURVE",
"376 288 OFFCURVE",
"376 251 CURVE SMOOTH",
"376 177 OFFCURVE",
"364 131 OFFCURVE",
"293 97 CURVE SMOOTH",
"274 88 OFFCURVE",
"252 82 OFFCURVE",
"231 82 CURVE SMOOTH",
"210 82 OFFCURVE",
"180 89 OFFCURVE",
"164 103 CURVE",
"163 108 OFFCURVE",
"162 114 OFFCURVE",
"162 119 CURVE SMOOTH",
"162 198 OFFCURVE",
"279 275 OFFCURVE",
"279 362 CURVE SMOOTH",
"279 432 OFFCURVE",
"198 497 OFFCURVE",
"130 497 CURVE SMOOTH",
"49 497 OFFCURVE",
"17 403 OFFCURVE",
"17 336 CURVE SMOOTH",
"17 325 OFFCURVE",
"19 314 OFFCURVE",
"23 304 CURVE SMOOTH",
"29 289 OFFCURVE",
"54 254 OFFCURVE",
"71 254 CURVE SMOOTH",
"79 254 OFFCURVE",
"82 258 OFFCURVE",
"82 266 CURVE SMOOTH"
);
}
);
width = 784;
}
);
leftKerningGroup = general;
rightKerningGroup = general;
unicode = 0057;
},
{
glyphname = Y;
layers = (
{
layerId = "AD4F0B22-3094-4AE6-A818-B3E1049B6D0D";
paths = (
{
closed = 1;
nodes = (
"81 408 OFFCURVE",
"98 419 OFFCURVE",
"121 419 CURVE SMOOTH",
"129 419 OFFCURVE",
"137 418 OFFCURVE",
"145 416 CURVE",
"145 410 OFFCURVE",
"146 405 OFFCURVE",
"146 399 CURVE SMOOTH",
"146 383 OFFCURVE",
"144 366 OFFCURVE",
"144 350 CURVE SMOOTH",
"144 330 OFFCURVE",
"176 282 OFFCURVE",
"197 282 CURVE SMOOTH",
"226 282 OFFCURVE",
"251 419 OFFCURVE",
"321 419 CURVE SMOOTH",
"362 419 OFFCURVE",
"369 382 OFFCURVE",
"369 349 CURVE SMOOTH",
"369 307 OFFCURVE",
"362 261 OFFCURVE",
"333 228 CURVE SMOOTH",
"257 140 OFFCURVE",
"18 154 OFFCURVE",
"18 68 CURVE SMOOTH",
"18 48 OFFCURVE",
"50 0 OFFCURVE",
"71 0 CURVE SMOOTH",
"83 0 OFFCURVE",
"79 5 OFFCURVE",
"82 13 CURVE SMOOTH",
"103 73 OFFCURVE",
"323 61 OFFCURVE",
"399 163 CURVE SMOOTH",
"425 198 OFFCURVE",
"433 250 OFFCURVE",
"433 293 CURVE SMOOTH",
"433 323 OFFCURVE",
"426 352 OFFCURVE",
"414 379 CURVE SMOOTH",
"392 430 OFFCURVE",
"339 500 OFFCURVE",
"278 500 CURVE SMOOTH",
"235 500 OFFCURVE",
"207 465 OFFCURVE",
"188 431 CURVE",
"168 471 OFFCURVE",
"125 500 OFFCURVE",
"80 500 CURVE SMOOTH",
"40 500 OFFCURVE",
"17 480 OFFCURVE",
"17 439 CURVE SMOOTH",
"17 396 OFFCURVE",
"48 317 OFFCURVE",
"82 290 CURVE SMOOTH",
"86 287 OFFCURVE",
"95 281 OFFCURVE",
"101 281 CURVE SMOOTH",
"109 281 OFFCURVE",
"112 285 OFFCURVE",
"112 293 CURVE SMOOTH",
"112 318 OFFCURVE",
"81 343 OFFCURVE",
"81 383 CURVE SMOOTH"
);
}
);
width = 450;
}
);
leftKerningGroup = general;
rightKerningGroup = general;
unicode = 0059;
},
{
glyphname = Z;
layers = (
{
layerId = "AD4F0B22-3094-4AE6-A818-B3E1049B6D0D";
paths = (
{
closed = 1;
nodes = (
"191 257 OFFCURVE",
"201 256 OFFCURVE",
"211 252 CURVE",
"211 250 LINE",
"211 218 OFFCURVE",
"180 194 OFFCURVE",
"150 194 CURVE SMOOTH",
"132 194 OFFCURVE",
"107 199 OFFCURVE",
"94 213 CURVE SMOOTH",
"87 221 OFFCURVE",
"83 253 OFFCURVE",
"83 264 CURVE SMOOTH",
"83 344 OFFCURVE",
"158 416 OFFCURVE",
"237 416 CURVE SMOOTH",
"281 416 OFFCURVE",
"314 399 OFFCURVE",
"336 361 CURVE SMOOTH",
"341 353 OFFCURVE",
"343 345 OFFCURVE",
"348 337 CURVE SMOOTH",
"354 326 OFFCURVE",
"375 301 OFFCURVE",
"389 301 CURVE SMOOTH",
"393 301 OFFCURVE",
"396 301 OFFCURVE",
"398 304 CURVE SMOOTH",
"401 309 OFFCURVE",
"401 316 OFFCURVE",
"404 321 CURVE SMOOTH",
"414 341 OFFCURVE",
"436 359 OFFCURVE",
"454 372 CURVE SMOOTH",
"496 401 OFFCURVE",
"555 422 OFFCURVE",
"606 422 CURVE SMOOTH",
"633 422 OFFCURVE",
"683 415 OFFCURVE",
"700 391 CURVE",
"700 390 LINE",
"701 385 OFFCURVE",
"702 380 OFFCURVE",
"702 375 CURVE SMOOTH",
"702 287 OFFCURVE",
"566 148 OFFCURVE",
"481 169 CURVE SMOOTH",
"477 170 LINE",
"487 208 OFFCURVE",
"534 243 OFFCURVE",
"573 243 CURVE SMOOTH",
"583 243 OFFCURVE",
"592 242 OFFCURVE",
"601 237 CURVE",
"603 229 OFFCURVE",
"603 222 OFFCURVE",
"603 214 CURVE SMOOTH",
"603 180 OFFCURVE",
"599 147 OFFCURVE",
"599 113 CURVE SMOOTH",
"599 73 OFFCURVE",
"601 40 OFFCURVE",
"632 11 CURVE SMOOTH",
"637 7 OFFCURVE",
"648 -2 OFFCURVE",
"655 -2 CURVE SMOOTH",
"663 -2 OFFCURVE",
"666 2 OFFCURVE",
"666 10 CURVE SMOOTH",
"666 26 OFFCURVE",
"663 41 OFFCURVE",
"663 57 CURVE SMOOTH",
"663 91 OFFCURVE",
"666 123 OFFCURVE",
"666 157 CURVE SMOOTH",
"666 178 OFFCURVE",
"664 201 OFFCURVE",
"656 221 CURVE SMOOTH",
"638 269 OFFCURVE",
"586 324 OFFCURVE",
"531 324 CURVE SMOOTH",
"476 324 OFFCURVE",
"412 273 OFFCURVE",
"412 215 CURVE SMOOTH",
"412 158 OFFCURVE",
"464 88 OFFCURVE",
"525 88 CURVE SMOOTH",
"606 88 OFFCURVE",
"704 167 OFFCURVE",
"743 235 CURVE SMOOTH",
"758 261 OFFCURVE",
"766 289 OFFCURVE",
"766 319 CURVE SMOOTH",
"766 345 OFFCURVE",
"756 371 OFFCURVE",
"744 393 CURVE SMOOTH",
"706 460 OFFCURVE",
"644 503 OFFCURVE",
"566 503 CURVE SMOOTH",
"492 503 OFFCURVE",
"396 467 OFFCURVE",
"352 406 CURVE",
"316 456 OFFCURVE",
"258 497 OFFCURVE",
"194 497 CURVE SMOOTH",
"99 497 OFFCURVE",
"19 416 OFFCURVE",
"19 321 CURVE SMOOTH",
"19 229 OFFCURVE",
"94 113 OFFCURVE",
"194 113 CURVE SMOOTH",
"240 113 OFFCURVE",
"275 148 OFFCURVE",
"275 194 CURVE SMOOTH",
"275 243 OFFCURVE",
"234 301 OFFCURVE",
"192 324 CURVE SMOOTH",
"175 333 OFFCURVE",
"156 338 OFFCURVE",
"136 338 CURVE SMOOTH",
"127 338 OFFCURVE",
"119 337 OFFCURVE",
"110 335 CURVE SMOOTH",
"96 332 OFFCURVE",
"44 313 OFFCURVE",
"37 302 CURVE SMOOTH",
"36 300 OFFCURVE",
"35 296 OFFCURVE",
"35 293 CURVE SMOOTH",
"35 273 OFFCURVE",
"67 225 OFFCURVE",
"88 225 CURVE SMOOTH",
"98 225 OFFCURVE",
"143 257 OFFCURVE",
"180 257 CURVE SMOOTH"
);
}
);
width = 783;
}
);
leftKerningGroup = general;
rightKerningGroup = general;
unicode = 005A;
},
{
glyphname = a;
layers = (
{
layerId = "AD4F0B22-3094-4AE6-A818-B3E1049B6D0D";
paths = (
{
closed = 1;
nodes = (
"147 299 OFFCURVE",
"145 181 OFFCURVE",
"145 63 CURVE SMOOTH",
"145 43 OFFCURVE",
"177 -5 OFFCURVE",
"198 -5 CURVE SMOOTH",
"202 -5 OFFCURVE",
"205 -5 OFFCURVE",
"207 -2 CURVE SMOOTH",
"210 3 OFFCURVE",
"209 63 OFFCURVE",
"209 74 CURVE SMOOTH",
"209 174 OFFCURVE",
"210 276 OFFCURVE",
"210 376 CURVE SMOOTH",
"210 386 OFFCURVE",
"210 395 OFFCURVE",
"208 405 CURVE SMOOTH",
"200 448 OFFCURVE",
"154 499 OFFCURVE",
"108 499 CURVE SMOOTH",
"60 499 OFFCURVE",
"17 464 OFFCURVE",
"17 414 CURVE SMOOTH",
"17 394 OFFCURVE",
"49 346 OFFCURVE",
"70 346 CURVE SMOOTH",
"74 346 OFFCURVE",
"77 346 OFFCURVE",
"79 349 CURVE SMOOTH",
"82 354 OFFCURVE",
"81 366 OFFCURVE",
"83 372 CURVE SMOOTH",
"89 396 OFFCURVE",
"122 417 OFFCURVE",
"146 417 CURVE"
);
}
);
width = 227;
}
);
leftKerningGroup = general;
rightKerningGroup = general;
unicode = 0061;
},
{
glyphname = b;
layers = (
{
layerId = "AD4F0B22-3094-4AE6-A818-B3E1049B6D0D";
paths = (
{
closed = 1;
nodes = (
"147 147 OFFCURVE",
"172 144 OFFCURVE",
"195 137 CURVE",
"187 114 OFFCURVE",
"157 89 OFFCURVE",
"132 89 CURVE SMOOTH",
"86 89 OFFCURVE",
"80 189 OFFCURVE",
"80 222 CURVE SMOOTH",
"80 300 OFFCURVE",
"119 415 OFFCURVE",
"213 415 CURVE SMOOTH",
"235 415 OFFCURVE",
"255 411 OFFCURVE",
"275 400 CURVE",
"274 400 LINE",
"291 349 OFFCURVE",
"289 294 OFFCURVE",
"294 241 CURVE SMOOTH",
"296 224 OFFCURVE",
"296 207 OFFCURVE",
"301 190 CURVE SMOOTH",
"306 173 OFFCURVE",
"333 133 OFFCURVE",
"352 133 CURVE SMOOTH",
"360 133 OFFCURVE",
"363 137 OFFCURVE",
"363 145 CURVE SMOOTH",
"363 160 OFFCURVE",
"361 174 OFFCURVE",
"360 189 CURVE SMOOTH",
"358 217 OFFCURVE",
"357 245 OFFCURVE",
"357 273 CURVE SMOOTH",
"357 353 OFFCURVE",
"377 417 OFFCURVE",
"470 417 CURVE SMOOTH",
"481 417 OFFCURVE",
"491 417 OFFCURVE",
"502 414 CURVE SMOOTH",
"525 408 OFFCURVE",
"546 401 OFFCURVE",
"555 377 CURVE SMOOTH",
"564 355 OFFCURVE",
"564 330 OFFCURVE",
"564 307 CURVE SMOOTH",
"564 246 OFFCURVE",
"534 167 OFFCURVE",
"493 122 CURVE SMOOTH",
"481 109 OFFCURVE",
"467 96 OFFCURVE",
"452 86 CURVE SMOOTH",
"449 84 OFFCURVE",
"446 83 OFFCURVE",
"444 80 CURVE SMOOTH",
"442 78 OFFCURVE",
"442 74 OFFCURVE",
"442 71 CURVE SMOOTH",
"442 60 OFFCURVE",
"449 46 OFFCURVE",
"455 37 CURVE SMOOTH",
"463 24 OFFCURVE",
"476 10 OFFCURVE",
"490 4 CURVE SMOOTH",
"497 1 OFFCURVE",
"602 1 OFFCURVE",
"621 1 CURVE SMOOTH",
"681 1 OFFCURVE",
"759 2 OFFCURVE",
"801 53 CURVE SMOOTH",
"843 105 OFFCURVE",
"844 216 OFFCURVE",
"844 281 CURVE SMOOTH",
"844 339 OFFCURVE",
"834 386 OFFCURVE",
"807 438 CURVE SMOOTH",
"799 453 OFFCURVE",
"791 468 OFFCURVE",
"780 480 CURVE SMOOTH",
"775 486 OFFCURVE",
"761 498 OFFCURVE",
"752 498 CURVE SMOOTH",
"744 498 OFFCURVE",
"741 494 OFFCURVE",
"741 486 CURVE SMOOTH",
"741 468 OFFCURVE",
"760 443 OFFCURVE",
"767 426 CURVE SMOOTH",
"779 398 OFFCURVE",
"780 367 OFFCURVE",
"780 337 CURVE SMOOTH",
"780 280 OFFCURVE",
"780 183 OFFCURVE",
"748 135 CURVE SMOOTH",
"738 120 OFFCURVE",
"725 109 OFFCURVE",
"709 101 CURVE SMOOTH",
"674 83 OFFCURVE",
"616 82 OFFCURVE",
"577 82 CURVE",
"607 132 OFFCURVE",
"628 191 OFFCURVE",
"628 250 CURVE SMOOTH",
"628 281 OFFCURVE",
"625 312 OFFCURVE",
"615 341 CURVE SMOOTH",
"588 423 OFFCURVE",
"520 498 OFFCURVE",
"428 498 CURVE SMOOTH",
"370 498 OFFCURVE",
"325 480 OFFCURVE",
"306 421 CURVE",
"272 469 OFFCURVE",
"231 495 OFFCURVE",
"171 495 CURVE SMOOTH",
"59 495 OFFCURVE",
"17 371 OFFCURVE",
"17 278 CURVE SMOOTH",
"17 189 OFFCURVE",
"44 99 OFFCURVE",
"112 39 CURVE SMOOTH",
"129 24 OFFCURVE",
"151 8 OFFCURVE",
"175 8 CURVE SMOOTH",
"220 8 OFFCURVE",
"261 51 OFFCURVE",
"261 96 CURVE SMOOTH",
"261 116 OFFCURVE",
"252 136 OFFCURVE",
"242 152 CURVE SMOOTH",
"206 210 OFFCURVE",
"147 228 OFFCURVE",
"81 228 CURVE SMOOTH",
"73 228 OFFCURVE",
"34 221 OFFCURVE",
"29 217 CURVE SMOOTH",
"26 214 OFFCURVE",
"25 210 OFFCURVE",
"25 206 CURVE SMOOTH",
"25 186 OFFCURVE",
"57 138 OFFCURVE",
"78 138 CURVE SMOOTH",
"94 138 OFFCURVE",
"107 147 OFFCURVE",
"123 147 CURVE SMOOTH"
);
}
);
width = 861;
}
);
leftKerningGroup = general;
rightKerningGroup = general;
unicode = 0062;
},
{
glyphname = c;
layers = (
{
layerId = "AD4F0B22-3094-4AE6-A818-B3E1049B6D0D";
paths = (
{
closed = 1;
nodes = (
"311 416 OFFCURVE",
"337 413 OFFCURVE",
"360 402 CURVE SMOOTH",
"392 386 OFFCURVE",
"395 374 OFFCURVE",
"395 339 CURVE SMOOTH",
"395 217 OFFCURVE",
"253 146 OFFCURVE",
"154 112 CURVE SMOOTH",
"118 100 OFFCURVE",
"80 91 OFFCURVE",
"43 87 CURVE SMOOTH",
"38 86 OFFCURVE",
"25 86 OFFCURVE",
"21 84 CURVE SMOOTH",
"18 82 OFFCURVE",
"17 76 OFFCURVE",
"17 73 CURVE SMOOTH",
"17 50 OFFCURVE",
"44 15 OFFCURVE",
"65 6 CURVE SMOOTH",
"79 0 OFFCURVE",
"359 0 OFFCURVE",
"400 0 CURVE SMOOTH",
"463 0 OFFCURVE",
"526 1 OFFCURVE",
"589 2 CURVE SMOOTH",
"618 3 OFFCURVE",
"649 -1 OFFCURVE",
"678 5 CURVE SMOOTH",
"688 7 OFFCURVE",
"698 11 OFFCURVE",
"706 17 CURVE SMOOTH",
"743 45 OFFCURVE",
"753 114 OFFCURVE",
"753 158 CURVE SMOOTH",
"753 261 OFFCURVE",
"721 386 OFFCURVE",
"642 457 CURVE SMOOTH",
"631 467 OFFCURVE",
"602 486 OFFCURVE",
"587 486 CURVE SMOOTH",
"579 486 OFFCURVE",
"576 482 OFFCURVE",
"576 474 CURVE SMOOTH",
"576 453 OFFCURVE",
"601 419 OFFCURVE",
"619 409 CURVE SMOOTH",
"627 405 OFFCURVE",
"640 404 OFFCURVE",
"646 396 CURVE SMOOTH",
"678 356 OFFCURVE",
"689 266 OFFCURVE",
"689 215 CURVE SMOOTH",
"689 179 OFFCURVE",
"682 118 OFFCURVE",
"651 95 CURVE SMOOTH",
"644 90 OFFCURVE",
"637 88 OFFCURVE",
"629 86 CURVE SMOOTH",
"601 80 OFFCURVE",
"571 84 OFFCURVE",
"543 83 CURVE SMOOTH",
"482 82 OFFCURVE",
"420 81 OFFCURVE",
"359 81 CURVE",
"317 81 LINE",
"392 125 OFFCURVE",
"458 190 OFFCURVE",
"458 283 CURVE SMOOTH",
"458 400 OFFCURVE",
"360 497 OFFCURVE",
"243 497 CURVE SMOOTH",
"159 497 OFFCURVE",
"79 438 OFFCURVE",
"79 349 CURVE SMOOTH",
"79 329 OFFCURVE",
"111 281 OFFCURVE",
"132 281 CURVE SMOOTH",
"135 281 OFFCURVE",
"139 281 OFFCURVE",
"141 284 CURVE SMOOTH",
"144 289 OFFCURVE",
"143 298 OFFCURVE",
"144 304 CURVE SMOOTH",
"147 322 OFFCURVE",
"154 340 OFFCURVE",
"164 355 CURVE SMOOTH",
"190 394 OFFCURVE",
"240 416 OFFCURVE",
"286 416 CURVE SMOOTH"
);
}
);
width = 770;
}
);
leftKerningGroup = general;
rightKerningGroup = general;
unicode = 0063;
},
{
glyphname = d;
layers = (
{
layerId = "AD4F0B22-3094-4AE6-A818-B3E1049B6D0D";
paths = (
{
closed = 1;
nodes = (
"337 418 OFFCURVE",
"355 415 OFFCURVE",
"373 408 CURVE",
"367 376 OFFCURVE",
"326 325 OFFCURVE",
"305 300 CURVE SMOOTH",
"297 290 OFFCURVE",
"286 281 OFFCURVE",
"280 269 CURVE SMOOTH",
"278 266 OFFCURVE",
"278 262 OFFCURVE",
"278 259 CURVE SMOOTH",
"278 235 OFFCURVE",
"311 189 OFFCURVE",
"336 189 CURVE SMOOTH",
"362 189 OFFCURVE",
"384 202 OFFCURVE",
"410 203 CURVE",
"400 129 OFFCURVE",
"350 79 OFFCURVE",
"274 79 CURVE SMOOTH",
"210 79 OFFCURVE",
"135 103 OFFCURVE",
"89 149 CURVE SMOOTH",
"79 159 OFFCURVE",
"79 175 OFFCURVE",
"73 188 CURVE SMOOTH",
"67 201 OFFCURVE",
"43 231 OFFCURVE",
"28 231 CURVE SMOOTH",
"20 231 OFFCURVE",
"17 227 OFFCURVE",
"17 219 CURVE SMOOTH",
"17 198 OFFCURVE",
"33 166 OFFCURVE",
"44 148 CURVE SMOOTH",
"102 58 OFFCURVE",
"210 -2 OFFCURVE",
"317 -2 CURVE SMOOTH",
"418 -2 OFFCURVE",
"476 73 OFFCURVE",
"476 170 CURVE SMOOTH",
"476 213 OFFCURVE",
"444 261 OFFCURVE",
"405 279 CURVE",
"422 302 OFFCURVE",
"439 336 OFFCURVE",
"439 365 CURVE SMOOTH",
"439 384 OFFCURVE",
"431 402 OFFCURVE",
"422 418 CURVE SMOOTH",
"392 469 OFFCURVE",
"336 499 OFFCURVE",
"277 499 CURVE SMOOTH",
"212 499 OFFCURVE",
"157 469 OFFCURVE",
"157 397 CURVE SMOOTH",
"157 377 OFFCURVE",
"189 329 OFFCURVE",
"210 329 CURVE SMOOTH",
"214 329 OFFCURVE",
"217 329 OFFCURVE",
"219 332 CURVE SMOOTH",
"223 338 OFFCURVE",
"219 361 OFFCURVE",
"233 382 CURVE SMOOTH",
"250 408 OFFCURVE",
"289 418 OFFCURVE",
"318 418 CURVE SMOOTH"
);
}
);
width = 493;
}
);
leftKerningGroup = general;
rightKerningGroup = general;
unicode = 0064;
},
{
glyphname = e;
layers = (
{
layerId = "AD4F0B22-3094-4AE6-A818-B3E1049B6D0D";
paths = (
{
closed = 1;
nodes = (
"111 333 OFFCURVE",
"95 335 OFFCURVE",
"81 341 CURVE",
"84 387 OFFCURVE",
"147 417 OFFCURVE",
"188 417 CURVE SMOOTH",
"212 417 OFFCURVE",
"243 411 OFFCURVE",
"254 387 CURVE SMOOTH",
"265 363 OFFCURVE",
"268 317 OFFCURVE",
"268 291 CURVE SMOOTH",
"268 186 OFFCURVE",
"159 99 OFFCURVE",
"159 77 CURVE SMOOTH",
"159 57 OFFCURVE",
"191 9 OFFCURVE",
"212 9 CURVE SMOOTH",
"223 9 OFFCURVE",
"234 29 OFFCURVE",
"241 38 CURVE SMOOTH",
"289 99 OFFCURVE",
"332 152 OFFCURVE",
"332 234 CURVE SMOOTH",
"332 271 OFFCURVE",
"329 308 OFFCURVE",
"318 343 CURVE SMOOTH",
"295 418 OFFCURVE",
"231 498 OFFCURVE",
"146 498 CURVE SMOOTH",
"83 498 OFFCURVE",
"17 458 OFFCURVE",
"17 389 CURVE SMOOTH",
"17 373 OFFCURVE",
"23 358 OFFCURVE",
"30 343 CURVE SMOOTH",
"56 289 OFFCURVE",
"108 252 OFFCURVE",
"169 252 CURVE SMOOTH",
"186 252 OFFCURVE",
"242 261 OFFCURVE",
"242 284 CURVE SMOOTH",
"242 304 OFFCURVE",
"210 352 OFFCURVE",
"189 352 CURVE SMOOTH",
"182 352 OFFCURVE",
"154 333 OFFCURVE",
"126 333 CURVE SMOOTH"
);
}
);
width = 349;
}
);
leftKerningGroup = general;
rightKerningGroup = general;
unicode = 0065;
},
{
glyphname = f;
layers = (
{
layerId = "AD4F0B22-3094-4AE6-A818-B3E1049B6D0D";
paths = (
{
closed = 1;
nodes = (
"-405 601 OFFCURVE",
"-407 582 OFFCURVE",
"-407 565 CURVE SMOOTH",
"-407 545 OFFCURVE",
"-375 497 OFFCURVE",
"-354 497 CURVE SMOOTH",
"-350 497 OFFCURVE",
"-348 496 OFFCURVE",
"-345 500 CURVE SMOOTH",
"-340 506 OFFCURVE",
"-341 584 OFFCURVE",
"-341 597 CURVE SMOOTH",
"-341 630 OFFCURVE",
"-347 652 OFFCURVE",
"-372 676 CURVE SMOOTH",
"-377 681 OFFCURVE",
"-387 689 OFFCURVE",
"-394 689 CURVE SMOOTH",
"-398 689 OFFCURVE",
"-400 689 OFFCURVE",
"-403 685 CURVE SMOOTH",
"-406 680 OFFCURVE",
"-405 628 OFFCURVE",
"-405 618 CURVE SMOOTH"
);
}
);
width = 1;
}
);
unicode = 0066;
},
{
glyphname = g;
layers = (
{
layerId = "AD4F0B22-3094-4AE6-A818-B3E1049B6D0D";
paths = (
{
closed = 1;
nodes = (
"705 2 OFFCURVE",
"766 79 OFFCURVE",
"766 186 CURVE SMOOTH",
"766 286 OFFCURVE",
"724 400 OFFCURVE",
"645 464 CURVE SMOOTH",
"623 482 OFFCURVE",
"595 497 OFFCURVE",
"566 497 CURVE SMOOTH",
"540 497 OFFCURVE",
"512 496 OFFCURVE",
"488 488 CURVE SMOOTH",
"281 420 OFFCURVE",
"436 75 OFFCURVE",
"194 75 CURVE SMOOTH",
"109 75 OFFCURVE",
"93 139 OFFCURVE",
"93 211 CURVE SMOOTH",
"93 313 OFFCURVE",
"152 411 OFFCURVE",
"263 411 CURVE SMOOTH",
"276 411 OFFCURVE",
"288 408 OFFCURVE",
"301 408 CURVE SMOOTH",
"309 408 OFFCURVE",
"312 412 OFFCURVE",
"312 420 CURVE SMOOTH",
"312 430 OFFCURVE",
"307 441 OFFCURVE",
"302 450 CURVE SMOOTH",
"282 486 OFFCURVE",
"262 492 OFFCURVE",
"222 492 CURVE SMOOTH",
"94 492 OFFCURVE",
"29 386 OFFCURVE",
"29 268 CURVE SMOOTH",
"29 237 OFFCURVE",
"33 206 OFFCURVE",
"42 176 CURVE SMOOTH",
"67 91 OFFCURVE",
"139 -5 OFFCURVE",
"236 -5 CURVE SMOOTH",
"495 -5 OFFCURVE",
"352 317 OFFCURVE",
"521 401 CURVE SMOOTH",
"547 414 OFFCURVE",
"580 417 OFFCURVE",
"608 417 CURVE SMOOTH",
"684 417 OFFCURVE",
"703 300 OFFCURVE",
"703 243 CURVE SMOOTH",
"703 151 OFFCURVE",
"647 83 OFFCURVE",
"552 83 CURVE SMOOTH",
"539 83 OFFCURVE",
"525 85 OFFCURVE",
"512 85 CURVE SMOOTH",
"504 85 OFFCURVE",
"501 81 OFFCURVE",
"501 73 CURVE SMOOTH",
"501 62 OFFCURVE",
"508 48 OFFCURVE",
"514 39 CURVE SMOOTH",
"538 3 OFFCURVE",
"554 2 OFFCURVE",
"594 2 CURVE SMOOTH"
);
}
);
width = 784;
}
);
leftKerningGroup = general;
rightKerningGroup = general;
unicode = 0067;
},
{
glyphname = Z_A_k;
layers = (
{
guideLines = (
{
angle = 90;
position = "{734, 0}";
}
);
layerId = "AD4F0B22-3094-4AE6-A818-B3E1049B6D0D";
paths = (
{
closed = 1;
nodes = (
"784 505 OFFCURVE",
"632 385 OFFCURVE",
"563 276 CURVE SMOOTH",
"541 241 OFFCURVE",
"522 197 OFFCURVE",
"522 155 CURVE SMOOTH",
"522 137 OFFCURVE",
"525 120 OFFCURVE",
"530 103 CURVE SMOOTH",
"543 64 OFFCURVE",
"587 -1 OFFCURVE",
"633 -1 CURVE SMOOTH",
"691 -1 OFFCURVE",
"747 64 OFFCURVE",
"782 104 CURVE",
"802 69 OFFCURVE",
"858 -2 OFFCURVE",
"902 -2 CURVE SMOOTH",
"913 -2 OFFCURVE",
"923 -1 OFFCURVE",
"933 4 CURVE SMOOTH",
"974 23 OFFCURVE",
"1010 99 OFFCURVE",
"1018 142 CURVE SMOOTH",
"1021 157 OFFCURVE",
"1022 173 OFFCURVE",
"1022 189 CURVE SMOOTH",
"1022 226 OFFCURVE",
"1009 266 OFFCURVE",
"991 299 CURVE SMOOTH",
"920 430 OFFCURVE",
"770 502 OFFCURVE",
"624 502 CURVE SMOOTH",
"534 502 OFFCURVE",
"443 466 OFFCURVE",
"412 374 CURVE",
"372 436 OFFCURVE",
"311 497 OFFCURVE",
"232 497 CURVE SMOOTH",
"131 497 OFFCURVE",
"55 404 OFFCURVE",
"29 314 CURVE SMOOTH",
"20 284 OFFCURVE",
"17 253 OFFCURVE",
"17 222 CURVE SMOOTH",
"17 160 OFFCURVE",
"44 60 OFFCURVE",
"96 22 CURVE SMOOTH",
"117 7 OFFCURVE",
"142 0 OFFCURVE",
"167 0 CURVE SMOOTH",
"234 0 OFFCURVE",
"309 38 OFFCURVE",
"309 114 CURVE SMOOTH",
"309 144 OFFCURVE",
"295 186 OFFCURVE",
"276 210 CURVE SMOOTH",
"241 253 OFFCURVE",
"165 279 OFFCURVE",
"111 279 CURVE SMOOTH",
"95 279 OFFCURVE",
"38 274 OFFCURVE",
"26 265 CURVE SMOOTH",
"23 263 OFFCURVE",
"22 258 OFFCURVE",
"22 254 CURVE SMOOTH",
"22 234 OFFCURVE",
"54 186 OFFCURVE",
"75 186 CURVE SMOOTH",
"84 186 OFFCURVE",
"93 190 OFFCURVE",
"102 192 CURVE SMOOTH",
"118 196 OFFCURVE",
"135 198 OFFCURVE",
"152 198 CURVE SMOOTH",
"181 198 OFFCURVE",
"220 191 OFFCURVE",
"245 176 CURVE",
"245 174 OFFCURVE",
"245 173 OFFCURVE",
"245 171 CURVE",
"245 113 OFFCURVE",
"175 81 OFFCURVE",
"125 81 CURVE SMOOTH",
"115 81 OFFCURVE",
"105 83 OFFCURVE",
"95 85 CURVE",
"87 102 OFFCURVE",
"80 146 OFFCURVE",
"80 165 CURVE SMOOTH",
"80 200 OFFCURVE",
"85 236 OFFCURVE",
"98 269 CURVE SMOOTH",
"125 340 OFFCURVE",
"194 416 OFFCURVE",
"275 416 CURVE SMOOTH",
"332 416 OFFCURVE",
"369 383 OFFCURVE",
"390 332 CURVE SMOOTH",
"403 299 OFFCURVE",
"407 270 OFFCURVE",
"436 246 CURVE SMOOTH",
"440 243 OFFCURVE",
"450 237 OFFCURVE",
"455 237 CURVE SMOOTH",
"458 237 OFFCURVE",
"462 237 OFFCURVE",
"464 240 CURVE SMOOTH",
"467 247 OFFCURVE",
"466 265 OFFCURVE",
"467 274 CURVE SMOOTH",
"470 298 OFFCURVE",
"479 325 OFFCURVE",
"493 345 CURVE SMOOTH",
"530 399 OFFCURVE",
"603 421 OFFCURVE",
"666 421 CURVE SMOOTH",
"699 421 OFFCURVE",
"733 417 OFFCURVE",
"766 410 CURVE SMOOTH",
"825 397 OFFCURVE",
"915 355 OFFCURVE",
"945 300 CURVE SMOOTH",
"953 284 OFFCURVE",
"958 263 OFFCURVE",
"958 245 CURVE SMOOTH",
"958 228 OFFCURVE",
"956 211 OFFCURVE",
"952 194 CURVE SMOOTH",
"942 158 OFFCURVE",
"905 79 OFFCURVE",
"861 79 CURVE SMOOTH",
"833 79 OFFCURVE",
"805 146 OFFCURVE",
"790 167 CURVE SMOOTH",
"783 177 OFFCURVE",
"775 186 OFFCURVE",
"766 193 CURVE SMOOTH",
"762 196 OFFCURVE",
"754 201 OFFCURVE",
"749 201 CURVE",
"747 201 OFFCURVE",
"744 201 OFFCURVE",
"742 200 CURVE SMOOTH",
"731 191 OFFCURVE",
"721 176 OFFCURVE",
"711 165 CURVE SMOOTH",
"686 137 OFFCURVE",
"631 80 OFFCURVE",
"591 80 CURVE",
"590 80 OFFCURVE",
"588 80 OFFCURVE",
"587 80 CURVE",
"586 85 OFFCURVE",
"585 90 OFFCURVE",
"585 95 CURVE SMOOTH",
"585 132 OFFCURVE",
"602 170 OFFCURVE",
"622 201 CURVE SMOOTH",
"687 303 OFFCURVE",
"835 424 OFFCURVE",
"961 424 CURVE SMOOTH",
"998 424 OFFCURVE",
"1038 416 OFFCURVE",
"1062 386 CURVE SMOOTH",
"1088 353 OFFCURVE",
"1077 320 OFFCURVE",
"1118 287 CURVE SMOOTH",
"1122 284 OFFCURVE",
"1130 279 OFFCURVE",
"1135 279 CURVE SMOOTH",
"1143 279 OFFCURVE",
"1146 283 OFFCURVE",
"1146 291 CURVE SMOOTH",
"1146 304 OFFCURVE",
"1131 339 OFFCURVE",
"1125 352 CURVE SMOOTH",
"1085 438 OFFCURVE",
"1018 505 OFFCURVE",
"918 505 CURVE SMOOTH"
);
}
);
width = 1163;
}
);
leftKerningGroup = general;
rightKerningGroup = general;
},
{
glyphname = Z_A_g;
layers = (
{
guideLines = (
{
angle = 90;
position = "{913, 0}";
}
);
layerId = "AD4F0B22-3094-4AE6-A818-B3E1049B6D0D";
paths = (
{
closed = 1;
nodes = (
"191 257 OFFCURVE",
"201 256 OFFCURVE",
"211 252 CURVE",
"211 250 LINE",
"211 218 OFFCURVE",
"180 194 OFFCURVE",
"150 194 CURVE SMOOTH",
"132 194 OFFCURVE",
"107 199 OFFCURVE",
"94 213 CURVE SMOOTH",
"87 221 OFFCURVE",
"83 253 OFFCURVE",
"83 264 CURVE SMOOTH",
"83 344 OFFCURVE",
"158 416 OFFCURVE",
"237 416 CURVE SMOOTH",
"281 416 OFFCURVE",
"314 399 OFFCURVE",
"336 361 CURVE SMOOTH",
"341 353 OFFCURVE",
"343 345 OFFCURVE",
"348 337 CURVE SMOOTH",
"354 326 OFFCURVE",
"375 301 OFFCURVE",
"389 301 CURVE SMOOTH",
"393 301 OFFCURVE",
"396 301 OFFCURVE",
"398 304 CURVE SMOOTH",
"401 309 OFFCURVE",
"401 316 OFFCURVE",
"404 321 CURVE SMOOTH",
"414 341 OFFCURVE",
"436 359 OFFCURVE",
"454 372 CURVE SMOOTH",
"496 401 OFFCURVE",
"555 422 OFFCURVE",
"606 422 CURVE SMOOTH",
"633 422 OFFCURVE",
"683 415 OFFCURVE",
"700 391 CURVE",
"700 390 LINE",
"701 385 OFFCURVE",
"702 380 OFFCURVE",
"702 375 CURVE SMOOTH",
"702 287 OFFCURVE",
"566 148 OFFCURVE",
"481 169 CURVE SMOOTH",
"477 170 LINE",
"487 208 OFFCURVE",
"534 243 OFFCURVE",
"573 243 CURVE SMOOTH",
"583 243 OFFCURVE",
"592 242 OFFCURVE",
"601 237 CURVE",
"603 229 OFFCURVE",
"603 222 OFFCURVE",
"603 214 CURVE SMOOTH",
"603 180 OFFCURVE",
"599 147 OFFCURVE",
"599 113 CURVE SMOOTH",
"599 73 OFFCURVE",
"601 40 OFFCURVE",
"632 11 CURVE SMOOTH",
"637 7 OFFCURVE",
"648 -2 OFFCURVE",
"655 -2 CURVE SMOOTH",
"663 -2 OFFCURVE",
"666 2 OFFCURVE",
"666 10 CURVE SMOOTH",
"666 26 OFFCURVE",
"663 41 OFFCURVE",
"663 57 CURVE SMOOTH",
"663 91 OFFCURVE",
"666 123 OFFCURVE",
"666 157 CURVE SMOOTH",
"666 178 OFFCURVE",
"664 201 OFFCURVE",
"656 221 CURVE SMOOTH",
"638 269 OFFCURVE",
"586 324 OFFCURVE",
"531 324 CURVE SMOOTH",
"476 324 OFFCURVE",
"412 273 OFFCURVE",
"412 215 CURVE SMOOTH",
"412 158 OFFCURVE",
"464 88 OFFCURVE",
"525 88 CURVE SMOOTH",
"606 88 OFFCURVE",
"704 167 OFFCURVE",
"743 235 CURVE SMOOTH",
"758 261 OFFCURVE",
"766 289 OFFCURVE",
"766 319 CURVE SMOOTH",
"766 345 OFFCURVE",
"756 371 OFFCURVE",
"744 393 CURVE SMOOTH",
"706 460 OFFCURVE",
"644 503 OFFCURVE",
"566 503 CURVE SMOOTH",
"492 503 OFFCURVE",
"396 467 OFFCURVE",
"352 406 CURVE",
"316 456 OFFCURVE",
"258 497 OFFCURVE",
"194 497 CURVE SMOOTH",
"99 497 OFFCURVE",
"19 416 OFFCURVE",
"19 321 CURVE SMOOTH",
"19 229 OFFCURVE",
"94 113 OFFCURVE",
"194 113 CURVE SMOOTH",
"240 113 OFFCURVE",
"275 148 OFFCURVE",
"275 194 CURVE SMOOTH",
"275 243 OFFCURVE",
"234 301 OFFCURVE",
"192 324 CURVE SMOOTH",
"175 333 OFFCURVE",
"156 338 OFFCURVE",
"136 338 CURVE SMOOTH",
"127 338 OFFCURVE",
"119 337 OFFCURVE",
"110 335 CURVE SMOOTH",
"96 332 OFFCURVE",
"44 313 OFFCURVE",
"37 302 CURVE SMOOTH",
"36 300 OFFCURVE",
"35 296 OFFCURVE",
"35 293 CURVE SMOOTH",
"35 273 OFFCURVE",
"67 225 OFFCURVE",
"88 225 CURVE SMOOTH",
"98 225 OFFCURVE",
"143 257 OFFCURVE",
"180 257 CURVE SMOOTH"
);
},
{
closed = 1;
nodes = (
"694 -489 OFFCURVE",
"755 -412 OFFCURVE",
"755 -305 CURVE SMOOTH",
"755 -205 OFFCURVE",
"713 -91 OFFCURVE",
"634 -27 CURVE SMOOTH",
"612 -9 OFFCURVE",
"584 6 OFFCURVE",
"555 6 CURVE SMOOTH",
"529 6 OFFCURVE",
"501 5 OFFCURVE",
"477 -3 CURVE SMOOTH",
"270 -71 OFFCURVE",
"425 -416 OFFCURVE",
"183 -416 CURVE SMOOTH",
"98 -416 OFFCURVE",
"82 -352 OFFCURVE",
"82 -280 CURVE SMOOTH",
"82 -178 OFFCURVE",
"141 -80 OFFCURVE",
"252 -80 CURVE SMOOTH",
"265 -80 OFFCURVE",
"277 -83 OFFCURVE",
"290 -83 CURVE SMOOTH",
"298 -83 OFFCURVE",
"301 -79 OFFCURVE",
"301 -71 CURVE SMOOTH",
"301 -61 OFFCURVE",
"296 -50 OFFCURVE",
"291 -41 CURVE SMOOTH",
"271 -5 OFFCURVE",
"251 1 OFFCURVE",
"211 1 CURVE SMOOTH",
"83 1 OFFCURVE",
"18 -105 OFFCURVE",
"18 -223 CURVE SMOOTH",
"18 -254 OFFCURVE",
"22 -285 OFFCURVE",
"31 -315 CURVE SMOOTH",
"56 -400 OFFCURVE",
"128 -496 OFFCURVE",
"225 -496 CURVE SMOOTH",
"484 -496 OFFCURVE",
"341 -174 OFFCURVE",
"510 -90 CURVE SMOOTH",
"536 -77 OFFCURVE",
"569 -74 OFFCURVE",
"597 -74 CURVE SMOOTH",
"673 -74 OFFCURVE",
"692 -191 OFFCURVE",
"692 -248 CURVE SMOOTH",
"692 -340 OFFCURVE",
"636 -408 OFFCURVE",
"541 -408 CURVE SMOOTH",
"528 -408 OFFCURVE",
"514 -406 OFFCURVE",
"501 -406 CURVE SMOOTH",
"493 -406 OFFCURVE",
"490 -410 OFFCURVE",
"490 -418 CURVE SMOOTH",
"490 -429 OFFCURVE",
"497 -443 OFFCURVE",
"503 -452 CURVE SMOOTH",
"527 -488 OFFCURVE",
"543 -489 OFFCURVE",
"583 -489 CURVE SMOOTH"
);
}
);
width = 783;
}
);
leftKerningGroup = general;
rightKerningGroup = general;
},
{
glyphname = z_A_c;
layers = (
{
guideLines = (
{
position = "{0, 201}";
},
{
angle = 90;
position = "{1470, 0}";
}
);
layerId = "AD4F0B22-3094-4AE6-A818-B3E1049B6D0D";
paths = (
{
closed = 1;
nodes = (
"174 215 OFFCURVE",
"198 175 OFFCURVE",
"198 143 CURVE SMOOTH",
"198 103 OFFCURVE",
"160 86 OFFCURVE",
"125 86 CURVE SMOOTH",
"116 86 OFFCURVE",
"105 87 OFFCURVE",
"97 91 CURVE SMOOTH",
"83 97 OFFCURVE",
"80 151 OFFCURVE",
"80 165 CURVE SMOOTH",
"80 244 OFFCURVE",
"110 351 OFFCURVE",
"176 400 CURVE SMOOTH",
"193 413 OFFCURVE",
"213 421 OFFCURVE",
"235 421 CURVE SMOOTH",
"256 421 OFFCURVE",
"281 420 OFFCURVE",
"298 406 CURVE",
"300 398 OFFCURVE",
"304 391 OFFCURVE",
"306 383 CURVE SMOOTH",
"311 364 OFFCURVE",
"311 343 OFFCURVE",
"311 323 CURVE SMOOTH",
"311 294 OFFCURVE",
"308 264 OFFCURVE",
"306 235 CURVE",
"323 213 OFFCURVE",
"345 191 OFFCURVE",
"369 177 CURVE",
"372 264 OFFCURVE",
"384 381 OFFCURVE",
"482 411 CURVE SMOOTH",
"496 415 OFFCURVE",
"512 418 OFFCURVE",
"527 418 CURVE SMOOTH",
"557 418 OFFCURVE",
"609 417 OFFCURVE",
"623 385 CURVE SMOOTH",
"636 356 OFFCURVE",
"640 319 OFFCURVE",
"640 288 CURVE SMOOTH",
"640 235 OFFCURVE",
"623 137 OFFCURVE",
"582 101 CURVE SMOOTH",
"575 95 OFFCURVE",
"567 89 OFFCURVE",
"557 89 CURVE SMOOTH",
"554 89 OFFCURVE",
"548 90 OFFCURVE",
"546 92 CURVE SMOOTH",
"538 101 OFFCURVE",
"535 127 OFFCURVE",
"535 139 CURVE SMOOTH",
"535 220 OFFCURVE",
"588 302 OFFCURVE",
"649 353 CURVE SMOOTH",
"662 364 OFFCURVE",
"679 372 OFFCURVE",
"692 383 CURVE SMOOTH",
"695 386 OFFCURVE",
"696 390 OFFCURVE",
"696 394 CURVE SMOOTH",
"696 414 OFFCURVE",
"664 462 OFFCURVE",
"643 462 CURVE SMOOTH",
"633 462 OFFCURVE",
"609 444 OFFCURVE",
"601 437 CURVE SMOOTH",
"529 379 OFFCURVE",
"472 290 OFFCURVE",
"472 195 CURVE SMOOTH",
"472 169 OFFCURVE",
"478 143 OFFCURVE",
"488 119 CURVE SMOOTH",
"505 78 OFFCURVE",
"552 8 OFFCURVE",
"602 8 CURVE SMOOTH",
"621 8 OFFCURVE",
"636 20 OFFCURVE",
"648 34 CURVE SMOOTH",
"688 82 OFFCURVE",
"703 170 OFFCURVE",
"703 231 CURVE SMOOTH",
"703 328 OFFCURVE",
"662 448 OFFCURVE",
"565 487 CURVE SMOOTH",
"539 497 OFFCURVE",
"510 499 OFFCURVE",
"483 499 CURVE SMOOTH",
"335 499 OFFCURVE",
"305 347 OFFCURVE",
"305 229 CURVE SMOOTH",
"305 209 OFFCURVE",
"337 161 OFFCURVE",
"358 161 CURVE SMOOTH",
"362 161 OFFCURVE",
"365 161 OFFCURVE",
"367 164 CURVE SMOOTH",
"371 170 OFFCURVE",
"374 253 OFFCURVE",
"374 266 CURVE SMOOTH",
"374 299 OFFCURVE",
"371 332 OFFCURVE",
"361 364 CURVE SMOOTH",
"336 442 OFFCURVE",
"278 502 OFFCURVE",
"192 502 CURVE SMOOTH",
"68 502 OFFCURVE",
"17 320 OFFCURVE",
"17 221 CURVE SMOOTH",
"17 194 OFFCURVE",
"20 166 OFFCURVE",
"28 140 CURVE SMOOTH",
"46 78 OFFCURVE",
"97 6 OFFCURVE",
"169 6 CURVE SMOOTH",
"221 6 OFFCURVE",
"262 30 OFFCURVE",
"262 86 CURVE SMOOTH",
"262 155 OFFCURVE",
"202 245 OFFCURVE",
"144 280 CURVE SMOOTH",
"130 289 OFFCURVE",
"113 296 OFFCURVE",
"96 296 CURVE SMOOTH",
"56 296 OFFCURVE",
"37 264 OFFCURVE",
"26 230 CURVE SMOOTH",
"24 223 OFFCURVE",
"19 208 OFFCURVE",
"19 201 CURVE SMOOTH",
"19 181 OFFCURVE",
"51 133 OFFCURVE",
"72 133 CURVE",
"74 133 OFFCURVE",
"78 133 OFFCURVE",
"79 134 CURVE",
"90 146 OFFCURVE",
"91 215 OFFCURVE",
"138 215 CURVE SMOOTH"
);
},
{
closed = 1;
nodes = (
"945 425 OFFCURVE",
"1019 414 OFFCURVE",
"1066 383 CURVE SMOOTH",
"1070 381 OFFCURVE",
"1080 372 OFFCURVE",
"1082 369 CURVE SMOOTH",
"1085 363 OFFCURVE",
"1086 346 OFFCURVE",
"1086 339 CURVE SMOOTH",
"1086 217 OFFCURVE",
"946 147 OFFCURVE",
"847 113 CURVE SMOOTH",
"811 101 OFFCURVE",
"772 91 OFFCURVE",
"734 87 CURVE SMOOTH",
"729 86 OFFCURVE",
"716 86 OFFCURVE",
"712 84 CURVE SMOOTH",
"709 82 OFFCURVE",
"708 76 OFFCURVE",
"708 73 CURVE SMOOTH",
"708 50 OFFCURVE",
"735 15 OFFCURVE",
"756 6 CURVE SMOOTH",
"770 0 OFFCURVE",
"1050 0 OFFCURVE",
"1091 0 CURVE SMOOTH",
"1154 0 OFFCURVE",
"1217 1 OFFCURVE",
"1280 2 CURVE SMOOTH",
"1309 3 OFFCURVE",
"1340 -1 OFFCURVE",
"1369 5 CURVE SMOOTH",
"1379 7 OFFCURVE",
"1389 11 OFFCURVE",
"1397 17 CURVE SMOOTH",
"1434 45 OFFCURVE",
"1444 114 OFFCURVE",
"1444 158 CURVE SMOOTH",
"1444 261 OFFCURVE",
"1412 386 OFFCURVE",
"1333 457 CURVE SMOOTH",
"1322 467 OFFCURVE",
"1293 486 OFFCURVE",
"1278 486 CURVE SMOOTH",
"1270 486 OFFCURVE",
"1267 482 OFFCURVE",
"1267 474 CURVE SMOOTH",
"1267 453 OFFCURVE",
"1292 419 OFFCURVE",
"1310 409 CURVE SMOOTH",
"1318 404 OFFCURVE",
"1331 404 OFFCURVE",
"1337 396 CURVE SMOOTH",
"1369 356 OFFCURVE",
"1380 266 OFFCURVE",
"1380 215 CURVE SMOOTH",
"1380 179 OFFCURVE",
"1373 118 OFFCURVE",
"1342 95 CURVE SMOOTH",
"1335 90 OFFCURVE",
"1328 88 OFFCURVE",
"1320 86 CURVE SMOOTH",
"1292 81 OFFCURVE",
"1262 84 OFFCURVE",
"1234 83 CURVE SMOOTH",
"1173 82 OFFCURVE",
"1111 81 OFFCURVE",
"1050 81 CURVE",
"1008 81 LINE",
"1083 125 OFFCURVE",
"1149 190 OFFCURVE",
"1149 283 CURVE SMOOTH",
"1149 326 OFFCURVE",
"1135 364 OFFCURVE",
"1109 398 CURVE SMOOTH",
"1047 477 OFFCURVE",
"946 506 OFFCURVE",
"849 506 CURVE SMOOTH",
"745 506 OFFCURVE",
"635 483 OFFCURVE",
"561 404 CURVE SMOOTH",
"553 395 OFFCURVE",
"533 371 OFFCURVE",
"533 359 CURVE SMOOTH",
"533 339 OFFCURVE",
"565 291 OFFCURVE",
"586 291 CURVE SMOOTH",
"589 291 OFFCURVE",
"591 291 OFFCURVE",
"593 293 CURVE SMOOTH",
"602 303 OFFCURVE",
"608 316 OFFCURVE",
"617 327 CURVE SMOOTH",
"632 345 OFFCURVE",
"653 361 OFFCURVE",
"673 373 CURVE SMOOTH",
"736 412 OFFCURVE",
"817 425 OFFCURVE",
"890 425 CURVE SMOOTH"
);
}
);
width = 1461;
}
);
leftKerningGroup = general;
rightKerningGroup = general;
},
{
glyphname = z_A_C;
layers = (
{
layerId = "AD4F0B22-3094-4AE6-A818-B3E1049B6D0D";
paths = (
{
closed = 1;
nodes = (
"174 215 OFFCURVE",
"198 175 OFFCURVE",
"198 143 CURVE SMOOTH",
"198 103 OFFCURVE",
"160 86 OFFCURVE",
"125 86 CURVE SMOOTH",
"116 86 OFFCURVE",
"105 87 OFFCURVE",
"97 91 CURVE SMOOTH",
"83 97 OFFCURVE",
"80 151 OFFCURVE",
"80 165 CURVE SMOOTH",
"80 244 OFFCURVE",
"110 351 OFFCURVE",
"176 400 CURVE SMOOTH",
"193 413 OFFCURVE",
"213 421 OFFCURVE",
"235 421 CURVE SMOOTH",
"256 421 OFFCURVE",
"281 420 OFFCURVE",
"298 406 CURVE",
"300 398 OFFCURVE",
"304 391 OFFCURVE",
"306 383 CURVE SMOOTH",
"310 364 OFFCURVE",
"311 343 OFFCURVE",
"311 323 CURVE SMOOTH",
"311 294 OFFCURVE",
"308 264 OFFCURVE",
"306 235 CURVE",
"323 213 OFFCURVE",
"345 191 OFFCURVE",
"369 177 CURVE",
"372 264 OFFCURVE",
"384 381 OFFCURVE",
"482 411 CURVE SMOOTH",
"496 415 OFFCURVE",
"512 418 OFFCURVE",
"527 418 CURVE SMOOTH",
"557 418 OFFCURVE",
"608 417 OFFCURVE",
"623 385 CURVE SMOOTH",
"636 356 OFFCURVE",
"640 319 OFFCURVE",
"640 288 CURVE SMOOTH",
"640 235 OFFCURVE",
"623 137 OFFCURVE",
"582 101 CURVE SMOOTH",
"575 95 OFFCURVE",
"567 89 OFFCURVE",
"557 89 CURVE",
"555 89 OFFCURVE",
"548 90 OFFCURVE",
"546 92 CURVE SMOOTH",
"540 101 OFFCURVE",
"536 123 OFFCURVE",
"536 134 CURVE SMOOTH",
"536 164 OFFCURVE",
"541 195 OFFCURVE",
"552 223 CURVE SMOOTH",
"582 304 OFFCURVE",
"672 416 OFFCURVE",
"766 416 CURVE SMOOTH",
"788 416 OFFCURVE",
"832 408 OFFCURVE",
"848 391 CURVE SMOOTH",
"862 376 OFFCURVE",
"865 315 OFFCURVE",
"865 294 CURVE SMOOTH",
"865 272 OFFCURVE",
"860 249 OFFCURVE",
"860 227 CURVE SMOOTH",
"860 207 OFFCURVE",
"892 159 OFFCURVE",
"913 159 CURVE SMOOTH",
"917 159 OFFCURVE",
"920 159 OFFCURVE",
"922 162 CURVE SMOOTH",
"926 169 OFFCURVE",
"928 226 OFFCURVE",
"928 237 CURVE SMOOTH",
"928 271 OFFCURVE",
"926 305 OFFCURVE",
"916 338 CURVE SMOOTH",
"890 425 OFFCURVE",
"819 496 OFFCURVE",
"724 496 CURVE SMOOTH",
"611 496 OFFCURVE",
"516 372 OFFCURVE",
"485 274 CURVE SMOOTH",
"476 247 OFFCURVE",
"473 219 OFFCURVE",
"473 191 CURVE SMOOTH",
"473 165 OFFCURVE",
"480 138 OFFCURVE",
"490 114 CURVE SMOOTH",
"507 74 OFFCURVE",
"554 8 OFFCURVE",
"602 8 CURVE SMOOTH",
"621 8 OFFCURVE",
"636 20 OFFCURVE",
"648 34 CURVE SMOOTH",
"688 82 OFFCURVE",
"703 170 OFFCURVE",
"703 231 CURVE SMOOTH",
"703 328 OFFCURVE",
"662 448 OFFCURVE",
"565 487 CURVE SMOOTH",
"539 497 OFFCURVE",
"510 499 OFFCURVE",
"483 499 CURVE SMOOTH",
"335 499 OFFCURVE",
"305 347 OFFCURVE",
"305 229 CURVE SMOOTH",
"305 209 OFFCURVE",
"337 161 OFFCURVE",
"358 161 CURVE SMOOTH",
"362 161 OFFCURVE",
"365 161 OFFCURVE",
"367 164 CURVE SMOOTH",
"371 170 OFFCURVE",
"374 253 OFFCURVE",
"374 266 CURVE SMOOTH",
"374 299 OFFCURVE",
"371 332 OFFCURVE",
"361 364 CURVE SMOOTH",
"336 442 OFFCURVE",
"278 502 OFFCURVE",
"192 502 CURVE SMOOTH",
"68 502 OFFCURVE",
"17 320 OFFCURVE",
"17 221 CURVE SMOOTH",
"17 194 OFFCURVE",
"20 166 OFFCURVE",
"28 140 CURVE SMOOTH",
"46 78 OFFCURVE",
"97 6 OFFCURVE",
"169 6 CURVE SMOOTH",
"221 6 OFFCURVE",
"262 30 OFFCURVE",
"262 86 CURVE SMOOTH",
"262 155 OFFCURVE",
"202 245 OFFCURVE",
"144 280 CURVE SMOOTH",
"130 289 OFFCURVE",
"113 296 OFFCURVE",
"96 296 CURVE SMOOTH",
"56 296 OFFCURVE",
"37 264 OFFCURVE",
"26 230 CURVE SMOOTH",
"24 223 OFFCURVE",
"19 208 OFFCURVE",
"19 201 CURVE SMOOTH",
"19 181 OFFCURVE",
"51 133 OFFCURVE",
"72 133 CURVE",
"74 133 OFFCURVE",
"78 133 OFFCURVE",
"79 134 CURVE",
"90 146 OFFCURVE",
"91 215 OFFCURVE",
"138 215 CURVE SMOOTH"
);
},
{
closed = 1;
nodes = (
"862 252 OFFCURVE",
"858 209 OFFCURVE",
"858 165 CURVE SMOOTH",
"858 141 OFFCURVE",
"859 117 OFFCURVE",
"866 94 CURVE SMOOTH",
"878 53 OFFCURVE",
"919 -4 OFFCURVE",
"967 -4 CURVE SMOOTH",
"1028 -4 OFFCURVE",
"1034 61 OFFCURVE",
"1034 108 CURVE SMOOTH",
"1034 152 OFFCURVE",
"1030 196 OFFCURVE",
"1030 240 CURVE SMOOTH",
"1030 340 OFFCURVE",
"1053 415 OFFCURVE",
"1168 415 CURVE SMOOTH",
"1267 415 OFFCURVE",
"1308 350 OFFCURVE",
"1308 257 CURVE SMOOTH",
"1308 232 OFFCURVE",
"1305 207 OFFCURVE",
"1298 183 CURVE SMOOTH",
"1288 146 OFFCURVE",
"1253 77 OFFCURVE",
"1208 77 CURVE",
"1206 77 OFFCURVE",
"1204 78 OFFCURVE",
"1202 78 CURVE",
"1202 80 LINE",
"1202 126 OFFCURVE",
"1248 140 OFFCURVE",
"1286 140 CURVE SMOOTH",
"1299 140 OFFCURVE",
"1314 139 OFFCURVE",
"1327 136 CURVE SMOOTH",
"1334 134 OFFCURVE",
"1343 131 OFFCURVE",
"1350 131 CURVE SMOOTH",
"1358 131 OFFCURVE",
"1361 135 OFFCURVE",
"1361 143 CURVE SMOOTH",
"1361 153 OFFCURVE",
"1356 164 OFFCURVE",
"1351 173 CURVE SMOOTH",
"1343 186 OFFCURVE",
"1331 200 OFFCURVE",
"1318 208 CURVE SMOOTH",
"1306 215 OFFCURVE",
"1260 221 OFFCURVE",
"1245 221 CURVE SMOOTH",
"1186 221 OFFCURVE",
"1138 201 OFFCURVE",
"1138 134 CURVE SMOOTH",
"1138 84 OFFCURVE",
"1196 -4 OFFCURVE",
"1250 -4 CURVE SMOOTH",
"1315 -4 OFFCURVE",
"1353 78 OFFCURVE",
"1365 132 CURVE SMOOTH",
"1370 154 OFFCURVE",
"1371 178 OFFCURVE",
"1371 201 CURVE SMOOTH",
"1371 334 OFFCURVE",
"1272 495 OFFCURVE",
"1126 495 CURVE SMOOTH",
"994 495 OFFCURVE",
"966 412 OFFCURVE",
"966 296 CURVE SMOOTH",
"966 252 OFFCURVE",
"971 209 OFFCURVE",
"971 165 CURVE SMOOTH",
"971 133 OFFCURVE",
"968 77 OFFCURVE",
"924 77 CURVE",
"923 77 LINE",
"922 88 OFFCURVE",
"921 97 OFFCURVE",
"921 108 CURVE SMOOTH",
"921 152 OFFCURVE",
"926 196 OFFCURVE",
"926 240 CURVE SMOOTH",
"926 275 OFFCURVE",
"924 310 OFFCURVE",
"915 343 CURVE SMOOTH",
"889 434 OFFCURVE",
"821 495 OFFCURVE",
"724 495 CURVE SMOOTH",
"716 495 OFFCURVE",
"713 491 OFFCURVE",
"713 483 CURVE SMOOTH",
"713 471 OFFCURVE",
"721 456 OFFCURVE",
"728 446 CURVE SMOOTH",
"735 436 OFFCURVE",
"749 420 OFFCURVE",
"761 416 CURVE SMOOTH",
"769 414 OFFCURVE",
"778 414 OFFCURVE",
"786 414 CURVE",
"808 413 OFFCURVE",
"830 407 OFFCURVE",
"848 394 CURVE",
"849 393 LINE",
"862 362 OFFCURVE",
"862 329 OFFCURVE",
"862 296 CURVE SMOOTH"
);
}
);
width = 1388;
}
);
leftKerningGroup = general;
rightKerningGroup = general;
},
{
glyphname = z_A_j;
layers = (
{
guideLines = (
{
position = "{0, 201}";
},
{
angle = 90;
position = "{1470, 0}";
}
);
layerId = "AD4F0B22-3094-4AE6-A818-B3E1049B6D0D";
paths = (
{
closed = 1;
nodes = (
"174 215 OFFCURVE",
"198 175 OFFCURVE",
"198 143 CURVE SMOOTH",
"198 103 OFFCURVE",
"160 86 OFFCURVE",
"125 86 CURVE SMOOTH",
"117 86 OFFCURVE",
"104 87 OFFCURVE",
"97 91 CURVE SMOOTH",
"83 98 OFFCURVE",
"80 150 OFFCURVE",
"80 165 CURVE SMOOTH",
"80 244 OFFCURVE",
"110 351 OFFCURVE",
"176 400 CURVE SMOOTH",
"193 413 OFFCURVE",
"214 421 OFFCURVE",
"235 421 CURVE SMOOTH",
"256 421 OFFCURVE",
"281 420 OFFCURVE",
"298 406 CURVE",
"300 398 OFFCURVE",
"304 391 OFFCURVE",
"306 383 CURVE SMOOTH",
"311 364 OFFCURVE",
"311 343 OFFCURVE",
"311 323 CURVE SMOOTH",
"311 294 OFFCURVE",
"308 264 OFFCURVE",
"306 235 CURVE",
"323 213 OFFCURVE",
"345 191 OFFCURVE",
"369 177 CURVE",
"372 264 OFFCURVE",
"384 381 OFFCURVE",
"482 411 CURVE SMOOTH",
"496 415 OFFCURVE",
"512 418 OFFCURVE",
"527 418 CURVE SMOOTH",
"557 418 OFFCURVE",
"609 417 OFFCURVE",
"623 385 CURVE SMOOTH",
"636 356 OFFCURVE",
"640 319 OFFCURVE",
"640 288 CURVE SMOOTH",
"640 234 OFFCURVE",
"623 139 OFFCURVE",
"582 101 CURVE SMOOTH",
"575 95 OFFCURVE",
"567 89 OFFCURVE",
"557 89 CURVE SMOOTH",
"537 89 OFFCURVE",
"536 123 OFFCURVE",
"536 138 CURVE SMOOTH",
"536 235 OFFCURVE",
"621 341 OFFCURVE",
"701 390 CURVE SMOOTH",
"726 405 OFFCURVE",
"755 418 OFFCURVE",
"785 418 CURVE SMOOTH",
"794 418 OFFCURVE",
"811 416 OFFCURVE",
"818 410 CURVE SMOOTH",
"827 403 OFFCURVE",
"831 339 OFFCURVE",
"831 325 CURVE SMOOTH",
"831 305 OFFCURVE",
"830 285 OFFCURVE",
"828 265 CURVE SMOOTH",
"827 255 OFFCURVE",
"824 246 OFFCURVE",
"824 236 CURVE SMOOTH",
"824 216 OFFCURVE",
"856 168 OFFCURVE",
"877 168 CURVE SMOOTH",
"881 168 OFFCURVE",
"884 168 OFFCURVE",
"886 171 CURVE SMOOTH",
"891 178 OFFCURVE",
"894 254 OFFCURVE",
"894 268 CURVE SMOOTH",
"894 299 OFFCURVE",
"891 331 OFFCURVE",
"883 361 CURVE SMOOTH",
"866 423 OFFCURVE",
"814 499 OFFCURVE",
"743 499 CURVE SMOOTH",
"645 499 OFFCURVE",
"544 393 OFFCURVE",
"503 311 CURVE SMOOTH",
"485 275 OFFCURVE",
"473 234 OFFCURVE",
"473 194 CURVE SMOOTH",
"473 168 OFFCURVE",
"478 143 OFFCURVE",
"488 119 CURVE SMOOTH",
"505 78 OFFCURVE",
"553 8 OFFCURVE",
"602 8 CURVE SMOOTH",
"621 8 OFFCURVE",
"636 20 OFFCURVE",
"648 34 CURVE SMOOTH",
"688 82 OFFCURVE",
"703 170 OFFCURVE",
"703 231 CURVE SMOOTH",
"703 328 OFFCURVE",
"662 448 OFFCURVE",
"565 487 CURVE SMOOTH",
"539 497 OFFCURVE",
"510 499 OFFCURVE",
"483 499 CURVE SMOOTH",
"335 499 OFFCURVE",
"305 347 OFFCURVE",
"305 229 CURVE SMOOTH",
"305 209 OFFCURVE",
"337 161 OFFCURVE",
"358 161 CURVE SMOOTH",
"362 161 OFFCURVE",
"365 161 OFFCURVE",
"367 164 CURVE SMOOTH",
"371 170 OFFCURVE",
"374 253 OFFCURVE",
"374 266 CURVE SMOOTH",
"374 299 OFFCURVE",
"371 332 OFFCURVE",
"361 364 CURVE SMOOTH",
"336 442 OFFCURVE",
"278 502 OFFCURVE",
"192 502 CURVE SMOOTH",
"68 502 OFFCURVE",
"17 320 OFFCURVE",
"17 221 CURVE SMOOTH",
"17 194 OFFCURVE",
"20 166 OFFCURVE",
"28 140 CURVE SMOOTH",
"46 78 OFFCURVE",
"97 6 OFFCURVE",
"169 6 CURVE SMOOTH",
"221 6 OFFCURVE",
"262 30 OFFCURVE",
"262 86 CURVE SMOOTH",
"262 155 OFFCURVE",
"202 245 OFFCURVE",
"144 280 CURVE SMOOTH",
"130 289 OFFCURVE",
"113 296 OFFCURVE",
"96 296 CURVE SMOOTH",
"56 296 OFFCURVE",
"37 264 OFFCURVE",
"26 230 CURVE SMOOTH",
"24 223 OFFCURVE",
"19 208 OFFCURVE",
"19 201 CURVE SMOOTH",
"19 181 OFFCURVE",
"51 133 OFFCURVE",
"72 133 CURVE",
"74 133 OFFCURVE",
"78 133 OFFCURVE",
"79 134 CURVE",
"90 146 OFFCURVE",
"91 215 OFFCURVE",
"138 215 CURVE SMOOTH"
);
},
{
closed = 1;
nodes = (
"889 85 OFFCURVE",
"886 109 OFFCURVE",
"886 133 CURVE SMOOTH",
"886 215 OFFCURVE",
"903 337 OFFCURVE",
"971 392 CURVE SMOOTH",
"990 408 OFFCURVE",
"1012 417 OFFCURVE",
"1037 417 CURVE SMOOTH",
"1076 417 OFFCURVE",
"1100 394 OFFCURVE",
"1100 355 CURVE SMOOTH",
"1100 284 OFFCURVE",
"1047 219 OFFCURVE",
"1047 147 CURVE SMOOTH",
"1047 119 OFFCURVE",
"1055 96 OFFCURVE",
"1070 73 CURVE SMOOTH",
"1104 20 OFFCURVE",
"1149 5 OFFCURVE",
"1210 5 CURVE SMOOTH",
"1439 5 OFFCURVE",
"1287 281 OFFCURVE",
"1470 393 CURVE SMOOTH",
"1496 409 OFFCURVE",
"1536 423 OFFCURVE",
"1567 423 CURVE SMOOTH",
"1664 423 OFFCURVE",
"1711 298 OFFCURVE",
"1711 217 CURVE SMOOTH",
"1711 152 OFFCURVE",
"1683 88 OFFCURVE",
"1609 88 CURVE SMOOTH",
"1585 88 OFFCURVE",
"1550 92 OFFCURVE",
"1529 102 CURVE",
"1529 103 LINE",
"1542 151 OFFCURVE",
"1583 190 OFFCURVE",
"1635 190 CURVE SMOOTH",
"1691 190 OFFCURVE",
"1679 144 OFFCURVE",
"1718 111 CURVE SMOOTH",
"1721 108 OFFCURVE",
"1730 103 OFFCURVE",
"1735 103 CURVE SMOOTH",
"1743 103 OFFCURVE",
"1746 107 OFFCURVE",
"1746 115 CURVE SMOOTH",
"1746 126 OFFCURVE",
"1738 142 OFFCURVE",
"1733 152 CURVE SMOOTH",
"1709 204 OFFCURVE",
"1657 271 OFFCURVE",
"1594 271 CURVE SMOOTH",
"1531 271 OFFCURVE",
"1465 218 OFFCURVE",
"1465 152 CURVE SMOOTH",
"1465 131 OFFCURVE",
"1473 109 OFFCURVE",
"1484 91 CURVE SMOOTH",
"1522 29 OFFCURVE",
"1582 7 OFFCURVE",
"1652 7 CURVE SMOOTH",
"1742 7 OFFCURVE",
"1775 81 OFFCURVE",
"1775 160 CURVE SMOOTH",
"1775 271 OFFCURVE",
"1707 407 OFFCURVE",
"1616 471 CURVE SMOOTH",
"1591 489 OFFCURVE",
"1557 504 OFFCURVE",
"1526 504 CURVE SMOOTH",
"1488 504 OFFCURVE",
"1447 491 OFFCURVE",
"1415 471 CURVE SMOOTH",
"1227 355 OFFCURVE",
"1370 86 OFFCURVE",
"1169 86 CURVE SMOOTH",
"1150 86 OFFCURVE",
"1130 87 OFFCURVE",
"1111 92 CURVE",
"1116 164 OFFCURVE",
"1164 226 OFFCURVE",
"1164 298 CURVE SMOOTH",
"1164 377 OFFCURVE",
"1081 498 OFFCURVE",
"995 498 CURVE SMOOTH",
"854 498 OFFCURVE",
"823 297 OFFCURVE",
"823 190 CURVE SMOOTH",
"823 141 OFFCURVE",
"817 99 OFFCURVE",
"855 62 CURVE SMOOTH",
"860 58 OFFCURVE",
"871 49 OFFCURVE",
"878 49 CURVE SMOOTH",
"886 49 OFFCURVE",
"889 53 OFFCURVE",
"889 61 CURVE SMOOTH"
);
}
);
width = 1792;
}
);
leftKerningGroup = general;
rightKerningGroup = general;
},
{
glyphname = z_A_z;
layers = (
{
guideLines = (
{
position = "{0, 201}";
},
{
angle = 90;
position = "{1470, 0}";
},
{
position = "{0, 201}";
}
);
layerId = "AD4F0B22-3094-4AE6-A818-B3E1049B6D0D";
paths = (
{
closed = 1;
nodes = (
"174 215 OFFCURVE",
"198 175 OFFCURVE",
"198 143 CURVE SMOOTH",
"198 103 OFFCURVE",
"160 86 OFFCURVE",
"125 86 CURVE SMOOTH",
"117 86 OFFCURVE",
"104 87 OFFCURVE",
"97 91 CURVE SMOOTH",
"83 98 OFFCURVE",
"80 150 OFFCURVE",
"80 165 CURVE SMOOTH",
"80 244 OFFCURVE",
"110 351 OFFCURVE",
"176 400 CURVE SMOOTH",
"193 413 OFFCURVE",
"214 421 OFFCURVE",
"235 421 CURVE SMOOTH",
"256 421 OFFCURVE",
"281 420 OFFCURVE",
"298 406 CURVE",
"300 398 OFFCURVE",
"304 391 OFFCURVE",
"306 383 CURVE SMOOTH",
"311 364 OFFCURVE",
"311 343 OFFCURVE",
"311 323 CURVE SMOOTH",
"311 294 OFFCURVE",
"308 264 OFFCURVE",
"306 235 CURVE",
"323 213 OFFCURVE",
"345 191 OFFCURVE",
"369 177 CURVE",
"372 264 OFFCURVE",
"384 381 OFFCURVE",
"482 411 CURVE SMOOTH",
"496 415 OFFCURVE",
"512 418 OFFCURVE",
"527 418 CURVE SMOOTH",
"557 418 OFFCURVE",
"609 417 OFFCURVE",
"623 385 CURVE SMOOTH",
"636 356 OFFCURVE",
"640 319 OFFCURVE",
"640 288 CURVE SMOOTH",
"640 234 OFFCURVE",
"623 139 OFFCURVE",
"582 101 CURVE SMOOTH",
"575 95 OFFCURVE",
"567 89 OFFCURVE",
"557 89 CURVE SMOOTH",
"537 89 OFFCURVE",
"536 123 OFFCURVE",
"536 138 CURVE SMOOTH",
"536 235 OFFCURVE",
"622 341 OFFCURVE",
"702 389 CURVE SMOOTH",
"727 404 OFFCURVE",
"755 417 OFFCURVE",
"785 417 CURVE SMOOTH",
"794 417 OFFCURVE",
"812 415 OFFCURVE",
"819 409 CURVE SMOOTH",
"828 402 OFFCURVE",
"832 338 OFFCURVE",
"832 324 CURVE SMOOTH",
"832 304 OFFCURVE",
"831 284 OFFCURVE",
"829 264 CURVE SMOOTH",
"828 254 OFFCURVE",
"825 245 OFFCURVE",
"825 235 CURVE SMOOTH",
"825 215 OFFCURVE",
"857 167 OFFCURVE",
"878 167 CURVE SMOOTH",
"882 167 OFFCURVE",
"885 167 OFFCURVE",
"887 170 CURVE SMOOTH",
"892 177 OFFCURVE",
"895 253 OFFCURVE",
"895 267 CURVE SMOOTH",
"895 298 OFFCURVE",
"892 330 OFFCURVE",
"884 360 CURVE SMOOTH",
"867 422 OFFCURVE",
"813 498 OFFCURVE",
"743 498 CURVE SMOOTH",
"645 498 OFFCURVE",
"544 393 OFFCURVE",
"503 311 CURVE SMOOTH",
"485 275 OFFCURVE",
"473 234 OFFCURVE",
"473 194 CURVE SMOOTH",
"473 168 OFFCURVE",
"478 143 OFFCURVE",
"488 119 CURVE SMOOTH",
"505 78 OFFCURVE",
"553 8 OFFCURVE",
"602 8 CURVE SMOOTH",
"621 8 OFFCURVE",
"636 20 OFFCURVE",
"648 34 CURVE SMOOTH",
"688 82 OFFCURVE",
"703 170 OFFCURVE",
"703 231 CURVE SMOOTH",
"703 328 OFFCURVE",
"662 448 OFFCURVE",
"565 487 CURVE SMOOTH",
"539 497 OFFCURVE",
"510 499 OFFCURVE",
"483 499 CURVE SMOOTH",
"335 499 OFFCURVE",
"305 347 OFFCURVE",
"305 229 CURVE SMOOTH",
"305 209 OFFCURVE",
"337 161 OFFCURVE",
"358 161 CURVE SMOOTH",
"362 161 OFFCURVE",
"365 161 OFFCURVE",
"367 164 CURVE SMOOTH",
"371 170 OFFCURVE",
"374 253 OFFCURVE",
"374 266 CURVE SMOOTH",
"374 299 OFFCURVE",
"371 332 OFFCURVE",
"361 364 CURVE SMOOTH",
"336 442 OFFCURVE",
"278 502 OFFCURVE",
"192 502 CURVE SMOOTH",
"68 502 OFFCURVE",
"17 320 OFFCURVE",
"17 221 CURVE SMOOTH",
"17 194 OFFCURVE",
"20 166 OFFCURVE",
"28 140 CURVE SMOOTH",
"46 78 OFFCURVE",
"97 6 OFFCURVE",
"169 6 CURVE SMOOTH",
"221 6 OFFCURVE",
"262 30 OFFCURVE",
"262 86 CURVE SMOOTH",
"262 155 OFFCURVE",
"202 245 OFFCURVE",
"144 280 CURVE SMOOTH",
"130 289 OFFCURVE",
"113 296 OFFCURVE",
"96 296 CURVE SMOOTH",
"56 296 OFFCURVE",
"37 264 OFFCURVE",
"26 230 CURVE SMOOTH",
"24 223 OFFCURVE",
"19 208 OFFCURVE",
"19 201 CURVE SMOOTH",
"19 181 OFFCURVE",
"51 133 OFFCURVE",
"72 133 CURVE",
"74 133 OFFCURVE",
"78 133 OFFCURVE",
"79 134 CURVE",
"90 146 OFFCURVE",
"91 215 OFFCURVE",
"138 215 CURVE SMOOTH"
);
},
{
closed = 1;
nodes = (
"1078 425 OFFCURVE",
"1128 425 OFFCURVE",
"1143 392 CURVE SMOOTH",
"1156 364 OFFCURVE",
"1160 326 OFFCURVE",
"1160 295 CURVE SMOOTH",
"1160 241 OFFCURVE",
"1143 146 OFFCURVE",
"1102 108 CURVE SMOOTH",
"1095 102 OFFCURVE",
"1087 96 OFFCURVE",
"1077 96 CURVE SMOOTH",
"1070 96 OFFCURVE",
"1068 97 OFFCURVE",
"1064 103 CURVE",
"1064 103 LINE",
"1058 116 OFFCURVE",
"1056 131 OFFCURVE",
"1056 145 CURVE SMOOTH",
"1056 242 OFFCURVE",
"1142 348 OFFCURVE",
"1222 396 CURVE SMOOTH",
"1247 411 OFFCURVE",
"1275 424 OFFCURVE",
"1305 424 CURVE SMOOTH",
"1314 424 OFFCURVE",
"1332 422 OFFCURVE",
"1339 416 CURVE SMOOTH",
"1348 409 OFFCURVE",
"1352 345 OFFCURVE",
"1352 331 CURVE SMOOTH",
"1352 304 OFFCURVE",
"1349 278 OFFCURVE",
"1346 252 CURVE",
"1363 229 OFFCURVE",
"1385 207 OFFCURVE",
"1409 192 CURVE",
"1409 194 LINE",
"1409 274 OFFCURVE",
"1451 366 OFFCURVE",
"1523 406 CURVE SMOOTH",
"1542 416 OFFCURVE",
"1563 424 OFFCURVE",
"1585 424 CURVE SMOOTH",
"1616 424 OFFCURVE",
"1640 414 OFFCURVE",
"1657 388 CURVE SMOOTH",
"1681 353 OFFCURVE",
"1693 266 OFFCURVE",
"1693 223 CURVE SMOOTH",
"1693 211 OFFCURVE",
"1692 200 OFFCURVE",
"1691 188 CURVE SMOOTH",
"1688 156 OFFCURVE",
"1682 126 OFFCURVE",
"1667 97 CURVE SMOOTH",
"1577 -82 OFFCURVE",
"1273 -91 OFFCURVE",
"1100 -91 CURVE SMOOTH",
"931 -91 OFFCURVE",
"763 -74 OFFCURVE",
"594 -74 CURVE SMOOTH",
"542 -74 OFFCURVE",
"434 -75 OFFCURVE",
"401 -121 CURVE SMOOTH",
"397 -127 OFFCURVE",
"393 -135 OFFCURVE",
"393 -142 CURVE SMOOTH",
"393 -162 OFFCURVE",
"425 -210 OFFCURVE",
"446 -210 CURVE SMOOTH",
"457 -210 OFFCURVE",
"458 -198 OFFCURVE",
"463 -191 CURVE SMOOTH",
"468 -185 OFFCURVE",
"477 -180 OFFCURVE",
"484 -176 CURVE SMOOTH",
"520 -158 OFFCURVE",
"594 -155 OFFCURVE",
"635 -155 CURVE SMOOTH",
"804 -155 OFFCURVE",
"972 -172 OFFCURVE",
"1141 -172 CURVE SMOOTH",
"1323 -172 OFFCURVE",
"1611 -164 OFFCURVE",
"1718 10 CURVE SMOOTH",
"1746 56 OFFCURVE",
"1756 113 OFFCURVE",
"1756 167 CURVE SMOOTH",
"1756 272 OFFCURVE",
"1719 401 OFFCURVE",
"1635 469 CURVE SMOOTH",
"1609 490 OFFCURVE",
"1577 505 OFFCURVE",
"1543 505 CURVE SMOOTH",
"1450 505 OFFCURVE",
"1382 419 OFFCURVE",
"1358 337 CURVE SMOOTH",
"1349 306 OFFCURVE",
"1345 274 OFFCURVE",
"1345 242 CURVE SMOOTH",
"1345 222 OFFCURVE",
"1377 174 OFFCURVE",
"1398 174 CURVE SMOOTH",
"1401 174 OFFCURVE",
"1405 174 OFFCURVE",
"1407 177 CURVE SMOOTH",
"1412 186 OFFCURVE",
"1415 259 OFFCURVE",
"1415 274 CURVE SMOOTH",
"1415 305 OFFCURVE",
"1412 337 OFFCURVE",
"1404 367 CURVE SMOOTH",
"1387 429 OFFCURVE",
"1334 505 OFFCURVE",
"1263 505 CURVE SMOOTH",
"1165 505 OFFCURVE",
"1064 400 OFFCURVE",
"1023 318 CURVE SMOOTH",
"1005 282 OFFCURVE",
"993 242 OFFCURVE",
"993 201 CURVE SMOOTH",
"993 175 OFFCURVE",
"998 150 OFFCURVE",
"1008 126 CURVE SMOOTH",
"1024 85 OFFCURVE",
"1073 15 OFFCURVE",
"1122 15 CURVE SMOOTH",
"1141 15 OFFCURVE",
"1156 27 OFFCURVE",
"1168 41 CURVE SMOOTH",
"1208 88 OFFCURVE",
"1223 178 OFFCURVE",
"1223 238 CURVE SMOOTH",
"1223 334 OFFCURVE",
"1182 456 OFFCURVE",
"1085 494 CURVE SMOOTH",
"1059 504 OFFCURVE",
"1031 506 OFFCURVE",
"1003 506 CURVE SMOOTH",
"855 506 OFFCURVE",
"825 354 OFFCURVE",
"825 236 CURVE SMOOTH",
"825 216 OFFCURVE",
"857 168 OFFCURVE",
"878 168 CURVE SMOOTH",
"881 168 OFFCURVE",
"886 167 OFFCURVE",
"887 171 CURVE SMOOTH",
"890 178 OFFCURVE",
"890 216 OFFCURVE",
"891 227 CURVE SMOOTH",
"899 322 OFFCURVE",
"933 425 OFFCURVE",
"1047 425 CURVE SMOOTH"
);
}
);
width = 1773;
}
);
leftKerningGroup = general;
rightKerningGroup = general;
},
{
glyphname = N_A_q;
layers = (
{
guideLines = (
{
angle = 90;
position = "{1358, 0}";
}
);
layerId = "AD4F0B22-3094-4AE6-A818-B3E1049B6D0D";
paths = (
{
closed = 1;
nodes = (
"222 181 OFFCURVE",
"248 172 OFFCURVE",
"248 143 CURVE SMOOTH",
"248 99 OFFCURVE",
"201 83 OFFCURVE",
"164 83 CURVE SMOOTH",
"142 83 OFFCURVE",
"116 88 OFFCURVE",
"100 104 CURVE SMOOTH",
"87 117 OFFCURVE",
"81 170 OFFCURVE",
"81 188 CURVE SMOOTH",
"81 293 OFFCURVE",
"140 422 OFFCURVE",
"261 422 CURVE SMOOTH",
"295 422 OFFCURVE",
"354 416 OFFCURVE",
"381 393 CURVE SMOOTH",
"418 361 OFFCURVE",
"409 195 OFFCURVE",
"409 146 CURVE SMOOTH",
"409 97 OFFCURVE",
"402 49 OFFCURVE",
"441 13 CURVE SMOOTH",
"446 9 OFFCURVE",
"457 0 OFFCURVE",
"464 0 CURVE SMOOTH",
"472 0 OFFCURVE",
"475 4 OFFCURVE",
"475 12 CURVE SMOOTH",
"475 28 OFFCURVE",
"473 43 OFFCURVE",
"472 59 CURVE SMOOTH",
"471 88 OFFCURVE",
"471 117 OFFCURVE",
"471 146 CURVE SMOOTH",
"471 251 OFFCURVE",
"483 422 OFFCURVE",
"624 422 CURVE SMOOTH",
"649 422 OFFCURVE",
"675 417 OFFCURVE",
"697 404 CURVE SMOOTH",
"748 372 OFFCURVE",
"753 205 OFFCURVE",
"753 148 CURVE SMOOTH",
"753 123 OFFCURVE",
"752 98 OFFCURVE",
"751 73 CURVE",
"769 51 OFFCURVE",
"791 31 OFFCURVE",
"815 17 CURVE",
"814 55 LINE",
"814 142 OFFCURVE",
"816 340 OFFCURVE",
"885 400 CURVE SMOOTH",
"905 417 OFFCURVE",
"926 420 OFFCURVE",
"951 420 CURVE SMOOTH",
"977 420 OFFCURVE",
"1086 410 OFFCURVE",
"1086 375 CURVE SMOOTH",
"1086 361 OFFCURVE",
"1077 349 OFFCURVE",
"1064 344 CURVE SMOOTH",
"1052 339 OFFCURVE",
"1036 339 OFFCURVE",
"1023 337 CURVE SMOOTH",
"979 330 OFFCURVE",
"916 310 OFFCURVE",
"916 255 CURVE SMOOTH",
"916 215 OFFCURVE",
"966 143 OFFCURVE",
"1004 130 CURVE SMOOTH",
"1027 122 OFFCURVE",
"1070 126 OFFCURVE",
"1096 126 CURVE SMOOTH",
"1104 126 OFFCURVE",
"1112 126 OFFCURVE",
"1120 125 CURVE",
"1109 84 OFFCURVE",
"1045 71 OFFCURVE",
"1008 71 CURVE SMOOTH",
"986 71 OFFCURVE",
"962 76 OFFCURVE",
"941 83 CURVE SMOOTH",
"935 85 OFFCURVE",
"889 104 OFFCURVE",
"889 104 CURVE",
"881 104 OFFCURVE",
"878 100 OFFCURVE",
"878 92 CURVE SMOOTH",
"878 83 OFFCURVE",
"883 73 OFFCURVE",
"887 65 CURVE SMOOTH",
"894 52 OFFCURVE",
"904 39 OFFCURVE",
"916 30 CURVE SMOOTH",
"944 9 OFFCURVE",
"1015 -10 OFFCURVE",
"1050 -10 CURVE SMOOTH",
"1106 -10 OFFCURVE",
"1185 9 OFFCURVE",
"1185 79 CURVE SMOOTH",
"1185 121 OFFCURVE",
"1137 192 OFFCURVE",
"1096 203 CURVE SMOOTH",
"1071 210 OFFCURVE",
"1036 206 OFFCURVE",
"1010 206 CURVE SMOOTH",
"1000 206 OFFCURVE",
"991 206 OFFCURVE",
"981 207 CURVE",
"981 209 LINE",
"998 240 OFFCURVE",
"1039 251 OFFCURVE",
"1072 256 CURVE SMOOTH",
"1086 258 OFFCURVE",
"1101 258 OFFCURVE",
"1114 263 CURVE SMOOTH",
"1136 271 OFFCURVE",
"1150 292 OFFCURVE",
"1150 315 CURVE SMOOTH",
"1150 344 OFFCURVE",
"1138 373 OFFCURVE",
"1122 397 CURVE SMOOTH",
"1072 473 OFFCURVE",
"997 501 OFFCURVE",
"909 501 CURVE SMOOTH",
"884 501 OFFCURVE",
"858 499 OFFCURVE",
"837 484 CURVE SMOOTH",
"748 421 OFFCURVE",
"751 191 OFFCURVE",
"751 90 CURVE SMOOTH",
"751 57 OFFCURVE",
"756 37 OFFCURVE",
"781 13 CURVE SMOOTH",
"786 9 OFFCURVE",
"797 0 OFFCURVE",
"804 0 CURVE SMOOTH",
"808 0 OFFCURVE",
"811 0 OFFCURVE",
"813 3 CURVE SMOOTH",
"816 9 OFFCURVE",
"816 79 OFFCURVE",
"816 91 CURVE SMOOTH",
"816 213 OFFCURVE",
"805 353 OFFCURVE",
"716 445 CURVE SMOOTH",
"680 483 OFFCURVE",
"634 502 OFFCURVE",
"582 502 CURVE SMOOTH",
"551 502 OFFCURVE",
"519 496 OFFCURVE",
"493 478 CURVE SMOOTH",
"417 425 OFFCURVE",
"407 288 OFFCURVE",
"407 203 CURVE SMOOTH",
"407 160 OFFCURVE",
"409 117 OFFCURVE",
"411 74 CURVE",
"429 52 OFFCURVE",
"450 32 OFFCURVE",
"474 17 CURVE",
"471 67 OFFCURVE",
"473 116 OFFCURVE",
"473 166 CURVE SMOOTH",
"473 213 OFFCURVE",
"473 261 OFFCURVE",
"463 307 CURVE SMOOTH",
"446 385 OFFCURVE",
"398 458 OFFCURVE",
"321 487 CURVE SMOOTH",
"289 499 OFFCURVE",
"253 502 OFFCURVE",
"219 502 CURVE SMOOTH",
"81 502 OFFCURVE",
"17 365 OFFCURVE",
"17 244 CURVE SMOOTH",
"17 140 OFFCURVE",
"88 2 OFFCURVE",
"206 2 CURVE SMOOTH",
"260 2 OFFCURVE",
"312 24 OFFCURVE",
"312 86 CURVE SMOOTH",
"312 160 OFFCURVE",
"232 262 OFFCURVE",
"154 262 CURVE SMOOTH",
"109 262 OFFCURVE",
"75 229 OFFCURVE",
"51 194 CURVE SMOOTH",
"47 188 OFFCURVE",
"40 180 OFFCURVE",
"40 172 CURVE SMOOTH",
"40 152 OFFCURVE",
"72 104 OFFCURVE",
"93 104 CURVE",
"95 104 OFFCURVE",
"99 104 OFFCURVE",
"100 105 CURVE",
"106 111 OFFCURVE",
"109 119 OFFCURVE",
"114 126 CURVE SMOOTH",
"132 152 OFFCURVE",
"163 181 OFFCURVE",
"197 181 CURVE SMOOTH"
);
}
);
width = 1202;
}
);
leftKerningGroup = general;
rightKerningGroup = general;
},
{
glyphname = N_A_Q;
layers = (
{
guideLines = (
{
angle = 90;
position = "{1358, 0}";
}
);
layerId = "AD4F0B22-3094-4AE6-A818-B3E1049B6D0D";
paths = (
{
closed = 1;
nodes = (
"222 181 OFFCURVE",
"248 172 OFFCURVE",
"248 143 CURVE SMOOTH",
"248 99 OFFCURVE",
"201 83 OFFCURVE",
"164 83 CURVE SMOOTH",
"142 83 OFFCURVE",
"117 88 OFFCURVE",
"100 104 CURVE SMOOTH",
"87 116 OFFCURVE",
"81 170 OFFCURVE",
"81 188 CURVE SMOOTH",
"81 293 OFFCURVE",
"140 422 OFFCURVE",
"261 422 CURVE SMOOTH",
"296 422 OFFCURVE",
"354 416 OFFCURVE",
"381 393 CURVE SMOOTH",
"418 361 OFFCURVE",
"409 195 OFFCURVE",
"409 146 CURVE SMOOTH",
"409 97 OFFCURVE",
"402 49 OFFCURVE",
"441 13 CURVE SMOOTH",
"446 9 OFFCURVE",
"457 0 OFFCURVE",
"464 0 CURVE SMOOTH",
"472 0 OFFCURVE",
"475 4 OFFCURVE",
"475 12 CURVE SMOOTH",
"475 28 OFFCURVE",
"473 43 OFFCURVE",
"472 59 CURVE SMOOTH",
"471 88 OFFCURVE",
"471 117 OFFCURVE",
"471 146 CURVE SMOOTH",
"471 251 OFFCURVE",
"483 422 OFFCURVE",
"624 422 CURVE SMOOTH",
"649 422 OFFCURVE",
"675 417 OFFCURVE",
"697 404 CURVE SMOOTH",
"748 372 OFFCURVE",
"753 205 OFFCURVE",
"753 148 CURVE SMOOTH",
"753 123 OFFCURVE",
"752 98 OFFCURVE",
"751 73 CURVE",
"769 51 OFFCURVE",
"791 31 OFFCURVE",
"815 17 CURVE",
"814 70 LINE",
"814 150 OFFCURVE",
"815 420 OFFCURVE",
"933 420 CURVE SMOOTH",
"948 420 OFFCURVE",
"1004 419 OFFCURVE",
"1014 411 CURVE",
"1018 391 LINE",
"1007 391 OFFCURVE",
"996 387 OFFCURVE",
"986 383 CURVE SMOOTH",
"928 357 OFFCURVE",
"895 274 OFFCURVE",
"895 214 CURVE SMOOTH",
"895 103 OFFCURVE",
"973 0 OFFCURVE",
"1090 0 CURVE SMOOTH",
"1188 0 OFFCURVE",
"1260 72 OFFCURVE",
"1260 170 CURVE SMOOTH",
"1260 251 OFFCURVE",
"1208 333 OFFCURVE",
"1136 369 CURVE SMOOTH",
"1104 385 OFFCURVE",
"1070 391 OFFCURVE",
"1034 391 CURVE SMOOTH",
"1025 391 OFFCURVE",
"1020 388 OFFCURVE",
"1020 378 CURVE SMOOTH",
"1020 355 OFFCURVE",
"1047 320 OFFCURVE",
"1068 311 CURVE SMOOTH",
"1073 309 OFFCURVE",
"1079 310 OFFCURVE",
"1084 310 CURVE SMOOTH",
"1111 310 OFFCURVE",
"1149 304 OFFCURVE",
"1172 288 CURVE SMOOTH",
"1194 272 OFFCURVE",
"1196 252 OFFCURVE",
"1196 226 CURVE SMOOTH",
"1196 145 OFFCURVE",
"1128 80 OFFCURVE",
"1048 80 CURVE SMOOTH",
"1025 80 OFFCURVE",
"989 85 OFFCURVE",
"971 101 CURVE SMOOTH",
"959 111 OFFCURVE",
"959 142 OFFCURVE",
"959 157 CURVE SMOOTH",
"959 206 OFFCURVE",
"993 289 OFFCURVE",
"1043 305 CURVE SMOOTH",
"1062 311 OFFCURVE",
"1084 304 OFFCURVE",
"1084 322 CURVE SMOOTH",
"1084 330 OFFCURVE",
"1081 339 OFFCURVE",
"1080 347 CURVE SMOOTH",
"1070 404 OFFCURVE",
"1044 465 OFFCURVE",
"987 488 CURVE SMOOTH",
"956 501 OFFCURVE",
"922 500 OFFCURVE",
"889 500 CURVE SMOOTH",
"854 500 OFFCURVE",
"828 484 OFFCURVE",
"808 455 CURVE SMOOTH",
"752 374 OFFCURVE",
"751 189 OFFCURVE",
"751 90 CURVE SMOOTH",
"751 57 OFFCURVE",
"756 37 OFFCURVE",
"781 13 CURVE SMOOTH",
"786 9 OFFCURVE",
"797 0 OFFCURVE",
"804 0 CURVE SMOOTH",
"808 0 OFFCURVE",
"811 0 OFFCURVE",
"813 3 CURVE SMOOTH",
"816 9 OFFCURVE",
"816 79 OFFCURVE",
"816 91 CURVE SMOOTH",
"816 213 OFFCURVE",
"805 353 OFFCURVE",
"716 445 CURVE SMOOTH",
"680 483 OFFCURVE",
"634 502 OFFCURVE",
"582 502 CURVE SMOOTH",
"551 502 OFFCURVE",
"519 496 OFFCURVE",
"493 478 CURVE SMOOTH",
"417 425 OFFCURVE",
"407 288 OFFCURVE",
"407 203 CURVE SMOOTH",
"407 160 OFFCURVE",
"409 117 OFFCURVE",
"411 74 CURVE",
"429 52 OFFCURVE",
"450 32 OFFCURVE",
"474 17 CURVE",
"471 67 OFFCURVE",
"473 116 OFFCURVE",
"473 166 CURVE SMOOTH",
"473 213 OFFCURVE",
"473 261 OFFCURVE",
"463 307 CURVE SMOOTH",
"446 384 OFFCURVE",
"398 458 OFFCURVE",
"321 487 CURVE SMOOTH",
"289 499 OFFCURVE",
"253 502 OFFCURVE",
"219 502 CURVE SMOOTH",
"81 502 OFFCURVE",
"17 365 OFFCURVE",
"17 244 CURVE SMOOTH",
"17 140 OFFCURVE",
"88 2 OFFCURVE",
"206 2 CURVE SMOOTH",
"260 2 OFFCURVE",
"312 24 OFFCURVE",
"312 86 CURVE SMOOTH",
"312 160 OFFCURVE",
"232 262 OFFCURVE",
"154 262 CURVE SMOOTH",
"109 262 OFFCURVE",
"75 229 OFFCURVE",
"51 194 CURVE SMOOTH",
"47 188 OFFCURVE",
"40 180 OFFCURVE",
"40 172 CURVE SMOOTH",
"40 152 OFFCURVE",
"72 104 OFFCURVE",
"93 104 CURVE",
"95 104 OFFCURVE",
"99 104 OFFCURVE",
"100 105 CURVE",
"106 111 OFFCURVE",
"109 119 OFFCURVE",
"114 126 CURVE SMOOTH",
"132 152 OFFCURVE",
"163 181 OFFCURVE",
"197 181 CURVE SMOOTH"
);
},
{
closed = 1;
nodes = (
"1053 173 OFFCURVE",
"1064 160 OFFCURVE",
"1082 160 CURVE SMOOTH",
"1097 160 OFFCURVE",
"1108 173 OFFCURVE",
"1108 188 CURVE SMOOTH",
"1108 204 OFFCURVE",
"1097 217 OFFCURVE",
"1082 217 CURVE SMOOTH",
"1064 217 OFFCURVE",
"1053 204 OFFCURVE",
"1053 188 CURVE SMOOTH"
);
}
);
width = 1277;
}
);
leftKerningGroup = general;
rightKerningGroup = general;
},
{
glyphname = N_A_w;
layers = (
{
guideLines = (
{
angle = 90;
position = "{2287, 0}";
}
);
layerId = "AD4F0B22-3094-4AE6-A818-B3E1049B6D0D";
paths = (
{
closed = 1;
nodes = (
"1003 419 OFFCURVE",
"1021 415 OFFCURVE",
"1033 406 CURVE",
"1033 404 OFFCURVE",
"1034 402 OFFCURVE",
"1034 400 CURVE",
"1034 318 OFFCURVE",
"935 210 OFFCURVE",
"935 130 CURVE SMOOTH",
"935 105 OFFCURVE",
"943 84 OFFCURVE",
"956 63 CURVE SMOOTH",
"989 12 OFFCURVE",
"1032 -1 OFFCURVE",
"1091 -1 CURVE SMOOTH",
"1239 -1 OFFCURVE",
"1287 130 OFFCURVE",
"1287 257 CURVE SMOOTH",
"1287 297 OFFCURVE",
"1279 335 OFFCURVE",
"1272 374 CURVE SMOOTH",
"1269 389 OFFCURVE",
"1268 404 OFFCURVE",
"1264 419 CURVE SMOOTH",
"1259 436 OFFCURVE",
"1232 476 OFFCURVE",
"1213 476 CURVE SMOOTH",
"1205 476 OFFCURVE",
"1202 472 OFFCURVE",
"1202 464 CURVE SMOOTH",
"1202 448 OFFCURVE",
"1207 433 OFFCURVE",
"1210 417 CURVE SMOOTH",
"1217 383 OFFCURVE",
"1224 348 OFFCURVE",
"1224 313 CURVE SMOOTH",
"1224 202 OFFCURVE",
"1180 79 OFFCURVE",
"1049 79 CURVE SMOOTH",
"1033 79 OFFCURVE",
"1016 81 OFFCURVE",
"1000 84 CURVE",
"1018 170 OFFCURVE",
"1097 255 OFFCURVE",
"1097 343 CURVE SMOOTH",
"1097 415 OFFCURVE",
"1019 500 OFFCURVE",
"946 500 CURVE SMOOTH",
"930 500 OFFCURVE",
"880 495 OFFCURVE",
"880 474 CURVE SMOOTH",
"880 454 OFFCURVE",
"912 406 OFFCURVE",
"933 406 CURVE SMOOTH",
"947 406 OFFCURVE",
"967 419 OFFCURVE",
"988 419 CURVE SMOOTH"
);
},
{
closed = 1;
nodes = (
"1224 190 OFFCURVE",
"1232 100 OFFCURVE",
"1304 34 CURVE SMOOTH",
"1323 16 OFFCURVE",
"1352 2 OFFCURVE",
"1379 2 CURVE SMOOTH",
"1409 2 OFFCURVE",
"1445 7 OFFCURVE",
"1470 24 CURVE SMOOTH",
"1530 63 OFFCURVE",
"1550 159 OFFCURVE",
"1550 226 CURVE SMOOTH",
"1550 321 OFFCURVE",
"1516 413 OFFCURVE",
"1447 479 CURVE SMOOTH",
"1440 485 OFFCURVE",
"1419 503 OFFCURVE",
"1410 503 CURVE SMOOTH",
"1402 503 OFFCURVE",
"1399 499 OFFCURVE",
"1399 491 CURVE SMOOTH",
"1399 472 OFFCURVE",
"1417 446 OFFCURVE",
"1431 434 CURVE SMOOTH",
"1440 426 OFFCURVE",
"1450 419 OFFCURVE",
"1457 408 CURVE SMOOTH",
"1479 376 OFFCURVE",
"1486 321 OFFCURVE",
"1486 283 CURVE SMOOTH",
"1486 248 OFFCURVE",
"1481 202 OFFCURVE",
"1466 170 CURVE SMOOTH",
"1439 110 OFFCURVE",
"1404 83 OFFCURVE",
"1337 83 CURVE SMOOTH",
"1330 83 OFFCURVE",
"1308 87 OFFCURVE",
"1304 92 CURVE SMOOTH",
"1291 108 OFFCURVE",
"1288 186 OFFCURVE",
"1288 210 CURVE SMOOTH",
"1288 219 OFFCURVE",
"1289 228 OFFCURVE",
"1286 237 CURVE SMOOTH",
"1281 254 OFFCURVE",
"1254 294 OFFCURVE",
"1235 294 CURVE SMOOTH",
"1227 294 OFFCURVE",
"1224 290 OFFCURVE",
"1224 282 CURVE SMOOTH"
);
},
{
closed = 1;
nodes = (
"216 181 OFFCURVE",
"232 176 OFFCURVE",
"245 162 CURVE",
"244 162 LINE",
"244 162 LINE",
"247 156 OFFCURVE",
"248 150 OFFCURVE",
"248 143 CURVE SMOOTH",
"248 99 OFFCURVE",
"201 83 OFFCURVE",
"164 83 CURVE SMOOTH",
"142 83 OFFCURVE",
"116 88 OFFCURVE",
"100 104 CURVE SMOOTH",
"87 117 OFFCURVE",
"81 170 OFFCURVE",
"81 188 CURVE SMOOTH",
"81 293 OFFCURVE",
"140 422 OFFCURVE",
"261 422 CURVE SMOOTH",
"296 422 OFFCURVE",
"354 416 OFFCURVE",
"381 393 CURVE SMOOTH",
"418 361 OFFCURVE",
"409 195 OFFCURVE",
"409 146 CURVE SMOOTH",
"409 127 OFFCURVE",
"408 73 OFFCURVE",
"413 57 CURVE SMOOTH",
"418 41 OFFCURVE",
"429 24 OFFCURVE",
"441 13 CURVE SMOOTH",
"446 9 OFFCURVE",
"457 0 OFFCURVE",
"464 0 CURVE SMOOTH",
"472 0 OFFCURVE",
"475 4 OFFCURVE",
"475 12 CURVE SMOOTH",
"475 28 OFFCURVE",
"473 43 OFFCURVE",
"472 59 CURVE SMOOTH",
"471 88 OFFCURVE",
"471 117 OFFCURVE",
"471 146 CURVE SMOOTH",
"471 251 OFFCURVE",
"483 422 OFFCURVE",
"624 422 CURVE SMOOTH",
"649 422 OFFCURVE",
"675 417 OFFCURVE",
"697 404 CURVE SMOOTH",
"748 372 OFFCURVE",
"753 205 OFFCURVE",
"753 148 CURVE SMOOTH",
"753 123 OFFCURVE",
"752 98 OFFCURVE",
"751 73 CURVE",
"768 52 OFFCURVE",
"791 31 OFFCURVE",
"815 17 CURVE",
"815 34 LINE",
"815 131 OFFCURVE",
"831 256 OFFCURVE",
"879 341 CURVE SMOOTH",
"895 368 OFFCURVE",
"919 400 OFFCURVE",
"949 412 CURVE SMOOTH",
"966 419 OFFCURVE",
"993 414 OFFCURVE",
"993 432 CURVE SMOOTH",
"993 452 OFFCURVE",
"961 500 OFFCURVE",
"940 500 CURVE SMOOTH",
"906 500 OFFCURVE",
"877 485 OFFCURVE",
"854 461 CURVE SMOOTH",
"770 374 OFFCURVE",
"751 193 OFFCURVE",
"751 76 CURVE SMOOTH",
"751 69 OFFCURVE",
"751 63 OFFCURVE",
"753 57 CURVE SMOOTH",
"758 40 OFFCURVE",
"785 0 OFFCURVE",
"804 0 CURVE SMOOTH",
"808 0 OFFCURVE",
"811 0 OFFCURVE",
"813 3 CURVE SMOOTH",
"816 9 OFFCURVE",
"816 79 OFFCURVE",
"816 91 CURVE SMOOTH",
"816 212 OFFCURVE",
"805 353 OFFCURVE",
"716 445 CURVE SMOOTH",
"680 483 OFFCURVE",
"634 502 OFFCURVE",
"582 502 CURVE SMOOTH",
"551 502 OFFCURVE",
"519 496 OFFCURVE",
"493 478 CURVE SMOOTH",
"417 425 OFFCURVE",
"407 288 OFFCURVE",
"407 203 CURVE SMOOTH",
"407 160 OFFCURVE",
"409 117 OFFCURVE",
"411 74 CURVE",
"429 52 OFFCURVE",
"450 32 OFFCURVE",
"474 17 CURVE",
"471 67 OFFCURVE",
"473 116 OFFCURVE",
"473 166 CURVE SMOOTH",
"473 213 OFFCURVE",
"473 261 OFFCURVE",
"463 307 CURVE SMOOTH",
"446 384 OFFCURVE",
"398 459 OFFCURVE",
"321 487 CURVE SMOOTH",
"289 499 OFFCURVE",
"253 502 OFFCURVE",
"219 502 CURVE SMOOTH",
"81 502 OFFCURVE",
"17 365 OFFCURVE",
"17 244 CURVE SMOOTH",
"17 140 OFFCURVE",
"88 2 OFFCURVE",
"206 2 CURVE SMOOTH",
"260 2 OFFCURVE",
"312 24 OFFCURVE",
"312 86 CURVE SMOOTH",
"312 160 OFFCURVE",
"232 262 OFFCURVE",
"154 262 CURVE SMOOTH",
"109 262 OFFCURVE",
"75 229 OFFCURVE",
"51 194 CURVE SMOOTH",
"47 188 OFFCURVE",
"40 180 OFFCURVE",
"40 172 CURVE SMOOTH",
"40 152 OFFCURVE",
"72 104 OFFCURVE",
"93 104 CURVE",
"95 104 OFFCURVE",
"99 104 OFFCURVE",
"100 105 CURVE",
"106 111 OFFCURVE",
"109 119 OFFCURVE",
"114 126 CURVE SMOOTH",
"132 152 OFFCURVE",
"163 181 OFFCURVE",
"197 181 CURVE SMOOTH"
);
}
);
width = 1567;
}
);
leftKerningGroup = general;
rightKerningGroup = general;
},
{
glyphname = N_A_W;
layers = (
{
guideLines = (
{
angle = 90;
position = "{2287, 0}";
}
);
layerId = "AD4F0B22-3094-4AE6-A818-B3E1049B6D0D";
paths = (
{
closed = 1;
nodes = (
"1004 419 OFFCURVE",
"1021 415 OFFCURVE",
"1033 406 CURVE",
"1033 404 OFFCURVE",
"1034 402 OFFCURVE",
"1034 400 CURVE",
"1034 318 OFFCURVE",
"935 210 OFFCURVE",
"935 130 CURVE SMOOTH",
"935 105 OFFCURVE",
"943 83 OFFCURVE",
"956 63 CURVE SMOOTH",
"990 12 OFFCURVE",
"1032 -1 OFFCURVE",
"1091 -1 CURVE SMOOTH",
"1239 -1 OFFCURVE",
"1287 130 OFFCURVE",
"1287 257 CURVE SMOOTH",
"1287 297 OFFCURVE",
"1285 331 OFFCURVE",
"1254 360 CURVE SMOOTH",
"1249 364 OFFCURVE",
"1238 373 OFFCURVE",
"1231 373 CURVE SMOOTH",
"1223 373 OFFCURVE",
"1220 369 OFFCURVE",
"1220 361 CURVE SMOOTH",
"1220 247 OFFCURVE",
"1233 93 OFFCURVE",
"1337 23 CURVE SMOOTH",
"1359 8 OFFCURVE",
"1387 -2 OFFCURVE",
"1413 -2 CURVE SMOOTH",
"1537 -2 OFFCURVE",
"1616 160 OFFCURVE",
"1616 268 CURVE SMOOTH",
"1616 297 OFFCURVE",
"1612 326 OFFCURVE",
"1603 353 CURVE SMOOTH",
"1586 404 OFFCURVE",
"1527 500 OFFCURVE",
"1466 500 CURVE SMOOTH",
"1400 500 OFFCURVE",
"1364 421 OFFCURVE",
"1364 364 CURVE SMOOTH",
"1364 282 OFFCURVE",
"1448 212 OFFCURVE",
"1527 212 CURVE SMOOTH",
"1558 212 OFFCURVE",
"1585 218 OFFCURVE",
"1605 244 CURVE SMOOTH",
"1609 249 OFFCURVE",
"1613 256 OFFCURVE",
"1613 263 CURVE SMOOTH",
"1613 283 OFFCURVE",
"1581 331 OFFCURVE",
"1560 331 CURVE SMOOTH",
"1543 331 OFFCURVE",
"1546 293 OFFCURVE",
"1486 293 CURVE SMOOTH",
"1467 293 OFFCURVE",
"1445 298 OFFCURVE",
"1428 307 CURVE",
"1428 308 LINE",
"1428 350 OFFCURVE",
"1459 419 OFFCURVE",
"1508 419 CURVE SMOOTH",
"1547 419 OFFCURVE",
"1553 353 OFFCURVE",
"1553 325 CURVE SMOOTH",
"1553 245 OFFCURVE",
"1508 150 OFFCURVE",
"1442 104 CURVE SMOOTH",
"1421 90 OFFCURVE",
"1396 78 OFFCURVE",
"1371 78 CURVE SMOOTH",
"1354 78 OFFCURVE",
"1328 85 OFFCURVE",
"1316 97 CURVE SMOOTH",
"1312 101 OFFCURVE",
"1310 107 OFFCURVE",
"1308 112 CURVE SMOOTH",
"1287 171 OFFCURVE",
"1285 238 OFFCURVE",
"1284 300 CURVE",
"1266 320 OFFCURVE",
"1244 338 OFFCURVE",
"1221 351 CURVE",
"1222 338 OFFCURVE",
"1224 326 OFFCURVE",
"1224 313 CURVE SMOOTH",
"1224 202 OFFCURVE",
"1180 79 OFFCURVE",
"1049 79 CURVE SMOOTH",
"1033 79 OFFCURVE",
"1016 81 OFFCURVE",
"1000 84 CURVE",
"1018 170 OFFCURVE",
"1097 255 OFFCURVE",
"1097 343 CURVE SMOOTH",
"1097 414 OFFCURVE",
"1020 500 OFFCURVE",
"947 500 CURVE SMOOTH",
"931 500 OFFCURVE",
"880 495 OFFCURVE",
"880 474 CURVE SMOOTH",
"880 454 OFFCURVE",
"912 406 OFFCURVE",
"933 406 CURVE SMOOTH",
"947 406 OFFCURVE",
"968 419 OFFCURVE",
"989 419 CURVE SMOOTH"
);
},
{
closed = 1;
nodes = (
"216 181 OFFCURVE",
"232 176 OFFCURVE",
"245 162 CURVE",
"244 162 LINE",
"244 162 LINE",
"247 156 OFFCURVE",
"248 150 OFFCURVE",
"248 143 CURVE SMOOTH",
"248 99 OFFCURVE",
"201 83 OFFCURVE",
"164 83 CURVE SMOOTH",
"142 83 OFFCURVE",
"116 88 OFFCURVE",
"100 104 CURVE SMOOTH",
"87 117 OFFCURVE",
"81 170 OFFCURVE",
"81 188 CURVE SMOOTH",
"81 293 OFFCURVE",
"140 422 OFFCURVE",
"261 422 CURVE SMOOTH",
"296 422 OFFCURVE",
"354 416 OFFCURVE",
"381 393 CURVE SMOOTH",
"418 361 OFFCURVE",
"409 195 OFFCURVE",
"409 146 CURVE SMOOTH",
"409 127 OFFCURVE",
"408 73 OFFCURVE",
"413 57 CURVE SMOOTH",
"418 41 OFFCURVE",
"429 24 OFFCURVE",
"441 13 CURVE SMOOTH",
"446 9 OFFCURVE",
"457 0 OFFCURVE",
"464 0 CURVE SMOOTH",
"472 0 OFFCURVE",
"475 4 OFFCURVE",
"475 12 CURVE SMOOTH",
"475 28 OFFCURVE",
"473 43 OFFCURVE",
"472 59 CURVE SMOOTH",
"471 88 OFFCURVE",
"471 117 OFFCURVE",
"471 146 CURVE SMOOTH",
"471 251 OFFCURVE",
"483 422 OFFCURVE",
"624 422 CURVE SMOOTH",
"649 422 OFFCURVE",
"675 417 OFFCURVE",
"697 404 CURVE SMOOTH",
"748 372 OFFCURVE",
"753 205 OFFCURVE",
"753 148 CURVE SMOOTH",
"753 123 OFFCURVE",
"752 98 OFFCURVE",
"751 73 CURVE",
"768 52 OFFCURVE",
"791 31 OFFCURVE",
"815 17 CURVE",
"815 34 LINE",
"815 131 OFFCURVE",
"831 256 OFFCURVE",
"879 341 CURVE SMOOTH",
"895 368 OFFCURVE",
"919 400 OFFCURVE",
"949 412 CURVE SMOOTH",
"966 419 OFFCURVE",
"993 414 OFFCURVE",
"993 432 CURVE SMOOTH",
"993 452 OFFCURVE",
"961 500 OFFCURVE",
"940 500 CURVE SMOOTH",
"906 500 OFFCURVE",
"877 485 OFFCURVE",
"854 461 CURVE SMOOTH",
"770 374 OFFCURVE",
"751 193 OFFCURVE",
"751 76 CURVE SMOOTH",
"751 69 OFFCURVE",
"751 63 OFFCURVE",
"753 57 CURVE SMOOTH",
"758 40 OFFCURVE",
"785 0 OFFCURVE",
"804 0 CURVE SMOOTH",
"808 0 OFFCURVE",
"811 0 OFFCURVE",
"813 3 CURVE SMOOTH",
"816 9 OFFCURVE",
"816 79 OFFCURVE",
"816 91 CURVE SMOOTH",
"816 212 OFFCURVE",
"805 353 OFFCURVE",
"716 445 CURVE SMOOTH",
"680 483 OFFCURVE",
"634 502 OFFCURVE",
"582 502 CURVE SMOOTH",
"551 502 OFFCURVE",
"519 496 OFFCURVE",
"493 478 CURVE SMOOTH",
"417 425 OFFCURVE",
"407 288 OFFCURVE",
"407 203 CURVE SMOOTH",
"407 160 OFFCURVE",
"409 117 OFFCURVE",
"411 74 CURVE",
"429 52 OFFCURVE",
"450 32 OFFCURVE",
"474 17 CURVE",
"471 67 OFFCURVE",
"473 116 OFFCURVE",
"473 166 CURVE SMOOTH",
"473 213 OFFCURVE",
"473 261 OFFCURVE",
"463 307 CURVE SMOOTH",
"446 384 OFFCURVE",
"398 459 OFFCURVE",
"321 487 CURVE SMOOTH",
"289 499 OFFCURVE",
"253 502 OFFCURVE",
"219 502 CURVE SMOOTH",
"81 502 OFFCURVE",
"17 365 OFFCURVE",
"17 244 CURVE SMOOTH",
"17 140 OFFCURVE",
"88 2 OFFCURVE",
"206 2 CURVE SMOOTH",
"260 2 OFFCURVE",
"312 24 OFFCURVE",
"312 86 CURVE SMOOTH",
"312 160 OFFCURVE",
"232 262 OFFCURVE",
"154 262 CURVE SMOOTH",
"109 262 OFFCURVE",
"75 229 OFFCURVE",
"51 194 CURVE SMOOTH",
"47 188 OFFCURVE",
"40 180 OFFCURVE",
"40 172 CURVE SMOOTH",
"40 152 OFFCURVE",
"72 104 OFFCURVE",
"93 104 CURVE",
"95 104 OFFCURVE",
"99 104 OFFCURVE",
"100 105 CURVE",
"106 111 OFFCURVE",
"109 119 OFFCURVE",
"114 126 CURVE SMOOTH",
"132 152 OFFCURVE",
"163 181 OFFCURVE",
"197 181 CURVE SMOOTH"
);
}
);
width = 1633;
}
);
leftKerningGroup = general;
rightKerningGroup = general;
},
{
glyphname = n_A_t;
layers = (
{
guideLines = (
{
angle = 90;
position = "{1000, 0}";
}
);
layerId = "AD4F0B22-3094-4AE6-A818-B3E1049B6D0D";
paths = (
{
closed = 1;
nodes = (
"80 323 OFFCURVE",
"103 416 OFFCURVE",
"208 416 CURVE SMOOTH",
"238 416 OFFCURVE",
"267 409 OFFCURVE",
"283 381 CURVE SMOOTH",
"317 321 OFFCURVE",
"327 211 OFFCURVE",
"329 142 CURVE SMOOTH",
"330 122 OFFCURVE",
"327 75 OFFCURVE",
"332 58 CURVE SMOOTH",
"337 41 OFFCURVE",
"364 1 OFFCURVE",
"383 1 CURVE SMOOTH",
"386 1 OFFCURVE",
"390 1 OFFCURVE",
"392 4 CURVE SMOOTH",
"395 10 OFFCURVE",
"394 49 OFFCURVE",
"394 59 CURVE SMOOTH",
"394 130 OFFCURVE",
"400 205 OFFCURVE",
"424 273 CURVE SMOOTH",
"442 323 OFFCURVE",
"475 368 OFFCURVE",
"522 394 CURVE SMOOTH",
"535 401 OFFCURVE",
"550 407 OFFCURVE",
"565 411 CURVE SMOOTH",
"571 413 OFFCURVE",
"601 419 OFFCURVE",
"604 421 CURVE SMOOTH",
"607 423 OFFCURVE",
"608 429 OFFCURVE",
"608 432 CURVE SMOOTH",
"608 452 OFFCURVE",
"576 500 OFFCURVE",
"555 500 CURVE SMOOTH",
"542 500 OFFCURVE",
"520 493 OFFCURVE",
"507 489 CURVE SMOOTH",
"428 462 OFFCURVE",
"376 400 OFFCURVE",
"355 321 CURVE",
"329 404 OFFCURVE",
"261 497 OFFCURVE",
"165 497 CURVE SMOOTH",
"140 497 OFFCURVE",
"105 491 OFFCURVE",
"84 477 CURVE SMOOTH",
"30 442 OFFCURVE",
"17 352 OFFCURVE",
"17 293 CURVE SMOOTH",
"17 199 OFFCURVE",
"51 90 OFFCURVE",
"118 23 CURVE SMOOTH",
"125 16 OFFCURVE",
"140 1 OFFCURVE",
"150 1 CURVE SMOOTH",
"158 1 OFFCURVE",
"161 5 OFFCURVE",
"161 13 CURVE SMOOTH",
"161 44 OFFCURVE",
"135 58 OFFCURVE",
"120 80 CURVE SMOOTH",
"92 123 OFFCURVE",
"80 186 OFFCURVE",
"80 237 CURVE SMOOTH"
);
},
{
closed = 1;
nodes = (
"1129 376 OFFCURVE",
"1038 498 OFFCURVE",
"905 498 CURVE SMOOTH",
"773 498 OFFCURVE",
"666 370 OFFCURVE",
"624 256 CURVE SMOOTH",
"614 229 OFFCURVE",
"606 198 OFFCURVE",
"606 169 CURVE SMOOTH",
"606 84 OFFCURVE",
"661 -1 OFFCURVE",
"753 -1 CURVE SMOOTH",
"828 -1 OFFCURVE",
"857 68 OFFCURVE",
"857 133 CURVE SMOOTH",
"857 282 OFFCURVE",
"750 502 OFFCURVE",
"579 502 CURVE SMOOTH",
"543 502 OFFCURVE",
"509 491 OFFCURVE",
"477 476 CURVE SMOOTH",
"472 474 OFFCURVE",
"467 472 OFFCURVE",
"463 468 CURVE SMOOTH",
"462 466 OFFCURVE",
"461 461 OFFCURVE",
"461 459 CURVE",
"461 439 OFFCURVE",
"493 391 OFFCURVE",
"514 391 CURVE SMOOTH",
"522 391 OFFCURVE",
"548 404 OFFCURVE",
"557 408 CURVE SMOOTH",
"575 415 OFFCURVE",
"601 421 OFFCURVE",
"620 421 CURVE SMOOTH",
"672 421 OFFCURVE",
"715 403 OFFCURVE",
"745 360 CURVE SMOOTH",
"779 311 OFFCURVE",
"794 249 OFFCURVE",
"794 190 CURVE SMOOTH",
"794 140 OFFCURVE",
"770 80 OFFCURVE",
"712 80 CURVE SMOOTH",
"698 80 OFFCURVE",
"684 82 OFFCURVE",
"671 87 CURVE",
"670 92 OFFCURVE",
"669 96 OFFCURVE",
"669 101 CURVE SMOOTH",
"669 232 OFFCURVE",
"809 418 OFFCURVE",
"947 418 CURVE SMOOTH",
"975 418 OFFCURVE",
"1009 412 OFFCURVE",
"1033 397 CURVE SMOOTH",
"1060 380 OFFCURVE",
"1065 335 OFFCURVE",
"1065 306 CURVE SMOOTH",
"1065 239 OFFCURVE",
"1051 169 OFFCURVE",
"1017 110 CURVE SMOOTH",
"1011 100 OFFCURVE",
"1005 89 OFFCURVE",
"997 81 CURVE SMOOTH",
"989 73 OFFCURVE",
"979 72 OFFCURVE",
"979 59 CURVE SMOOTH",
"979 39 OFFCURVE",
"1011 -9 OFFCURVE",
"1032 -9 CURVE SMOOTH",
"1043 -9 OFFCURVE",
"1053 4 OFFCURVE",
"1059 11 CURVE SMOOTH",
"1108 70 OFFCURVE",
"1129 175 OFFCURVE",
"1129 250 CURVE SMOOTH"
);
}
);
width = 1146;
}
);
leftKerningGroup = general;
rightKerningGroup = general;
},
{
glyphname = n_A_d;
layers = (
{
guideLines = (
{
angle = 90;
position = "{1023, 0}";
}
);
layerId = "AD4F0B22-3094-4AE6-A818-B3E1049B6D0D";
paths = (
{
closed = 1;
nodes = (
"80 323 OFFCURVE",
"103 416 OFFCURVE",
"208 416 CURVE SMOOTH",
"238 416 OFFCURVE",
"267 409 OFFCURVE",
"283 381 CURVE SMOOTH",
"317 322 OFFCURVE",
"327 210 OFFCURVE",
"329 142 CURVE SMOOTH",
"330 122 OFFCURVE",
"327 75 OFFCURVE",
"332 58 CURVE SMOOTH",
"337 41 OFFCURVE",
"364 1 OFFCURVE",
"383 1 CURVE SMOOTH",
"387 1 OFFCURVE",
"390 1 OFFCURVE",
"392 4 CURVE SMOOTH",
"394 8 OFFCURVE",
"396 102 OFFCURVE",
"397 116 CURVE SMOOTH",
"405 199 OFFCURVE",
"423 293 OFFCURVE",
"485 354 CURVE SMOOTH",
"510 379 OFFCURVE",
"545 400 OFFCURVE",
"579 409 CURVE SMOOTH",
"591 412 OFFCURVE",
"606 413 OFFCURVE",
"617 418 CURVE SMOOTH",
"621 420 OFFCURVE",
"622 425 OFFCURVE",
"622 429 CURVE SMOOTH",
"622 449 OFFCURVE",
"590 497 OFFCURVE",
"569 497 CURVE SMOOTH",
"555 497 OFFCURVE",
"532 491 OFFCURVE",
"518 486 CURVE SMOOTH",
"432 457 OFFCURVE",
"387 395 OFFCURVE",
"359 311 CURVE",
"330 398 OFFCURVE",
"268 497 OFFCURVE",
"165 497 CURVE SMOOTH",
"140 497 OFFCURVE",
"105 491 OFFCURVE",
"84 477 CURVE SMOOTH",
"30 442 OFFCURVE",
"17 352 OFFCURVE",
"17 293 CURVE SMOOTH",
"17 200 OFFCURVE",
"51 90 OFFCURVE",
"118 23 CURVE SMOOTH",
"125 16 OFFCURVE",
"140 1 OFFCURVE",
"150 1 CURVE SMOOTH",
"158 1 OFFCURVE",
"161 5 OFFCURVE",
"161 13 CURVE SMOOTH",
"161 44 OFFCURVE",
"135 58 OFFCURVE",
"120 80 CURVE SMOOTH",
"92 123 OFFCURVE",
"80 186 OFFCURVE",
"80 237 CURVE SMOOTH"
);
},
{
closed = 1;
nodes = (
"716 418 OFFCURVE",
"780 409 OFFCURVE",
"820 390 CURVE",
"807 332 OFFCURVE",
"685 282 OFFCURVE",
"631 282 CURVE",
"642 253 OFFCURVE",
"662 225 OFFCURVE",
"682 202 CURVE",
"724 210 OFFCURVE",
"766 218 OFFCURVE",
"809 218 CURVE SMOOTH",
"820 218 OFFCURVE",
"830 216 OFFCURVE",
"841 214 CURVE",
"842 214 LINE",
"842 213 LINE",
"840 195 OFFCURVE",
"837 177 OFFCURVE",
"827 162 CURVE SMOOTH",
"790 102 OFFCURVE",
"682 82 OFFCURVE",
"617 82 CURVE SMOOTH",
"598 82 OFFCURVE",
"567 84 OFFCURVE",
"550 92 CURVE",
"550 93 LINE",
"550 112 OFFCURVE",
"519 161 OFFCURVE",
"497 161 CURVE SMOOTH",
"484 161 OFFCURVE",
"485 147 OFFCURVE",
"485 138 CURVE SMOOTH",
"485 118 OFFCURVE",
"492 100 OFFCURVE",
"502 83 CURVE SMOOTH",
"535 25 OFFCURVE",
"594 1 OFFCURVE",
"658 1 CURVE SMOOTH",
"732 1 OFFCURVE",
"844 22 OFFCURVE",
"886 89 CURVE SMOOTH",
"901 112 OFFCURVE",
"906 141 OFFCURVE",
"906 168 CURVE SMOOTH",
"906 187 OFFCURVE",
"898 206 OFFCURVE",
"889 223 CURVE SMOOTH",
"863 270 OFFCURVE",
"823 299 OFFCURVE",
"768 299 CURVE SMOOTH",
"753 299 OFFCURVE",
"738 298 OFFCURVE",
"723 297 CURVE SMOOTH",
"711 296 OFFCURVE",
"628 284 OFFCURVE",
"624 280 CURVE SMOOTH",
"621 277 OFFCURVE",
"620 273 OFFCURVE",
"620 269 CURVE SMOOTH",
"620 249 OFFCURVE",
"652 201 OFFCURVE",
"673 201 CURVE SMOOTH",
"746 201 OFFCURVE",
"885 260 OFFCURVE",
"885 346 CURVE SMOOTH",
"885 365 OFFCURVE",
"875 386 OFFCURVE",
"865 402 CURVE SMOOTH",
"855 419 OFFCURVE",
"842 435 OFFCURVE",
"826 447 CURVE SMOOTH",
"779 484 OFFCURVE",
"690 499 OFFCURVE",
"631 499 CURVE SMOOTH",
"566 499 OFFCURVE",
"494 491 OFFCURVE",
"443 446 CURVE SMOOTH",
"436 440 OFFCURVE",
"426 432 OFFCURVE",
"426 422 CURVE SMOOTH",
"426 402 OFFCURVE",
"458 354 OFFCURVE",
"479 354 CURVE",
"481 354 OFFCURVE",
"484 354 OFFCURVE",
"486 355 CURVE SMOOTH",
"489 357 OFFCURVE",
"491 361 OFFCURVE",
"494 364 CURVE SMOOTH",
"502 372 OFFCURVE",
"511 379 OFFCURVE",
"521 385 CURVE SMOOTH",
"564 412 OFFCURVE",
"622 418 OFFCURVE",
"672 418 CURVE SMOOTH"
);
}
);
width = 923;
}
);
leftKerningGroup = general;
rightKerningGroup = general;
},
{
glyphname = n_A_D;
layers = (
{
guideLines = (
{
angle = 90;
position = "{1023, 0}";
}
);
layerId = "AD4F0B22-3094-4AE6-A818-B3E1049B6D0D";
paths = (
{
closed = 1;
nodes = (
"80 323 OFFCURVE",
"103 416 OFFCURVE",
"208 416 CURVE SMOOTH",
"238 416 OFFCURVE",
"267 409 OFFCURVE",
"283 381 CURVE SMOOTH",
"317 321 OFFCURVE",
"327 211 OFFCURVE",
"329 142 CURVE SMOOTH",
"330 122 OFFCURVE",
"327 75 OFFCURVE",
"332 58 CURVE SMOOTH",
"337 41 OFFCURVE",
"364 1 OFFCURVE",
"383 1 CURVE SMOOTH",
"389 1 OFFCURVE",
"391 2 OFFCURVE",
"393 8 CURVE SMOOTH",
"396 18 OFFCURVE",
"394 44 OFFCURVE",
"394 55 CURVE SMOOTH",
"394 91 OFFCURVE",
"398 129 OFFCURVE",
"403 165 CURVE SMOOTH",
"419 272 OFFCURVE",
"458 370 OFFCURVE",
"569 406 CURVE SMOOTH",
"589 412 OFFCURVE",
"611 418 OFFCURVE",
"632 418 CURVE SMOOTH",
"638 418 OFFCURVE",
"644 417 OFFCURVE",
"650 416 CURVE",
"651 410 OFFCURVE",
"651 404 OFFCURVE",
"651 398 CURVE SMOOTH",
"651 312 OFFCURVE",
"616 229 OFFCURVE",
"616 143 CURVE SMOOTH",
"616 124 OFFCURVE",
"617 106 OFFCURVE",
"622 88 CURVE SMOOTH",
"636 41 OFFCURVE",
"675 -3 OFFCURVE",
"727 -3 CURVE SMOOTH",
"737 -3 OFFCURVE",
"744 -2 OFFCURVE",
"744 10 CURVE SMOOTH",
"744 33 OFFCURVE",
"717 68 OFFCURVE",
"696 77 CURVE SMOOTH",
"691 79 OFFCURVE",
"686 78 OFFCURVE",
"681 78 CURVE",
"679 78 LINE",
"679 87 LINE",
"679 93 OFFCURVE",
"679 98 OFFCURVE",
"680 104 CURVE SMOOTH",
"688 184 OFFCURVE",
"714 260 OFFCURVE",
"714 341 CURVE SMOOTH",
"714 412 OFFCURVE",
"669 499 OFFCURVE",
"589 499 CURVE SMOOTH",
"566 499 OFFCURVE",
"542 494 OFFCURVE",
"520 487 CURVE SMOOTH",
"432 459 OFFCURVE",
"386 397 OFFCURVE",
"358 312 CURVE",
"329 398 OFFCURVE",
"267 497 OFFCURVE",
"165 497 CURVE SMOOTH",
"140 497 OFFCURVE",
"105 491 OFFCURVE",
"84 477 CURVE SMOOTH",
"30 442 OFFCURVE",
"17 352 OFFCURVE",
"17 293 CURVE SMOOTH",
"17 199 OFFCURVE",
"51 90 OFFCURVE",
"118 23 CURVE SMOOTH",
"125 16 OFFCURVE",
"140 1 OFFCURVE",
"150 1 CURVE SMOOTH",
"158 1 OFFCURVE",
"161 5 OFFCURVE",
"161 13 CURVE SMOOTH",
"161 44 OFFCURVE",
"135 58 OFFCURVE",
"120 80 CURVE SMOOTH",
"92 123 OFFCURVE",
"80 186 OFFCURVE",
"80 237 CURVE SMOOTH"
);
},
{
closed = 1;
nodes = (
"814 -2 OFFCURVE",
"858 57 OFFCURVE",
"888 134 CURVE",
"888 135 LINE",
"923 71 OFFCURVE",
"983 -2 OFFCURVE",
"1063 -2 CURVE SMOOTH",
"1168 -2 OFFCURVE",
"1244 97 OFFCURVE",
"1244 197 CURVE SMOOTH",
"1244 304 OFFCURVE",
"1181 397 OFFCURVE",
"1104 467 CURVE SMOOTH",
"1096 474 OFFCURVE",
"1071 497 OFFCURVE",
"1061 497 CURVE SMOOTH",
"1053 497 OFFCURVE",
"1050 493 OFFCURVE",
"1050 485 CURVE SMOOTH",
"1050 418 OFFCURVE",
"1181 398 OFFCURVE",
"1181 254 CURVE SMOOTH",
"1181 170 OFFCURVE",
"1110 78 OFFCURVE",
"1022 78 CURVE SMOOTH",
"951 78 OFFCURVE",
"928 133 OFFCURVE",
"914 193 CURVE SMOOTH",
"906 228 OFFCURVE",
"903 250 OFFCURVE",
"873 275 CURVE SMOOTH",
"869 278 OFFCURVE",
"861 283 OFFCURVE",
"856 283 CURVE SMOOTH",
"842 283 OFFCURVE",
"842 257 OFFCURVE",
"840 247 CURVE SMOOTH",
"831 207 OFFCURVE",
"814 166 OFFCURVE",
"789 133 CURVE SMOOTH",
"770 108 OFFCURVE",
"740 87 OFFCURVE",
"709 81 CURVE SMOOTH",
"698 79 OFFCURVE",
"671 83 OFFCURVE",
"671 66 CURVE SMOOTH",
"671 46 OFFCURVE",
"703 -2 OFFCURVE",
"724 -2 CURVE SMOOTH"
);
}
);
width = 1261;
}
);
leftKerningGroup = general;
rightKerningGroup = general;
},
{
glyphname = A_y;
layers = (
{
guideLines = (
{
angle = 90;
position = "{413, 0}";
}
);
layerId = "AD4F0B22-3094-4AE6-A818-B3E1049B6D0D";
paths = (
{
closed = 1;
nodes = (
"102 -111 OFFCURVE",
"98 -124 OFFCURVE",
"98 -134 CURVE SMOOTH",
"98 -180 OFFCURVE",
"153 -239 OFFCURVE",
"199 -239 CURVE SMOOTH",
"219 -239 OFFCURVE",
"243 -237 OFFCURVE",
"259 -224 CURVE SMOOTH",
"310 -182 OFFCURVE",
"311 -44 OFFCURVE",
"311 18 CURVE SMOOTH",
"311 132 OFFCURVE",
"302 247 OFFCURVE",
"302 361 CURVE SMOOTH",
"302 373 OFFCURVE",
"303 384 OFFCURVE",
"303 396 CURVE SMOOTH",
"303 416 OFFCURVE",
"271 464 OFFCURVE",
"250 464 CURVE SMOOTH",
"247 464 OFFCURVE",
"243 464 OFFCURVE",
"241 461 CURVE SMOOTH",
"238 455 OFFCURVE",
"238 426 OFFCURVE",
"238 418 CURVE SMOOTH",
"238 312 OFFCURVE",
"248 205 OFFCURVE",
"248 99 CURVE SMOOTH",
"248 42 OFFCURVE",
"256 -148 OFFCURVE",
"177 -156 CURVE",
"183 -144 OFFCURVE",
"188 -132 OFFCURVE",
"188 -118 CURVE SMOOTH",
"188 -70 OFFCURVE",
"130 -18 OFFCURVE",
"83 -18 CURVE SMOOTH",
"75 -18 OFFCURVE",
"68 -18 OFFCURVE",
"61 -20 CURVE SMOOTH",
"51 -22 OFFCURVE",
"19 -39 OFFCURVE",
"13 -47 CURVE SMOOTH",
"11 -49 OFFCURVE",
"11 -53 OFFCURVE",
"11 -56 CURVE SMOOTH",
"11 -76 OFFCURVE",
"43 -124 OFFCURVE",
"64 -124 CURVE SMOOTH",
"74 -124 OFFCURVE",
"94 -106 OFFCURVE",
"107 -102 CURVE"
);
}
);
width = 328;
}
);
},
{
glyphname = h;
layers = (
{
layerId = "AD4F0B22-3094-4AE6-A818-B3E1049B6D0D";
paths = (
{
closed = 1;
nodes = (
"744 255 OFFCURVE",
"740 292 OFFCURVE",
"730 327 CURVE SMOOTH",
"705 415 OFFCURVE",
"637 494 OFFCURVE",
"539 494 CURVE SMOOTH",
"451 494 OFFCURVE",
"437 422 OFFCURVE",
"437 350 CURVE SMOOTH",
"437 299 OFFCURVE",
"443 247 OFFCURVE",
"443 196 CURVE SMOOTH",
"443 140 OFFCURVE",
"434 75 OFFCURVE",
"363 75 CURVE SMOOTH",
"352 75 OFFCURVE",
"341 77 OFFCURVE",
"331 81 CURVE",
"326 95 OFFCURVE",
"325 123 OFFCURVE",
"325 139 CURVE SMOOTH",
"325 190 OFFCURVE",
"331 242 OFFCURVE",
"331 293 CURVE SMOOTH",
"331 319 OFFCURVE",
"329 346 OFFCURVE",
"322 372 CURVE SMOOTH",
"305 434 OFFCURVE",
"256 494 OFFCURVE",
"187 494 CURVE SMOOTH",
"57 494 OFFCURVE",
"24 385 OFFCURVE",
"24 275 CURVE SMOOTH",
"24 208 OFFCURVE",
"34 141 OFFCURVE",
"50 76 CURVE SMOOTH",
"53 65 OFFCURVE",
"55 55 OFFCURVE",
"59 45 CURVE SMOOTH",
"65 30 OFFCURVE",
"75 14 OFFCURVE",
"88 4 CURVE SMOOTH",
"92 1 OFFCURVE",
"102 -5 OFFCURVE",
"107 -5 CURVE SMOOTH",
"115 -5 OFFCURVE",
"118 -1 OFFCURVE",
"118 7 CURVE SMOOTH",
"118 28 OFFCURVE",
"108 50 OFFCURVE",
"104 70 CURVE SMOOTH",
"94 118 OFFCURVE",
"88 169 OFFCURVE",
"88 218 CURVE SMOOTH",
"88 311 OFFCURVE",
"117 414 OFFCURVE",
"229 414 CURVE SMOOTH",
"240 414 OFFCURVE",
"251 412 OFFCURVE",
"261 408 CURVE",
"266 394 OFFCURVE",
"268 366 OFFCURVE",
"268 350 CURVE SMOOTH",
"268 299 OFFCURVE",
"262 247 OFFCURVE",
"262 196 CURVE SMOOTH",
"262 170 OFFCURVE",
"264 143 OFFCURVE",
"271 117 CURVE SMOOTH",
"288 56 OFFCURVE",
"336 -5 OFFCURVE",
"405 -5 CURVE SMOOTH",
"493 -5 OFFCURVE",
"506 67 OFFCURVE",
"506 139 CURVE SMOOTH",
"506 190 OFFCURVE",
"500 242 OFFCURVE",
"500 293 CURVE SMOOTH",
"500 350 OFFCURVE",
"510 414 OFFCURVE",
"581 414 CURVE SMOOTH",
"605 414 OFFCURVE",
"636 409 OFFCURVE",
"655 392 CURVE SMOOTH",
"675 374 OFFCURVE",
"680 302 OFFCURVE",
"680 275 CURVE SMOOTH",
"680 225 OFFCURVE",
"674 175 OFFCURVE",
"664 126 CURVE SMOOTH",
"660 106 OFFCURVE",
"650 83 OFFCURVE",
"650 63 CURVE SMOOTH",
"650 43 OFFCURVE",
"682 -5 OFFCURVE",
"703 -5 CURVE SMOOTH",
"706 -5 OFFCURVE",
"710 -5 OFFCURVE",
"712 -2 CURVE SMOOTH",
"715 5 OFFCURVE",
"716 15 OFFCURVE",
"718 22 CURVE SMOOTH",
"734 86 OFFCURVE",
"744 152 OFFCURVE",
"744 218 CURVE SMOOTH"
);
}
);
width = 766;
}
);
leftKerningGroup = k;
rightKerningGroup = k;
unicode = 0068;
},
{
glyphname = i;
layers = (
{
layerId = "AD4F0B22-3094-4AE6-A818-B3E1049B6D0D";
paths = (
{
closed = 1;
nodes = (
"-372 554 LINE",
"-358 610 OFFCURVE",
"-255 622 OFFCURVE",
"-207 622 CURVE SMOOTH",
"-99 622 OFFCURVE",
"28 577 OFFCURVE",
"62 465 CURVE SMOOTH",
"64 459 OFFCURVE",
"67 452 OFFCURVE",
"67 445 CURVE SMOOTH",
"67 395 OFFCURVE",
"65 345 OFFCURVE",
"65 295 CURVE SMOOTH",
"65 275 OFFCURVE",
"97 227 OFFCURVE",
"118 227 CURVE SMOOTH",
"132 227 OFFCURVE",
"130 242 OFFCURVE",
"130 252 CURVE",
"130 391 LINE",
"130 415 OFFCURVE",
"113 456 OFFCURVE",
"103 478 CURVE SMOOTH",
"39 617 OFFCURVE",
"-95 703 OFFCURVE",
"-248 703 CURVE SMOOTH",
"-305 703 OFFCURVE",
"-435 688 OFFCURVE",
"-435 610 CURVE SMOOTH",
"-435 581 OFFCURVE",
"-420 550 OFFCURVE",
"-397 532 CURVE SMOOTH",
"-393 529 OFFCURVE",
"-385 524 OFFCURVE",
"-380 524 CURVE SMOOTH",
"-372 524 OFFCURVE",
"-369 528 OFFCURVE",
"-369 536 CURVE SMOOTH",
"-369 542 OFFCURVE",
"-372 547 OFFCURVE",
"-372 553 CURVE"
);
}
);
width = 147;
}
);
unicode = 0069;
},
{
glyphname = j;
layers = (
{
layerId = "AD4F0B22-3094-4AE6-A818-B3E1049B6D0D";
paths = (
{
closed = 1;
nodes = (
"180 209 OFFCURVE",
"229 194 OFFCURVE",
"243 174 CURVE",
"244 172 OFFCURVE",
"244 166 OFFCURVE",
"244 164 CURVE",
"244 125 OFFCURVE",
"176 84 OFFCURVE",
"141 84 CURVE SMOOTH",
"121 84 OFFCURVE",
"106 89 OFFCURVE",
"95 107 CURVE SMOOTH",
"86 123 OFFCURVE",
"80 159 OFFCURVE",
"80 178 CURVE SMOOTH",
"80 212 OFFCURVE",
"86 246 OFFCURVE",
"101 277 CURVE SMOOTH",
"130 338 OFFCURVE",
"223 409 OFFCURVE",
"292 409 CURVE SMOOTH",
"323 409 OFFCURVE",
"352 400 OFFCURVE",
"369 372 CURVE SMOOTH",
"407 311 OFFCURVE",
"413 195 OFFCURVE",
"414 124 CURVE",
"431 102 OFFCURVE",
"453 82 OFFCURVE",
"477 68 CURVE",
"474 101 OFFCURVE",
"472 135 OFFCURVE",
"472 168 CURVE SMOOTH",
"472 241 OFFCURVE",
"491 355 OFFCURVE",
"557 398 CURVE SMOOTH",
"572 408 OFFCURVE",
"588 414 OFFCURVE",
"606 414 CURVE SMOOTH",
"646 414 OFFCURVE",
"672 391 OFFCURVE",
"672 350 CURVE SMOOTH",
"672 279 OFFCURVE",
"619 214 OFFCURVE",
"619 142 CURVE SMOOTH",
"619 114 OFFCURVE",
"627 91 OFFCURVE",
"642 68 CURVE SMOOTH",
"676 15 OFFCURVE",
"722 0 OFFCURVE",
"782 0 CURVE SMOOTH",
"1011 0 OFFCURVE",
"858 274 OFFCURVE",
"1042 388 CURVE SMOOTH",
"1068 404 OFFCURVE",
"1108 418 OFFCURVE",
"1139 418 CURVE SMOOTH",
"1236 418 OFFCURVE",
"1283 293 OFFCURVE",
"1283 212 CURVE SMOOTH",
"1283 147 OFFCURVE",
"1255 83 OFFCURVE",
"1181 83 CURVE SMOOTH",
"1157 83 OFFCURVE",
"1122 87 OFFCURVE",
"1101 97 CURVE",
"1101 98 LINE",
"1114 146 OFFCURVE",
"1156 185 OFFCURVE",
"1207 185 CURVE SMOOTH",
"1263 185 OFFCURVE",
"1252 139 OFFCURVE",
"1290 106 CURVE SMOOTH",
"1293 103 OFFCURVE",
"1302 98 OFFCURVE",
"1307 98 CURVE SMOOTH",
"1315 98 OFFCURVE",
"1318 102 OFFCURVE",
"1318 110 CURVE SMOOTH",
"1318 121 OFFCURVE",
"1310 137 OFFCURVE",
"1305 147 CURVE SMOOTH",
"1281 199 OFFCURVE",
"1229 266 OFFCURVE",
"1166 266 CURVE SMOOTH",
"1103 266 OFFCURVE",
"1037 213 OFFCURVE",
"1037 147 CURVE SMOOTH",
"1037 126 OFFCURVE",
"1045 104 OFFCURVE",
"1056 86 CURVE SMOOTH",
"1094 24 OFFCURVE",
"1154 2 OFFCURVE",
"1224 2 CURVE SMOOTH",
"1314 2 OFFCURVE",
"1347 76 OFFCURVE",
"1347 155 CURVE SMOOTH",
"1347 267 OFFCURVE",
"1280 401 OFFCURVE",
"1188 466 CURVE SMOOTH",
"1163 484 OFFCURVE",
"1129 499 OFFCURVE",
"1098 499 CURVE SMOOTH",
"1061 499 OFFCURVE",
"1019 486 OFFCURVE",
"987 466 CURVE SMOOTH",
"965 452 OFFCURVE",
"945 438 OFFCURVE",
"929 417 CURVE SMOOTH",
"900 380 OFFCURVE",
"888 335 OFFCURVE",
"879 290 CURVE SMOOTH",
"861 197 OFFCURVE",
"868 81 OFFCURVE",
"741 81 CURVE SMOOTH",
"722 81 OFFCURVE",
"702 82 OFFCURVE",
"683 87 CURVE",
"688 159 OFFCURVE",
"736 221 OFFCURVE",
"736 293 CURVE SMOOTH",
"736 376 OFFCURVE",
"652 495 OFFCURVE",
"563 495 CURVE SMOOTH",
"441 495 OFFCURVE",
"409 318 OFFCURVE",
"409 224 CURVE SMOOTH",
"409 197 OFFCURVE",
"408 132 OFFCURVE",
"416 108 CURVE SMOOTH",
"421 91 OFFCURVE",
"431 76 OFFCURVE",
"444 64 CURVE SMOOTH",
"449 60 OFFCURVE",
"460 51 OFFCURVE",
"467 51 CURVE SMOOTH",
"475 51 OFFCURVE",
"478 55 OFFCURVE",
"478 63 CURVE SMOOTH",
"478 192 OFFCURVE",
"459 360 OFFCURVE",
"354 449 CURVE SMOOTH",
"323 475 OFFCURVE",
"290 490 OFFCURVE",
"249 490 CURVE SMOOTH",
"172 490 OFFCURVE",
"74 419 OFFCURVE",
"41 351 CURVE SMOOTH",
"24 315 OFFCURVE",
"17 275 OFFCURVE",
"17 235 CURVE SMOOTH",
"17 148 OFFCURVE",
"83 3 OFFCURVE",
"184 3 CURVE SMOOTH",
"236 3 OFFCURVE",
"308 51 OFFCURVE",
"308 108 CURVE SMOOTH",
"308 196 OFFCURVE",
"201 290 OFFCURVE",
"115 290 CURVE SMOOTH",
"73 290 OFFCURVE",
"41 275 OFFCURVE",
"25 234 CURVE SMOOTH",
"21 225 OFFCURVE",
"18 212 OFFCURVE",
"18 202 CURVE SMOOTH",
"18 182 OFFCURVE",
"50 134 OFFCURVE",
"71 134 CURVE SMOOTH",
"74 134 OFFCURVE",
"78 134 OFFCURVE",
"80 137 CURVE SMOOTH",
"84 145 OFFCURVE",
"83 156 OFFCURVE",
"86 164 CURVE SMOOTH",
"96 195 OFFCURVE",
"125 209 OFFCURVE",
"156 209 CURVE SMOOTH"
);
}
);
width = 1364;
}
);
leftKerningGroup = general;
rightKerningGroup = general;
unicode = 006A;
},
{
glyphname = k;
layers = (
{
layerId = "AD4F0B22-3094-4AE6-A818-B3E1049B6D0D";
paths = (
{
closed = 1;
nodes = (
"378 425 OFFCURVE",
"564 373 OFFCURVE",
"564 248 CURVE SMOOTH",
"564 231 OFFCURVE",
"562 214 OFFCURVE",
"557 197 CURVE SMOOTH",
"547 161 OFFCURVE",
"510 82 OFFCURVE",
"466 82 CURVE SMOOTH",
"438 82 OFFCURVE",
"410 149 OFFCURVE",
"395 170 CURVE SMOOTH",
"388 180 OFFCURVE",
"380 189 OFFCURVE",
"371 196 CURVE SMOOTH",
"367 199 OFFCURVE",
"359 204 OFFCURVE",
"354 204 CURVE",
"352 204 OFFCURVE",
"349 205 OFFCURVE",
"347 203 CURVE SMOOTH",
"336 194 OFFCURVE",
"326 179 OFFCURVE",
"316 168 CURVE SMOOTH",
"291 140 OFFCURVE",
"235 83 OFFCURVE",
"196 83 CURVE",
"195 83 OFFCURVE",
"193 83 OFFCURVE",
"192 83 CURVE",
"191 88 OFFCURVE",
"190 93 OFFCURVE",
"190 98 CURVE SMOOTH",
"190 135 OFFCURVE",
"207 173 OFFCURVE",
"227 204 CURVE SMOOTH",
"292 306 OFFCURVE",
"440 427 OFFCURVE",
"566 427 CURVE SMOOTH",
"603 427 OFFCURVE",
"643 419 OFFCURVE",
"667 389 CURVE SMOOTH",
"694 356 OFFCURVE",
"682 323 OFFCURVE",
"723 290 CURVE SMOOTH",
"727 287 OFFCURVE",
"735 282 OFFCURVE",
"740 282 CURVE SMOOTH",
"748 282 OFFCURVE",
"751 286 OFFCURVE",
"751 294 CURVE SMOOTH",
"751 307 OFFCURVE",
"736 342 OFFCURVE",
"730 355 CURVE SMOOTH",
"690 441 OFFCURVE",
"623 508 OFFCURVE",
"523 508 CURVE SMOOTH",
"389 508 OFFCURVE",
"237 388 OFFCURVE",
"168 279 CURVE SMOOTH",
"146 244 OFFCURVE",
"127 200 OFFCURVE",
"127 158 CURVE SMOOTH",
"127 140 OFFCURVE",
"130 123 OFFCURVE",
"135 106 CURVE SMOOTH",
"148 67 OFFCURVE",
"191 2 OFFCURVE",
"238 2 CURVE SMOOTH",
"296 2 OFFCURVE",
"352 67 OFFCURVE",
"387 107 CURVE",
"409 69 OFFCURVE",
"463 1 OFFCURVE",
"510 1 CURVE SMOOTH",
"567 1 OFFCURVE",
"607 84 OFFCURVE",
"620 131 CURVE SMOOTH",
"625 151 OFFCURVE",
"627 171 OFFCURVE",
"627 192 CURVE SMOOTH",
"627 234 OFFCURVE",
"611 279 OFFCURVE",
"589 315 CURVE SMOOTH",
"515 436 OFFCURVE",
"376 506 OFFCURVE",
"236 506 CURVE SMOOTH",
"113 506 OFFCURVE",
"17 440 OFFCURVE",
"17 309 CURVE SMOOTH",
"17 289 OFFCURVE",
"49 241 OFFCURVE",
"70 241 CURVE SMOOTH",
"73 241 OFFCURVE",
"77 241 OFFCURVE",
"79 244 CURVE SMOOTH",
"82 251 OFFCURVE",
"81 270 OFFCURVE",
"82 278 CURVE SMOOTH",
"85 303 OFFCURVE",
"94 327 OFFCURVE",
"108 348 CURVE SMOOTH",
"144 402 OFFCURVE",
"216 425 OFFCURVE",
"278 425 CURVE SMOOTH"
);
}
);
width = 768;
}
);
leftKerningGroup = general;
rightKerningGroup = general;
unicode = 006B;
},
{
glyphname = l;
layers = (
{
layerId = "AD4F0B22-3094-4AE6-A818-B3E1049B6D0D";
paths = (
{
closed = 1;
nodes = (
"247 219 OFFCURVE",
"274 294 OFFCURVE",
"274 348 CURVE SMOOTH",
"274 367 OFFCURVE",
"270 386 OFFCURVE",
"263 404 CURVE SMOOTH",
"248 444 OFFCURVE",
"206 500 OFFCURVE",
"159 500 CURVE SMOOTH",
"136 500 OFFCURVE",
"119 496 OFFCURVE",
"98 486 CURVE SMOOTH",
"33 456 OFFCURVE",
"17 397 OFFCURVE",
"17 330 CURVE SMOOTH",
"17 246 OFFCURVE",
"52 154 OFFCURVE",
"111 94 CURVE SMOOTH",
"169 36 OFFCURVE",
"257 -1 OFFCURVE",
"339 -1 CURVE SMOOTH",
"468 -1 OFFCURVE",
"571 98 OFFCURVE",
"571 228 CURVE SMOOTH",
"571 318 OFFCURVE",
"519 403 OFFCURVE",
"461 468 CURVE SMOOTH",
"453 477 OFFCURVE",
"433 499 OFFCURVE",
"421 499 CURVE SMOOTH",
"413 499 OFFCURVE",
"410 495 OFFCURVE",
"410 487 CURVE SMOOTH",
"410 438 OFFCURVE",
"508 398 OFFCURVE",
"508 285 CURVE SMOOTH",
"508 171 OFFCURVE",
"410 80 OFFCURVE",
"297 80 CURVE SMOOTH",
"257 80 OFFCURVE",
"217 88 OFFCURVE",
"181 105 CURVE SMOOTH",
"162 114 OFFCURVE",
"137 126 OFFCURVE",
"122 141 CURVE SMOOTH",
"92 170 OFFCURVE",
"81 233 OFFCURVE",
"81 273 CURVE SMOOTH",
"81 309 OFFCURVE",
"89 358 OFFCURVE",
"116 384 CURVE SMOOTH",
"125 393 OFFCURVE",
"136 398 OFFCURVE",
"147 404 CURVE SMOOTH",
"163 412 OFFCURVE",
"182 419 OFFCURVE",
"201 419 CURVE SMOOTH",
"204 419 OFFCURVE",
"206 419 OFFCURVE",
"209 418 CURVE",
"210 413 OFFCURVE",
"210 409 OFFCURVE",
"210 404 CURVE SMOOTH",
"210 364 OFFCURVE",
"188 300 OFFCURVE",
"140 300 CURVE SMOOTH",
"94 300 OFFCURVE",
"70 351 OFFCURVE",
"50 351 CURVE SMOOTH",
"42 351 OFFCURVE",
"39 347 OFFCURVE",
"39 339 CURVE SMOOTH",
"39 302 OFFCURVE",
"100 250 OFFCURVE",
"131 234 CURVE SMOOTH",
"147 226 OFFCURVE",
"165 219 OFFCURVE",
"183 219 CURVE SMOOTH"
);
}
);
width = 588;
}
);
leftKerningGroup = general;
rightKerningGroup = general;
unicode = 006C;
},
{
glyphname = m;
layers = (
{
layerId = "AD4F0B22-3094-4AE6-A818-B3E1049B6D0D";
paths = (
{
closed = 1;
nodes = (
"154 377 OFFCURVE",
"198 417 OFFCURVE",
"257 417 CURVE SMOOTH",
"279 417 OFFCURVE",
"309 411 OFFCURVE",
"327 398 CURVE SMOOTH",
"339 390 OFFCURVE",
"338 378 OFFCURVE",
"338 365 CURVE SMOOTH",
"338 341 OFFCURVE",
"330 312 OFFCURVE",
"319 290 CURVE SMOOTH",
"271 193 OFFCURVE",
"163 136 OFFCURVE",
"65 101 CURVE SMOOTH",
"58 98 OFFCURVE",
"26 88 OFFCURVE",
"22 85 CURVE SMOOTH",
"19 82 OFFCURVE",
"17 77 OFFCURVE",
"17 73 CURVE SMOOTH",
"17 51 OFFCURVE",
"44 13 OFFCURVE",
"65 6 CURVE SMOOTH",
"72 4 OFFCURVE",
"100 3 OFFCURVE",
"109 3 CURVE",
"201 -1 OFFCURVE",
"292 -7 OFFCURVE",
"384 -7 CURVE SMOOTH",
"419 -7 OFFCURVE",
"503 -5 OFFCURVE",
"531 13 CURVE SMOOTH",
"554 28 OFFCURVE",
"568 65 OFFCURVE",
"568 92 CURVE SMOOTH",
"568 164 OFFCURVE",
"512 241 OFFCURVE",
"459 286 CURVE SMOOTH",
"452 292 OFFCURVE",
"433 307 OFFCURVE",
"425 307 CURVE SMOOTH",
"417 307 OFFCURVE",
"414 303 OFFCURVE",
"414 295 CURVE SMOOTH",
"414 276 OFFCURVE",
"432 250 OFFCURVE",
"446 238 CURVE SMOOTH",
"476 211 OFFCURVE",
"504 194 OFFCURVE",
"504 148 CURVE SMOOTH",
"504 128 OFFCURVE",
"491 102 OFFCURVE",
"475 91 CURVE SMOOTH",
"454 76 OFFCURVE",
"370 74 OFFCURVE",
"342 74 CURVE SMOOTH",
"306 74 OFFCURVE",
"272 75 OFFCURVE",
"236 76 CURVE",
"320 125 OFFCURVE",
"402 204 OFFCURVE",
"402 308 CURVE SMOOTH",
"402 406 OFFCURVE",
"312 498 OFFCURVE",
"214 498 CURVE SMOOTH",
"139 498 OFFCURVE",
"90 449 OFFCURVE",
"90 374 CURVE SMOOTH",
"90 365 OFFCURVE",
"90 355 OFFCURVE",
"93 346 CURVE SMOOTH",
"98 329 OFFCURVE",
"125 289 OFFCURVE",
"144 289 CURVE SMOOTH",
"152 289 OFFCURVE",
"155 293 OFFCURVE",
"155 301 CURVE SMOOTH",
"155 307 OFFCURVE",
"154 311 OFFCURVE",
"154 317 CURVE SMOOTH"
);
}
);
width = 585;
}
);
leftKerningGroup = general;
rightKerningGroup = general;
unicode = 006D;
},
{
glyphname = n;
layers = (
{
layerId = "AD4F0B22-3094-4AE6-A818-B3E1049B6D0D";
paths = (
{
closed = 1;
nodes = (
"80 323 OFFCURVE",
"103 416 OFFCURVE",
"208 416 CURVE SMOOTH",
"238 416 OFFCURVE",
"267 409 OFFCURVE",
"283 381 CURVE SMOOTH",
"317 322 OFFCURVE",
"327 210 OFFCURVE",
"329 142 CURVE SMOOTH",
"330 122 OFFCURVE",
"327 75 OFFCURVE",
"332 58 CURVE SMOOTH",
"337 41 OFFCURVE",
"364 1 OFFCURVE",
"383 1 CURVE SMOOTH",
"387 1 OFFCURVE",
"390 1 OFFCURVE",
"392 4 CURVE SMOOTH",
"394 8 OFFCURVE",
"396 101 OFFCURVE",
"397 116 CURVE SMOOTH",
"409 237 OFFCURVE",
"441 361 OFFCURVE",
"569 405 CURVE SMOOTH",
"597 414 OFFCURVE",
"627 420 OFFCURVE",
"656 420 CURVE SMOOTH",
"670 420 OFFCURVE",
"707 416 OFFCURVE",
"717 405 CURVE SMOOTH",
"723 398 OFFCURVE",
"726 359 OFFCURVE",
"726 350 CURVE SMOOTH",
"726 273 OFFCURVE",
"700 182 OFFCURVE",
"667 112 CURVE SMOOTH",
"663 103 OFFCURVE",
"648 77 OFFCURVE",
"648 69 CURVE SMOOTH",
"648 49 OFFCURVE",
"680 1 OFFCURVE",
"701 1 CURVE",
"703 1 OFFCURVE",
"707 1 OFFCURVE",
"708 2 CURVE",
"713 7 OFFCURVE",
"723 30 OFFCURVE",
"726 37 CURVE SMOOTH",
"763 118 OFFCURVE",
"789 206 OFFCURVE",
"789 296 CURVE SMOOTH",
"789 394 OFFCURVE",
"722 501 OFFCURVE",
"615 501 CURVE SMOOTH",
"484 501 OFFCURVE",
"400 434 OFFCURVE",
"359 311 CURVE",
"330 398 OFFCURVE",
"268 497 OFFCURVE",
"165 497 CURVE SMOOTH",
"140 497 OFFCURVE",
"105 491 OFFCURVE",
"84 477 CURVE SMOOTH",
"30 442 OFFCURVE",
"17 352 OFFCURVE",
"17 293 CURVE SMOOTH",
"17 200 OFFCURVE",
"51 90 OFFCURVE",
"118 23 CURVE SMOOTH",
"125 16 OFFCURVE",
"140 1 OFFCURVE",
"150 1 CURVE SMOOTH",
"158 1 OFFCURVE",
"161 5 OFFCURVE",
"161 13 CURVE SMOOTH",
"161 45 OFFCURVE",
"135 58 OFFCURVE",
"120 80 CURVE SMOOTH",
"91 123 OFFCURVE",
"80 186 OFFCURVE",
"80 237 CURVE SMOOTH"
);
}
);
width = 806;
}
);
leftKerningGroup = general;
rightKerningGroup = general;
unicode = 006E;
},
{
glyphname = p;
layers = (
{
layerId = "AD4F0B22-3094-4AE6-A818-B3E1049B6D0D";
paths = (
{
closed = 1;
nodes = (
"81 164 OFFCURVE",
"89 184 OFFCURVE",
"99 203 CURVE SMOOTH",
"139 277 OFFCURVE",
"227 326 OFFCURVE",
"311 326 CURVE SMOOTH",
"352 326 OFFCURVE",
"394 313 OFFCURVE",
"425 286 CURVE SMOOTH",
"429 283 OFFCURVE",
"436 276 OFFCURVE",
"438 272 CURVE SMOOTH",
"441 264 OFFCURVE",
"441 256 OFFCURVE",
"441 248 CURVE SMOOTH",
"441 189 OFFCURVE",
"361 108 OFFCURVE",
"311 82 CURVE",
"312 81 LINE",
"325 53 OFFCURVE",
"341 27 OFFCURVE",
"358 1 CURVE",
"377 1 LINE",
"449 1 OFFCURVE",
"520 -4 OFFCURVE",
"592 -4 CURVE SMOOTH",
"658 -4 OFFCURVE",
"798 -3 OFFCURVE",
"852 31 CURVE SMOOTH",
"898 60 OFFCURVE",
"920 124 OFFCURVE",
"920 176 CURVE SMOOTH",
"920 209 OFFCURVE",
"915 242 OFFCURVE",
"906 273 CURVE SMOOTH",
"878 367 OFFCURVE",
"794 499 OFFCURVE",
"684 499 CURVE SMOOTH",
"673 499 OFFCURVE",
"648 498 OFFCURVE",
"648 482 CURVE SMOOTH",
"648 462 OFFCURVE",
"680 414 OFFCURVE",
"701 414 CURVE SMOOTH",
"711 414 OFFCURVE",
"720 418 OFFCURVE",
"730 418 CURVE SMOOTH",
"821 418 OFFCURVE",
"856 308 OFFCURVE",
"856 233 CURVE SMOOTH",
"856 189 OFFCURVE",
"836 134 OFFCURVE",
"797 109 CURVE SMOOTH",
"747 77 OFFCURVE",
"600 77 OFFCURVE",
"538 77 CURVE SMOOTH",
"465 77 OFFCURVE",
"392 82 OFFCURVE",
"319 82 CURVE SMOOTH",
"310 82 OFFCURVE",
"301 80 OFFCURVE",
"301 69 CURVE SMOOTH",
"301 48 OFFCURVE",
"332 0 OFFCURVE",
"355 0 CURVE SMOOTH",
"366 0 OFFCURVE",
"383 13 OFFCURVE",
"392 20 CURVE SMOOTH",
"442 57 OFFCURVE",
"504 125 OFFCURVE",
"504 191 CURVE SMOOTH",
"504 303 OFFCURVE",
"378 407 OFFCURVE",
"270 407 CURVE SMOOTH",
"244 407 OFFCURVE",
"218 404 OFFCURVE",
"193 396 CURVE SMOOTH",
"109 371 OFFCURVE",
"17 293 OFFCURVE",
"17 198 CURVE SMOOTH",
"17 127 OFFCURVE",
"59 65 OFFCURVE",
"111 20 CURVE SMOOTH",
"117 15 OFFCURVE",
"136 0 OFFCURVE",
"144 0 CURVE SMOOTH",
"152 0 OFFCURVE",
"155 4 OFFCURVE",
"155 12 CURVE SMOOTH",
"155 20 OFFCURVE",
"151 28 OFFCURVE",
"148 35 CURVE SMOOTH",
"123 86 OFFCURVE",
"81 75 OFFCURVE",
"81 142 CURVE SMOOTH"
);
}
);
width = 937;
}
);
leftKerningGroup = general;
rightKerningGroup = general;
unicode = 0070;
},
{
glyphname = q;
layers = (
{
layerId = "AD4F0B22-3094-4AE6-A818-B3E1049B6D0D";
paths = (
{
closed = 1;
nodes = (
"306 500 OFFCURVE",
"282 499 OFFCURVE",
"258 494 CURVE SMOOTH",
"190 480 OFFCURVE",
"128 437 OFFCURVE",
"128 361 CURVE SMOOTH",
"128 314 OFFCURVE",
"172 231 OFFCURVE",
"225 231 CURVE SMOOTH",
"282 231 OFFCURVE",
"335 263 OFFCURVE",
"393 263 CURVE SMOOTH",
"405 263 OFFCURVE",
"419 263 OFFCURVE",
"430 258 CURVE",
"431 257 LINE",
"431 188 OFFCURVE",
"341 126 OFFCURVE",
"283 103 CURVE SMOOTH",
"251 91 OFFCURVE",
"217 82 OFFCURVE",
"183 82 CURVE SMOOTH",
"161 82 OFFCURVE",
"116 90 OFFCURVE",
"102 108 CURVE SMOOTH",
"87 127 OFFCURVE",
"82 176 OFFCURVE",
"82 200 CURVE SMOOTH",
"82 212 OFFCURVE",
"83 224 OFFCURVE",
"83 236 CURVE SMOOTH",
"83 256 OFFCURVE",
"51 304 OFFCURVE",
"30 304 CURVE SMOOTH",
"13 304 OFFCURVE",
"18 273 OFFCURVE",
"18 261 CURVE SMOOTH",
"18 142 OFFCURVE",
"90 1 OFFCURVE",
"225 1 CURVE SMOOTH",
"255 1 OFFCURVE",
"284 6 OFFCURVE",
"312 15 CURVE SMOOTH",
"385 39 OFFCURVE",
"494 108 OFFCURVE",
"494 195 CURVE SMOOTH",
"494 249 OFFCURVE",
"452 314 OFFCURVE",
"402 335 CURVE SMOOTH",
"386 342 OFFCURVE",
"368 344 OFFCURVE",
"350 344 CURVE SMOOTH",
"310 344 OFFCURVE",
"271 332 OFFCURVE",
"232 322 CURVE SMOOTH",
"219 319 OFFCURVE",
"206 314 OFFCURVE",
"192 313 CURVE",
"193 329 OFFCURVE",
"199 343 OFFCURVE",
"208 356 CURVE SMOOTH",
"240 403 OFFCURVE",
"302 417 OFFCURVE",
"355 419 CURVE SMOOTH",
"367 420 OFFCURVE",
"379 419 OFFCURVE",
"391 419 CURVE SMOOTH",
"399 419 OFFCURVE",
"402 423 OFFCURVE",
"402 431 CURVE SMOOTH",
"402 452 OFFCURVE",
"374 492 OFFCURVE",
"354 498 CURVE SMOOTH",
"346 500 OFFCURVE",
"338 500 OFFCURVE",
"330 500 CURVE SMOOTH"
);
}
);
width = 511;
}
);
leftKerningGroup = general;
rightKerningGroup = general;
unicode = 0071;
},
{
glyphname = r;
layers = (
{
layerId = "AD4F0B22-3094-4AE6-A818-B3E1049B6D0D";
paths = (
{
closed = 1;
nodes = (
"81 304 OFFCURVE",
"198 419 OFFCURVE",
"326 419 CURVE SMOOTH",
"365 419 OFFCURVE",
"433 406 OFFCURVE",
"463 381 CURVE SMOOTH",
"499 351 OFFCURVE",
"514 287 OFFCURVE",
"514 242 CURVE SMOOTH",
"514 173 OFFCURVE",
"492 122 OFFCURVE",
"427 91 CURVE SMOOTH",
"407 82 OFFCURVE",
"383 75 OFFCURVE",
"361 75 CURVE SMOOTH",
"346 75 OFFCURVE",
"313 78 OFFCURVE",
"303 90 CURVE SMOOTH",
"298 96 OFFCURVE",
"296 121 OFFCURVE",
"296 129 CURVE SMOOTH",
"296 182 OFFCURVE",
"357 219 OFFCURVE",
"405 219 CURVE SMOOTH",
"446 219 OFFCURVE",
"465 189 OFFCURVE",
"477 189 CURVE SMOOTH",
"485 189 OFFCURVE",
"488 193 OFFCURVE",
"488 201 CURVE SMOOTH",
"488 210 OFFCURVE",
"483 220 OFFCURVE",
"479 228 CURVE SMOOTH",
"458 266 OFFCURVE",
"408 300 OFFCURVE",
"364 300 CURVE SMOOTH",
"299 300 OFFCURVE",
"232 255 OFFCURVE",
"232 185 CURVE SMOOTH",
"232 94 OFFCURVE",
"305 -6 OFFCURVE",
"402 -6 CURVE SMOOTH",
"429 -6 OFFCURVE",
"456 0 OFFCURVE",
"481 12 CURVE SMOOTH",
"554 47 OFFCURVE",
"577 109 OFFCURVE",
"577 186 CURVE SMOOTH",
"577 282 OFFCURVE",
"524 399 OFFCURVE",
"444 454 CURVE SMOOTH",
"402 483 OFFCURVE",
"336 500 OFFCURVE",
"285 500 CURVE SMOOTH",
"140 500 OFFCURVE",
"17 377 OFFCURVE",
"17 232 CURVE SMOOTH",
"17 150 OFFCURVE",
"64 71 OFFCURVE",
"130 24 CURVE SMOOTH",
"136 20 OFFCURVE",
"159 5 OFFCURVE",
"166 5 CURVE SMOOTH",
"174 5 OFFCURVE",
"177 9 OFFCURVE",
"177 17 CURVE SMOOTH",
"177 26 OFFCURVE",
"172 36 OFFCURVE",
"168 44 CURVE SMOOTH",
"133 107 OFFCURVE",
"81 77 OFFCURVE",
"81 175 CURVE SMOOTH"
);
}
);
width = 594;
}
);
leftKerningGroup = general;
rightKerningGroup = general;
unicode = 0072;
},
{
glyphname = s;
layers = (
{
layerId = "AD4F0B22-3094-4AE6-A818-B3E1049B6D0D";
paths = (
{
closed = 1;
nodes = (
"80 312 OFFCURVE",
"80 317 OFFCURVE",
"80 321 CURVE SMOOTH",
"80 367 OFFCURVE",
"131 417 OFFCURVE",
"177 417 CURVE SMOOTH",
"223 417 OFFCURVE",
"231 381 OFFCURVE",
"240 344 CURVE SMOOTH",
"249 310 OFFCURVE",
"250 287 OFFCURVE",
"279 263 CURVE SMOOTH",
"283 260 OFFCURVE",
"292 254 OFFCURVE",
"298 254 CURVE SMOOTH",
"307 254 OFFCURVE",
"308 258 OFFCURVE",
"309 266 CURVE SMOOTH",
"311 285 OFFCURVE",
"313 302 OFFCURVE",
"319 320 CURVE SMOOTH",
"335 365 OFFCURVE",
"382 417 OFFCURVE",
"433 417 CURVE SMOOTH",
"461 417 OFFCURVE",
"494 399 OFFCURVE",
"494 367 CURVE SMOOTH",
"494 268 OFFCURVE",
"354 178 OFFCURVE",
"354 109 CURVE SMOOTH",
"354 93 OFFCURVE",
"362 76 OFFCURVE",
"370 63 CURVE SMOOTH",
"404 10 OFFCURVE",
"456 -1 OFFCURVE",
"515 -1 CURVE SMOOTH",
"618 -1 OFFCURVE",
"688 51 OFFCURVE",
"721 148 CURVE SMOOTH",
"731 177 OFFCURVE",
"736 209 OFFCURVE",
"736 240 CURVE SMOOTH",
"736 327 OFFCURVE",
"711 422 OFFCURVE",
"641 479 CURVE SMOOTH",
"634 485 OFFCURVE",
"614 499 OFFCURVE",
"606 499 CURVE SMOOTH",
"598 499 OFFCURVE",
"595 495 OFFCURVE",
"595 487 CURVE SMOOTH",
"595 467 OFFCURVE",
"617 436 OFFCURVE",
"633 425 CURVE SMOOTH",
"639 421 OFFCURVE",
"644 420 OFFCURVE",
"649 414 CURVE SMOOTH",
"669 388 OFFCURVE",
"673 328 OFFCURVE",
"673 296 CURVE SMOOTH",
"673 274 OFFCURVE",
"669 254 OFFCURVE",
"664 233 CURVE SMOOTH",
"640 139 OFFCURVE",
"572 80 OFFCURVE",
"473 80 CURVE SMOOTH",
"459 80 OFFCURVE",
"444 81 OFFCURVE",
"430 84 CURVE",
"430 84 LINE",
"477 152 OFFCURVE",
"558 223 OFFCURVE",
"558 311 CURVE SMOOTH",
"558 387 OFFCURVE",
"469 498 OFFCURVE",
"390 498 CURVE SMOOTH",
"333 498 OFFCURVE",
"286 451 OFFCURVE",
"263 402 CURVE",
"238 446 OFFCURVE",
"190 498 OFFCURVE",
"135 498 CURVE SMOOTH",
"72 498 OFFCURVE",
"17 440 OFFCURVE",
"17 378 CURVE SMOOTH",
"17 328 OFFCURVE",
"46 280 OFFCURVE",
"83 248 CURVE SMOOTH",
"88 243 OFFCURVE",
"100 234 OFFCURVE",
"108 234 CURVE SMOOTH",
"116 234 OFFCURVE",
"119 238 OFFCURVE",
"119 246 CURVE SMOOTH",
"119 269 OFFCURVE",
"97 294 OFFCURVE",
"81 308 CURVE"
);
}
);
width = 753;
}
);
leftKerningGroup = general;
rightKerningGroup = general;
unicode = 0073;
},
{
glyphname = t;
layers = (
{
layerId = "AD4F0B22-3094-4AE6-A818-B3E1049B6D0D";
paths = (
{
closed = 1;
nodes = (
"81 234 OFFCURVE",
"84 252 OFFCURVE",
"89 270 CURVE SMOOTH",
"116 367 OFFCURVE",
"200 423 OFFCURVE",
"299 423 CURVE SMOOTH",
"405 423 OFFCURVE",
"459 296 OFFCURVE",
"459 205 CURVE SMOOTH",
"459 147 OFFCURVE",
"443 82 OFFCURVE",
"372 82 CURVE SMOOTH",
"361 82 OFFCURVE",
"346 85 OFFCURVE",
"336 89 CURVE",
"335 94 OFFCURVE",
"334 98 OFFCURVE",
"334 103 CURVE SMOOTH",
"334 234 OFFCURVE",
"474 420 OFFCURVE",
"612 420 CURVE SMOOTH",
"640 420 OFFCURVE",
"674 414 OFFCURVE",
"698 399 CURVE SMOOTH",
"725 382 OFFCURVE",
"730 338 OFFCURVE",
"730 308 CURVE SMOOTH",
"730 241 OFFCURVE",
"716 170 OFFCURVE",
"682 112 CURVE SMOOTH",
"676 102 OFFCURVE",
"670 91 OFFCURVE",
"662 83 CURVE SMOOTH",
"654 75 OFFCURVE",
"644 74 OFFCURVE",
"644 61 CURVE SMOOTH",
"644 41 OFFCURVE",
"676 -7 OFFCURVE",
"697 -7 CURVE SMOOTH",
"708 -7 OFFCURVE",
"718 6 OFFCURVE",
"724 13 CURVE SMOOTH",
"773 71 OFFCURVE",
"794 178 OFFCURVE",
"794 252 CURVE SMOOTH",
"794 378 OFFCURVE",
"703 500 OFFCURVE",
"570 500 CURVE SMOOTH",
"438 500 OFFCURVE",
"331 372 OFFCURVE",
"289 258 CURVE SMOOTH",
"279 231 OFFCURVE",
"271 200 OFFCURVE",
"271 171 CURVE SMOOTH",
"271 152 OFFCURVE",
"273 133 OFFCURVE",
"278 115 CURVE SMOOTH",
"296 56 OFFCURVE",
"348 1 OFFCURVE",
"413 1 CURVE SMOOTH",
"501 1 OFFCURVE",
"522 75 OFFCURVE",
"522 149 CURVE SMOOTH",
"522 281 OFFCURVE",
"409 504 OFFCURVE",
"258 504 CURVE SMOOTH",
"155 504 OFFCURVE",
"68 453 OFFCURVE",
"32 354 CURVE SMOOTH",
"23 328 OFFCURVE",
"17 299 OFFCURVE",
"17 271 CURVE SMOOTH",
"17 177 OFFCURVE",
"53 86 OFFCURVE",
"124 23 CURVE SMOOTH",
"131 17 OFFCURVE",
"153 -2 OFFCURVE",
"162 -2 CURVE SMOOTH",
"170 -2 OFFCURVE",
"173 2 OFFCURVE",
"173 10 CURVE SMOOTH",
"173 29 OFFCURVE",
"155 55 OFFCURVE",
"141 67 CURVE SMOOTH",
"131 76 OFFCURVE",
"119 84 OFFCURVE",
"110 95 CURVE SMOOTH",
"86 124 OFFCURVE",
"81 179 OFFCURVE",
"81 215 CURVE SMOOTH"
);
}
);
width = 811;
}
);
leftKerningGroup = general;
rightKerningGroup = general;
unicode = 0074;
},
{
glyphname = u;
layers = (
{
layerId = "AD4F0B22-3094-4AE6-A818-B3E1049B6D0D";
paths = (
{
closed = 1;
nodes = (
"-198 45 OFFCURVE",
"-261 0 OFFCURVE",
"-261 -66 CURVE SMOOTH",
"-261 -109 OFFCURVE",
"-221 -167 OFFCURVE",
"-184 -186 CURVE SMOOTH",
"-170 -193 OFFCURVE",
"-151 -198 OFFCURVE",
"-135 -198 CURVE SMOOTH",
"-124 -198 OFFCURVE",
"-113 -198 OFFCURVE",
"-102 -195 CURVE SMOOTH",
"-55 -183 OFFCURVE",
"-35 -134 OFFCURVE",
"-35 -89 CURVE SMOOTH",
"-35 -33 OFFCURVE",
"-71 45 OFFCURVE",
"-136 45 CURVE SMOOTH"
);
},
{
closed = 1;
nodes = (
"-99 -83 OFFCURVE",
"-128 -117 OFFCURVE",
"-176 -117 CURVE SMOOTH",
"-183 -117 OFFCURVE",
"-190 -116 OFFCURVE",
"-197 -114 CURVE",
"-194 -73 OFFCURVE",
"-137 -36 OFFCURVE",
"-99 -36 CURVE"
);
}
);
width = 8;
}
);
leftKerningGroup = u;
rightKerningGroup = u;
unicode = 0075;
},
{
glyphname = v;
layers = (
{
layerId = "AD4F0B22-3094-4AE6-A818-B3E1049B6D0D";
paths = (
{
closed = 1;
nodes = (
"81 283 OFFCURVE",
"126 356 OFFCURVE",
"199 395 CURVE SMOOTH",
"223 408 OFFCURVE",
"253 418 OFFCURVE",
"281 418 CURVE SMOOTH",
"341 418 OFFCURVE",
"360 400 OFFCURVE",
"360 340 CURVE SMOOTH",
"360 281 OFFCURVE",
"345 224 OFFCURVE",
"326 169 CURVE SMOOTH",
"321 155 OFFCURVE",
"289 84 OFFCURVE",
"289 78 CURVE SMOOTH",
"289 66 OFFCURVE",
"296 53 OFFCURVE",
"302 44 CURVE SMOOTH",
"310 32 OFFCURVE",
"320 20 OFFCURVE",
"332 13 CURVE SMOOTH",
"349 3 OFFCURVE",
"402 2 OFFCURVE",
"423 2 CURVE SMOOTH",
"496 2 OFFCURVE",
"593 28 OFFCURVE",
"642 86 CURVE SMOOTH",
"677 128 OFFCURVE",
"694 200 OFFCURVE",
"694 254 CURVE SMOOTH",
"694 346 OFFCURVE",
"627 441 OFFCURVE",
"547 483 CURVE SMOOTH",
"540 487 OFFCURVE",
"511 500 OFFCURVE",
"504 500 CURVE SMOOTH",
"496 500 OFFCURVE",
"493 496 OFFCURVE",
"493 488 CURVE SMOOTH",
"493 478 OFFCURVE",
"498 467 OFFCURVE",
"503 458 CURVE SMOOTH",
"532 407 OFFCURVE",
"575 420 OFFCURVE",
"608 382 CURVE SMOOTH",
"625 363 OFFCURVE",
"631 336 OFFCURVE",
"631 311 CURVE SMOOTH",
"631 277 OFFCURVE",
"624 246 OFFCURVE",
"612 214 CURVE SMOOTH",
"605 195 OFFCURVE",
"595 175 OFFCURVE",
"582 159 CURVE SMOOTH",
"537 105 OFFCURVE",
"448 87 OFFCURVE",
"381 83 CURVE",
"406 148 OFFCURVE",
"423 213 OFFCURVE",
"423 283 CURVE SMOOTH",
"423 385 OFFCURVE",
"349 499 OFFCURVE",
"238 499 CURVE SMOOTH",
"209 499 OFFCURVE",
"181 491 OFFCURVE",
"155 479 CURVE SMOOTH",
"68 438 OFFCURVE",
"17 351 OFFCURVE",
"17 256 CURVE SMOOTH",
"17 228 OFFCURVE",
"22 201 OFFCURVE",
"29 174 CURVE SMOOTH",
"38 140 OFFCURVE",
"95 0 OFFCURVE",
"134 0 CURVE SMOOTH",
"142 0 OFFCURVE",
"145 4 OFFCURVE",
"145 12 CURVE SMOOTH",
"145 30 OFFCURVE",
"115 74 OFFCURVE",
"106 93 CURVE SMOOTH",
"90 125 OFFCURVE",
"81 164 OFFCURVE",
"81 200 CURVE SMOOTH"
);
}
);
width = 711;
}
);
leftKerningGroup = general;
rightKerningGroup = general;
unicode = 0076;
},
{
glyphname = w;
layers = (
{
layerId = "AD4F0B22-3094-4AE6-A818-B3E1049B6D0D";
paths = (
{
closed = 1;
nodes = (
"80 374 LINE",
"87 401 OFFCURVE",
"110 420 OFFCURVE",
"139 420 CURVE SMOOTH",
"152 420 OFFCURVE",
"164 415 OFFCURVE",
"168 415 CURVE",
"176 408 LINE",
"176 406 OFFCURVE",
"177 403 OFFCURVE",
"177 401 CURVE",
"177 319 OFFCURVE",
"78 211 OFFCURVE",
"78 131 CURVE SMOOTH",
"78 106 OFFCURVE",
"86 85 OFFCURVE",
"99 64 CURVE SMOOTH",
"132 13 OFFCURVE",
"175 0 OFFCURVE",
"234 0 CURVE SMOOTH",
"382 0 OFFCURVE",
"430 131 OFFCURVE",
"430 258 CURVE SMOOTH",
"430 298 OFFCURVE",
"422 336 OFFCURVE",
"415 375 CURVE SMOOTH",
"412 390 OFFCURVE",
"411 405 OFFCURVE",
"407 420 CURVE SMOOTH",
"402 437 OFFCURVE",
"375 477 OFFCURVE",
"356 477 CURVE SMOOTH",
"348 477 OFFCURVE",
"345 473 OFFCURVE",
"345 465 CURVE SMOOTH",
"345 449 OFFCURVE",
"350 434 OFFCURVE",
"353 418 CURVE SMOOTH",
"360 384 OFFCURVE",
"367 349 OFFCURVE",
"367 314 CURVE SMOOTH",
"367 203 OFFCURVE",
"323 80 OFFCURVE",
"192 80 CURVE SMOOTH",
"176 80 OFFCURVE",
"159 82 OFFCURVE",
"143 85 CURVE",
"161 171 OFFCURVE",
"240 256 OFFCURVE",
"240 344 CURVE SMOOTH",
"240 410 OFFCURVE",
"166 501 OFFCURVE",
"97 501 CURVE SMOOTH",
"57 501 OFFCURVE",
"17 473 OFFCURVE",
"17 430 CURVE SMOOTH",
"17 389 OFFCURVE",
"29 345 OFFCURVE",
"62 318 CURVE SMOOTH",
"68 313 OFFCURVE",
"78 307 OFFCURVE",
"86 307 CURVE SMOOTH",
"94 307 OFFCURVE",
"97 311 OFFCURVE",
"97 319 CURVE SMOOTH",
"97 335 OFFCURVE",
"86 343 OFFCURVE",
"81 357 CURVE SMOOTH",
"80 359 OFFCURVE",
"80 370 OFFCURVE",
"80 373 CURVE"
);
},
{
closed = 1;
nodes = (
"366 188 OFFCURVE",
"374 98 OFFCURVE",
"446 32 CURVE SMOOTH",
"465 14 OFFCURVE",
"494 0 OFFCURVE",
"521 0 CURVE SMOOTH",
"551 0 OFFCURVE",
"587 5 OFFCURVE",
"612 22 CURVE SMOOTH",
"672 61 OFFCURVE",
"692 157 OFFCURVE",
"692 224 CURVE SMOOTH",
"692 319 OFFCURVE",
"658 411 OFFCURVE",
"589 477 CURVE SMOOTH",
"582 483 OFFCURVE",
"561 501 OFFCURVE",
"552 501 CURVE SMOOTH",
"544 501 OFFCURVE",
"541 497 OFFCURVE",
"541 489 CURVE SMOOTH",
"541 470 OFFCURVE",
"559 444 OFFCURVE",
"573 432 CURVE SMOOTH",
"582 424 OFFCURVE",
"592 417 OFFCURVE",
"599 406 CURVE SMOOTH",
"621 374 OFFCURVE",
"628 319 OFFCURVE",
"628 281 CURVE SMOOTH",
"628 246 OFFCURVE",
"623 200 OFFCURVE",
"608 168 CURVE SMOOTH",
"581 108 OFFCURVE",
"546 81 OFFCURVE",
"479 81 CURVE SMOOTH",
"472 81 OFFCURVE",
"450 85 OFFCURVE",
"446 90 CURVE SMOOTH",
"433 106 OFFCURVE",
"430 184 OFFCURVE",
"430 208 CURVE SMOOTH",
"430 217 OFFCURVE",
"431 226 OFFCURVE",
"428 235 CURVE SMOOTH",
"423 252 OFFCURVE",
"396 292 OFFCURVE",
"377 292 CURVE SMOOTH",
"369 292 OFFCURVE",
"366 288 OFFCURVE",
"366 280 CURVE SMOOTH"
);
}
);
width = 709;
}
);
leftKerningGroup = general;
rightKerningGroup = general;
unicode = 0077;
},
{
glyphname = x;
layers = (
{
layerId = "AD4F0B22-3094-4AE6-A818-B3E1049B6D0D";
paths = (
{
closed = 1;
nodes = (
"81 164 OFFCURVE",
"89 184 OFFCURVE",
"99 203 CURVE SMOOTH",
"139 277 OFFCURVE",
"227 326 OFFCURVE",
"311 326 CURVE SMOOTH",
"351 326 OFFCURVE",
"395 313 OFFCURVE",
"425 286 CURVE SMOOTH",
"429 283 OFFCURVE",
"436 276 OFFCURVE",
"438 272 CURVE SMOOTH",
"441 264 OFFCURVE",
"441 256 OFFCURVE",
"441 248 CURVE SMOOTH",
"441 189 OFFCURVE",
"361 108 OFFCURVE",
"311 82 CURVE",
"312 81 LINE",
"325 53 OFFCURVE",
"341 27 OFFCURVE",
"358 1 CURVE",
"377 1 LINE",
"447 1 OFFCURVE",
"518 -4 OFFCURVE",
"588 -4 CURVE SMOOTH",
"654 -4 OFFCURVE",
"787 -4 OFFCURVE",
"844 26 CURVE SMOOTH",
"857 33 OFFCURVE",
"868 43 OFFCURVE",
"878 54 CURVE SMOOTH",
"887 65 OFFCURVE",
"895 79 OFFCURVE",
"895 94 CURVE SMOOTH",
"895 111 OFFCURVE",
"889 127 OFFCURVE",
"881 142 CURVE SMOOTH",
"835 227 OFFCURVE",
"734 245 OFFCURVE",
"672 311 CURVE SMOOTH",
"658 326 OFFCURVE",
"654 340 OFFCURVE",
"654 360 CURVE SMOOTH",
"654 396 OFFCURVE",
"703 408 OFFCURVE",
"731 408 CURVE SMOOTH",
"741 408 OFFCURVE",
"752 407 OFFCURVE",
"762 405 CURVE",
"758 386 OFFCURVE",
"752 370 OFFCURVE",
"742 354 CURVE SMOOTH",
"727 330 OFFCURVE",
"707 311 OFFCURVE",
"689 290 CURVE SMOOTH",
"677 276 OFFCURVE",
"665 261 OFFCURVE",
"654 247 CURVE SMOOTH",
"567 139 OFFCURVE",
"477 33 OFFCURVE",
"376 -63 CURVE SMOOTH",
"357 -81 OFFCURVE",
"339 -98 OFFCURVE",
"319 -114 CURVE SMOOTH",
"311 -121 OFFCURVE",
"299 -127 OFFCURVE",
"293 -135 CURVE SMOOTH",
"292 -137 OFFCURVE",
"291 -142 OFFCURVE",
"291 -144 CURVE",
"291 -164 OFFCURVE",
"323 -212 OFFCURVE",
"344 -212 CURVE SMOOTH",
"354 -212 OFFCURVE",
"380 -188 OFFCURVE",
"388 -181 CURVE SMOOTH",
"516 -68 OFFCURVE",
"622 63 OFFCURVE",
"730 194 CURVE SMOOTH",
"754 223 OFFCURVE",
"782 249 OFFCURVE",
"802 281 CURVE SMOOTH",
"819 308 OFFCURVE",
"829 344 OFFCURVE",
"829 376 CURVE SMOOTH",
"829 393 OFFCURVE",
"821 411 OFFCURVE",
"812 425 CURVE SMOOTH",
"784 469 OFFCURVE",
"742 489 OFFCURVE",
"690 489 CURVE SMOOTH",
"644 489 OFFCURVE",
"590 471 OFFCURVE",
"590 416 CURVE SMOOTH",
"590 382 OFFCURVE",
"601 350 OFFCURVE",
"618 321 CURVE SMOOTH",
"670 231 OFFCURVE",
"747 198 OFFCURVE",
"829 143 CURVE",
"822 125 OFFCURVE",
"798 108 OFFCURVE",
"781 101 CURVE SMOOTH",
"721 77 OFFCURVE",
"605 77 OFFCURVE",
"538 77 CURVE SMOOTH",
"465 77 OFFCURVE",
"392 82 OFFCURVE",
"319 82 CURVE SMOOTH",
"310 82 OFFCURVE",
"301 80 OFFCURVE",
"301 69 CURVE SMOOTH",
"301 48 OFFCURVE",
"332 0 OFFCURVE",
"355 0 CURVE SMOOTH",
"366 0 OFFCURVE",
"383 13 OFFCURVE",
"392 20 CURVE SMOOTH",
"442 57 OFFCURVE",
"504 125 OFFCURVE",
"504 191 CURVE SMOOTH",
"504 303 OFFCURVE",
"378 407 OFFCURVE",
"270 407 CURVE SMOOTH",
"244 407 OFFCURVE",
"218 404 OFFCURVE",
"193 396 CURVE SMOOTH",
"109 370 OFFCURVE",
"17 293 OFFCURVE",
"17 198 CURVE SMOOTH",
"17 127 OFFCURVE",
"59 65 OFFCURVE",
"111 20 CURVE SMOOTH",
"117 15 OFFCURVE",
"136 0 OFFCURVE",
"144 0 CURVE SMOOTH",
"152 0 OFFCURVE",
"155 4 OFFCURVE",
"155 12 CURVE SMOOTH",
"155 20 OFFCURVE",
"151 28 OFFCURVE",
"148 35 CURVE SMOOTH",
"123 86 OFFCURVE",
"81 75 OFFCURVE",
"81 142 CURVE SMOOTH"
);
}
);
width = 912;
}
);
leftKerningGroup = general;
rightKerningGroup = general;
unicode = 0078;
},
{
glyphname = y;
layers = (
{
layerId = "AD4F0B22-3094-4AE6-A818-B3E1049B6D0D";
paths = (
{
closed = 1;
nodes = (
"219 399 OFFCURVE",
"295 421 OFFCURVE",
"347 421 CURVE SMOOTH",
"386 421 OFFCURVE",
"459 401 OFFCURVE",
"484 370 CURVE SMOOTH",
"499 351 OFFCURVE",
"501 333 OFFCURVE",
"501 309 CURVE SMOOTH",
"501 285 OFFCURVE",
"493 258 OFFCURVE",
"484 236 CURVE SMOOTH",
"437 126 OFFCURVE",
"315 77 OFFCURVE",
"202 77 CURVE SMOOTH",
"164 77 OFFCURVE",
"112 85 OFFCURVE",
"81 108 CURVE",
"80 114 LINE",
"80 153 OFFCURVE",
"118 211 OFFCURVE",
"160 211 CURVE SMOOTH",
"260 211 OFFCURVE",
"426 1 OFFCURVE",
"624 1 CURVE SMOOTH",
"752 1 OFFCURVE",
"826 87 OFFCURVE",
"826 212 CURVE SMOOTH",
"826 296 OFFCURVE",
"786 393 OFFCURVE",
"716 443 CURVE SMOOTH",
"710 447 OFFCURVE",
"690 461 OFFCURVE",
"683 461 CURVE SMOOTH",
"675 461 OFFCURVE",
"672 457 OFFCURVE",
"672 449 CURVE SMOOTH",
"672 428 OFFCURVE",
"694 399 OFFCURVE",
"710 387 CURVE SMOOTH",
"717 381 OFFCURVE",
"726 378 OFFCURVE",
"733 372 CURVE SMOOTH",
"756 351 OFFCURVE",
"763 298 OFFCURVE",
"763 268 CURVE SMOOTH",
"763 159 OFFCURVE",
"693 82 OFFCURVE",
"582 82 CURVE SMOOTH",
"388 82 OFFCURVE",
"239 292 OFFCURVE",
"117 292 CURVE SMOOTH",
"59 292 OFFCURVE",
"17 224 OFFCURVE",
"17 171 CURVE SMOOTH",
"17 146 OFFCURVE",
"26 123 OFFCURVE",
"38 102 CURVE SMOOTH",
"80 29 OFFCURVE",
"163 -4 OFFCURVE",
"244 -4 CURVE SMOOTH",
"367 -4 OFFCURVE",
"494 46 OFFCURVE",
"545 166 CURVE SMOOTH",
"557 193 OFFCURVE",
"565 222 OFFCURVE",
"565 252 CURVE SMOOTH",
"565 385 OFFCURVE",
"435 502 OFFCURVE",
"305 502 CURVE SMOOTH",
"235 502 OFFCURVE",
"156 475 OFFCURVE",
"156 392 CURVE SMOOTH",
"156 356 OFFCURVE",
"164 328 OFFCURVE",
"192 304 CURVE SMOOTH",
"196 301 OFFCURVE",
"206 295 OFFCURVE",
"211 295 CURVE SMOOTH",
"219 295 OFFCURVE",
"222 299 OFFCURVE",
"222 307 CURVE SMOOTH",
"222 317 OFFCURVE",
"219 325 OFFCURVE",
"219 335 CURVE SMOOTH"
);
}
);
width = 843;
}
);
leftKerningGroup = general;
rightKerningGroup = general;
unicode = 0079;
},
{
glyphname = z;
layers = (
{
guideLines = (
{
position = "{0, 201}";
}
);
layerId = "AD4F0B22-3094-4AE6-A818-B3E1049B6D0D";
paths = (
{
closed = 1;
nodes = (
"172 215 OFFCURVE",
"196 175 OFFCURVE",
"196 143 CURVE SMOOTH",
"196 103 OFFCURVE",
"158 86 OFFCURVE",
"123 86 CURVE SMOOTH",
"115 86 OFFCURVE",
"102 88 OFFCURVE",
"95 91 CURVE SMOOTH",
"81 98 OFFCURVE",
"78 150 OFFCURVE",
"78 165 CURVE SMOOTH",
"78 243 OFFCURVE",
"108 352 OFFCURVE",
"174 400 CURVE SMOOTH",
"191 413 OFFCURVE",
"211 421 OFFCURVE",
"233 421 CURVE SMOOTH",
"254 421 OFFCURVE",
"279 420 OFFCURVE",
"296 406 CURVE",
"298 398 OFFCURVE",
"302 391 OFFCURVE",
"304 383 CURVE SMOOTH",
"308 364 OFFCURVE",
"309 343 OFFCURVE",
"309 323 CURVE SMOOTH",
"309 294 OFFCURVE",
"306 264 OFFCURVE",
"304 235 CURVE",
"321 213 OFFCURVE",
"343 191 OFFCURVE",
"367 177 CURVE",
"370 264 OFFCURVE",
"382 381 OFFCURVE",
"480 411 CURVE SMOOTH",
"494 415 OFFCURVE",
"510 418 OFFCURVE",
"525 418 CURVE SMOOTH",
"556 418 OFFCURVE",
"606 418 OFFCURVE",
"621 385 CURVE SMOOTH",
"634 357 OFFCURVE",
"638 319 OFFCURVE",
"638 288 CURVE SMOOTH",
"638 235 OFFCURVE",
"621 138 OFFCURVE",
"580 101 CURVE SMOOTH",
"573 95 OFFCURVE",
"565 89 OFFCURVE",
"555 89 CURVE SMOOTH",
"535 89 OFFCURVE",
"534 123 OFFCURVE",
"534 138 CURVE SMOOTH",
"534 235 OFFCURVE",
"620 341 OFFCURVE",
"700 389 CURVE SMOOTH",
"725 404 OFFCURVE",
"753 417 OFFCURVE",
"783 417 CURVE SMOOTH",
"792 417 OFFCURVE",
"809 415 OFFCURVE",
"817 409 CURVE SMOOTH",
"826 402 OFFCURVE",
"830 338 OFFCURVE",
"830 324 CURVE SMOOTH",
"830 297 OFFCURVE",
"827 271 OFFCURVE",
"824 245 CURVE",
"841 222 OFFCURVE",
"863 200 OFFCURVE",
"887 185 CURVE",
"887 187 LINE",
"887 267 OFFCURVE",
"929 359 OFFCURVE",
"1001 399 CURVE SMOOTH",
"1020 409 OFFCURVE",
"1041 417 OFFCURVE",
"1063 417 CURVE SMOOTH",
"1093 417 OFFCURVE",
"1118 407 OFFCURVE",
"1135 381 CURVE SMOOTH",
"1159 346 OFFCURVE",
"1171 259 OFFCURVE",
"1171 216 CURVE SMOOTH",
"1171 204 OFFCURVE",
"1170 193 OFFCURVE",
"1169 181 CURVE SMOOTH",
"1166 149 OFFCURVE",
"1160 119 OFFCURVE",
"1145 90 CURVE SMOOTH",
"1055 -89 OFFCURVE",
"751 -98 OFFCURVE",
"578 -98 CURVE SMOOTH",
"409 -98 OFFCURVE",
"241 -81 OFFCURVE",
"72 -81 CURVE SMOOTH",
"21 -81 OFFCURVE",
"-89 -82 OFFCURVE",
"-121 -128 CURVE SMOOTH",
"-125 -134 OFFCURVE",
"-129 -142 OFFCURVE",
"-129 -149 CURVE SMOOTH",
"-129 -169 OFFCURVE",
"-97 -217 OFFCURVE",
"-76 -217 CURVE SMOOTH",
"-65 -217 OFFCURVE",
"-64 -205 OFFCURVE",
"-59 -198 CURVE SMOOTH",
"-54 -192 OFFCURVE",
"-45 -187 OFFCURVE",
"-38 -183 CURVE SMOOTH",
"-2 -165 OFFCURVE",
"72 -162 OFFCURVE",
"113 -162 CURVE SMOOTH",
"282 -162 OFFCURVE",
"450 -179 OFFCURVE",
"619 -179 CURVE SMOOTH",
"802 -179 OFFCURVE",
"1088 -171 OFFCURVE",
"1196 3 CURVE SMOOTH",
"1225 49 OFFCURVE",
"1234 107 OFFCURVE",
"1234 160 CURVE SMOOTH",
"1234 265 OFFCURVE",
"1197 394 OFFCURVE",
"1113 462 CURVE SMOOTH",
"1087 483 OFFCURVE",
"1055 498 OFFCURVE",
"1021 498 CURVE SMOOTH",
"928 498 OFFCURVE",
"860 412 OFFCURVE",
"836 330 CURVE SMOOTH",
"827 299 OFFCURVE",
"823 267 OFFCURVE",
"823 235 CURVE SMOOTH",
"823 215 OFFCURVE",
"855 167 OFFCURVE",
"876 167 CURVE SMOOTH",
"880 167 OFFCURVE",
"883 167 OFFCURVE",
"885 170 CURVE SMOOTH",
"890 179 OFFCURVE",
"893 252 OFFCURVE",
"893 267 CURVE SMOOTH",
"893 298 OFFCURVE",
"890 330 OFFCURVE",
"882 360 CURVE SMOOTH",
"865 422 OFFCURVE",
"812 498 OFFCURVE",
"741 498 CURVE SMOOTH",
"643 498 OFFCURVE",
"542 393 OFFCURVE",
"501 311 CURVE SMOOTH",
"483 275 OFFCURVE",
"471 235 OFFCURVE",
"471 194 CURVE SMOOTH",
"471 168 OFFCURVE",
"476 143 OFFCURVE",
"486 119 CURVE SMOOTH",
"503 78 OFFCURVE",
"551 8 OFFCURVE",
"600 8 CURVE SMOOTH",
"619 8 OFFCURVE",
"634 20 OFFCURVE",
"646 34 CURVE SMOOTH",
"686 82 OFFCURVE",
"701 170 OFFCURVE",
"701 231 CURVE SMOOTH",
"701 328 OFFCURVE",
"660 448 OFFCURVE",
"563 487 CURVE SMOOTH",
"537 497 OFFCURVE",
"508 499 OFFCURVE",
"481 499 CURVE SMOOTH",
"333 499 OFFCURVE",
"303 347 OFFCURVE",
"303 229 CURVE SMOOTH",
"303 209 OFFCURVE",
"335 161 OFFCURVE",
"356 161 CURVE SMOOTH",
"360 161 OFFCURVE",
"363 161 OFFCURVE",
"365 164 CURVE SMOOTH",
"369 170 OFFCURVE",
"372 253 OFFCURVE",
"372 266 CURVE SMOOTH",
"372 299 OFFCURVE",
"369 332 OFFCURVE",
"359 364 CURVE SMOOTH",
"334 442 OFFCURVE",
"276 502 OFFCURVE",
"190 502 CURVE SMOOTH",
"66 502 OFFCURVE",
"15 320 OFFCURVE",
"15 221 CURVE SMOOTH",
"15 194 OFFCURVE",
"18 166 OFFCURVE",
"26 140 CURVE SMOOTH",
"44 78 OFFCURVE",
"95 6 OFFCURVE",
"167 6 CURVE SMOOTH",
"219 6 OFFCURVE",
"260 30 OFFCURVE",
"260 86 CURVE SMOOTH",
"260 155 OFFCURVE",
"200 245 OFFCURVE",
"142 280 CURVE SMOOTH",
"128 289 OFFCURVE",
"111 296 OFFCURVE",
"94 296 CURVE SMOOTH",
"54 296 OFFCURVE",
"35 264 OFFCURVE",
"24 230 CURVE SMOOTH",
"22 223 OFFCURVE",
"17 208 OFFCURVE",
"17 201 CURVE SMOOTH",
"17 181 OFFCURVE",
"49 133 OFFCURVE",
"70 133 CURVE",
"72 133 OFFCURVE",
"76 133 OFFCURVE",
"77 134 CURVE",
"82 141 OFFCURVE",
"85 161 OFFCURVE",
"88 170 CURVE SMOOTH",
"95 190 OFFCURVE",
"112 215 OFFCURVE",
"136 215 CURVE SMOOTH"
);
}
);
width = 1251;
}
);
leftKerningGroup = general;
rightKerningGroup = general;
unicode = 007A;
},
{
glyphname = A_A;
layers = (
{
guideLines = (
{
angle = 90;
position = "{1298, 0}";
},
{
angle = 90;
position = "{1296, 0}";
}
);
layerId = "AD4F0B22-3094-4AE6-A818-B3E1049B6D0D";
paths = (
{
closed = 1;
nodes = (
"174 318 OFFCURVE",
"187 316 OFFCURVE",
"200 310 CURVE",
"201 304 OFFCURVE",
"202 297 OFFCURVE",
"202 290 CURVE SMOOTH",
"202 244 OFFCURVE",
"141 217 OFFCURVE",
"105 203 CURVE SMOOTH",
"99 201 OFFCURVE",
"71 191 OFFCURVE",
"68 189 CURVE SMOOTH",
"65 187 OFFCURVE",
"64 182 OFFCURVE",
"64 178 CURVE SMOOTH",
"64 158 OFFCURVE",
"96 110 OFFCURVE",
"117 110 CURVE SMOOTH",
"175 110 OFFCURVE",
"231 131 OFFCURVE",
"286 146 CURVE SMOOTH",
"327 157 OFFCURVE",
"369 165 OFFCURVE",
"411 165 CURVE SMOOTH",
"426 165 OFFCURVE",
"440 164 OFFCURVE",
"455 162 CURVE SMOOTH",
"473 159 OFFCURVE",
"497 157 OFFCURVE",
"497 133 CURVE SMOOTH",
"497 100 OFFCURVE",
"461 81 OFFCURVE",
"432 81 CURVE SMOOTH",
"425 81 OFFCURVE",
"418 82 OFFCURVE",
"412 85 CURVE",
"399 112 OFFCURVE",
"397 145 OFFCURVE",
"397 174 CURVE SMOOTH",
"397 274 OFFCURVE",
"438 421 OFFCURVE",
"561 421 CURVE SMOOTH",
"582 421 OFFCURVE",
"595 418 OFFCURVE",
"614 409 CURVE",
"629 379 OFFCURVE",
"628 306 OFFCURVE",
"628 271 CURVE SMOOTH",
"628 248 OFFCURVE",
"658 199 OFFCURVE",
"681 199 CURVE SMOOTH",
"692 199 OFFCURVE",
"693 208 OFFCURVE",
"696 216 CURVE SMOOTH",
"736 310 OFFCURVE",
"733 419 OFFCURVE",
"865 419 CURVE SMOOTH",
"966 419 OFFCURVE",
"1035 378 OFFCURVE",
"1035 270 CURVE SMOOTH",
"1035 172 OFFCURVE",
"971 80 OFFCURVE",
"867 80 CURVE SMOOTH",
"850 80 OFFCURVE",
"829 81 OFFCURVE",
"814 89 CURVE",
"814 91 OFFCURVE",
"813 94 OFFCURVE",
"813 96 CURVE",
"813 141 OFFCURVE",
"848 185 OFFCURVE",
"896 185 CURVE SMOOTH",
"964 185 OFFCURVE",
"997 94 OFFCURVE",
"1026 94 CURVE SMOOTH",
"1034 94 OFFCURVE",
"1037 98 OFFCURVE",
"1037 106 CURVE SMOOTH",
"1037 125 OFFCURVE",
"1020 146 OFFCURVE",
"1009 161 CURVE SMOOTH",
"975 205 OFFCURVE",
"914 266 OFFCURVE",
"855 266 CURVE SMOOTH",
"793 266 OFFCURVE",
"749 215 OFFCURVE",
"749 155 CURVE SMOOTH",
"749 96 OFFCURVE",
"796 28 OFFCURVE",
"852 8 CURVE SMOOTH",
"870 1 OFFCURVE",
"889 -1 OFFCURVE",
"909 -1 CURVE SMOOTH",
"1029 -1 OFFCURVE",
"1098 101 OFFCURVE",
"1098 213 CURVE SMOOTH",
"1098 315 OFFCURVE",
"1036 423 OFFCURVE",
"946 471 CURVE SMOOTH",
"909 491 OFFCURVE",
"866 500 OFFCURVE",
"824 500 CURVE SMOOTH",
"736 500 OFFCURVE",
"699 467 OFFCURVE",
"669 387 CURVE",
"664 401 OFFCURVE",
"657 413 OFFCURVE",
"649 425 CURVE SMOOTH",
"618 472 OFFCURVE",
"577 502 OFFCURVE",
"519 502 CURVE SMOOTH",
"493 502 OFFCURVE",
"468 498 OFFCURVE",
"445 486 CURVE SMOOTH",
"362 442 OFFCURVE",
"333 317 OFFCURVE",
"333 231 CURVE SMOOTH",
"333 157 OFFCURVE",
"357 72 OFFCURVE",
"416 24 CURVE SMOOTH",
"432 11 OFFCURVE",
"453 0 OFFCURVE",
"474 0 CURVE SMOOTH",
"521 0 OFFCURVE",
"560 26 OFFCURVE",
"560 76 CURVE SMOOTH",
"560 132 OFFCURVE",
"502 213 OFFCURVE",
"451 234 CURVE SMOOTH",
"432 242 OFFCURVE",
"390 246 OFFCURVE",
"369 246 CURVE SMOOTH",
"334 246 OFFCURVE",
"300 242 OFFCURVE",
"266 234 CURVE",
"263 315 OFFCURVE",
"205 399 OFFCURVE",
"118 399 CURVE SMOOTH",
"84 399 OFFCURVE",
"17 383 OFFCURVE",
"17 339 CURVE SMOOTH",
"17 317 OFFCURVE",
"46 266 OFFCURVE",
"70 266 CURVE SMOOTH",
"87 266 OFFCURVE",
"74 280 OFFCURVE",
"88 293 CURVE SMOOTH",
"106 310 OFFCURVE",
"136 318 OFFCURVE",
"160 318 CURVE SMOOTH"
);
}
);
width = 1115;
}
);
leftKerningGroup = general;
rightKerningGroup = general;
},
{
glyphname = A_a;
layers = (
{
guideLines = (
{
angle = 90;
position = "{217, 0}";
}
);
layerId = "AD4F0B22-3094-4AE6-A818-B3E1049B6D0D";
paths = (
{
closed = 1;
nodes = (
"174 318 OFFCURVE",
"187 316 OFFCURVE",
"200 310 CURVE",
"201 304 OFFCURVE",
"202 297 OFFCURVE",
"202 290 CURVE SMOOTH",
"202 244 OFFCURVE",
"141 217 OFFCURVE",
"105 203 CURVE SMOOTH",
"99 201 OFFCURVE",
"71 191 OFFCURVE",
"68 189 CURVE SMOOTH",
"65 187 OFFCURVE",
"64 182 OFFCURVE",
"64 178 CURVE SMOOTH",
"64 158 OFFCURVE",
"96 110 OFFCURVE",
"117 110 CURVE SMOOTH",
"175 110 OFFCURVE",
"231 131 OFFCURVE",
"286 146 CURVE SMOOTH",
"327 157 OFFCURVE",
"369 165 OFFCURVE",
"411 165 CURVE SMOOTH",
"426 165 OFFCURVE",
"440 164 OFFCURVE",
"455 162 CURVE SMOOTH",
"473 159 OFFCURVE",
"497 157 OFFCURVE",
"497 133 CURVE SMOOTH",
"497 100 OFFCURVE",
"461 81 OFFCURVE",
"432 81 CURVE SMOOTH",
"425 81 OFFCURVE",
"418 82 OFFCURVE",
"412 85 CURVE",
"399 112 OFFCURVE",
"397 145 OFFCURVE",
"397 174 CURVE SMOOTH",
"397 274 OFFCURVE",
"438 421 OFFCURVE",
"561 421 CURVE SMOOTH",
"582 421 OFFCURVE",
"596 418 OFFCURVE",
"614 409 CURVE",
"629 378 OFFCURVE",
"628 306 OFFCURVE",
"628 271 CURVE SMOOTH",
"628 248 OFFCURVE",
"658 199 OFFCURVE",
"681 199 CURVE SMOOTH",
"692 199 OFFCURVE",
"693 208 OFFCURVE",
"696 216 CURVE SMOOTH",
"736 310 OFFCURVE",
"733 419 OFFCURVE",
"865 419 CURVE SMOOTH",
"966 419 OFFCURVE",
"1035 378 OFFCURVE",
"1035 270 CURVE SMOOTH",
"1035 173 OFFCURVE",
"971 80 OFFCURVE",
"867 80 CURVE SMOOTH",
"852 80 OFFCURVE",
"836 82 OFFCURVE",
"822 87 CURVE",
"822 89 OFFCURVE",
"821 90 OFFCURVE",
"821 92 CURVE",
"821 136 OFFCURVE",
"856 195 OFFCURVE",
"905 195 CURVE SMOOTH",
"946 195 OFFCURVE",
"968 161 OFFCURVE",
"985 128 CURVE SMOOTH",
"999 102 OFFCURVE",
"1011 74 OFFCURVE",
"1011 44 CURVE SMOOTH",
"1011 -85 OFFCURVE",
"757 -85 OFFCURVE",
"669 -85 CURVE SMOOTH",
"556 -85 OFFCURVE",
"442 -79 OFFCURVE",
"329 -79 CURVE SMOOTH",
"255 -79 OFFCURVE",
"95 -80 OFFCURVE",
"47 -143 CURVE SMOOTH",
"41 -151 OFFCURVE",
"33 -165 OFFCURVE",
"33 -175 CURVE SMOOTH",
"33 -195 OFFCURVE",
"65 -243 OFFCURVE",
"86 -243 CURVE SMOOTH",
"98 -243 OFFCURVE",
"99 -228 OFFCURVE",
"104 -220 CURVE SMOOTH",
"115 -203 OFFCURVE",
"139 -191 OFFCURVE",
"158 -184 CURVE SMOOTH",
"221 -162 OFFCURVE",
"315 -160 OFFCURVE",
"382 -160 CURVE SMOOTH",
"484 -160 OFFCURVE",
"585 -166 OFFCURVE",
"687 -166 CURVE SMOOTH",
"797 -166 OFFCURVE",
"1074 -174 OFFCURVE",
"1074 -12 CURVE SMOOTH",
"1074 82 OFFCURVE",
"968 276 OFFCURVE",
"862 276 CURVE SMOOTH",
"801 276 OFFCURVE",
"758 210 OFFCURVE",
"758 154 CURVE SMOOTH",
"758 95 OFFCURVE",
"798 32 OFFCURVE",
"853 9 CURVE SMOOTH",
"871 2 OFFCURVE",
"891 -1 OFFCURVE",
"910 -1 CURVE SMOOTH",
"1030 -1 OFFCURVE",
"1098 101 OFFCURVE",
"1098 213 CURVE SMOOTH",
"1098 315 OFFCURVE",
"1036 423 OFFCURVE",
"946 471 CURVE SMOOTH",
"909 491 OFFCURVE",
"866 500 OFFCURVE",
"824 500 CURVE SMOOTH",
"736 500 OFFCURVE",
"699 467 OFFCURVE",
"669 387 CURVE",
"664 401 OFFCURVE",
"657 413 OFFCURVE",
"649 425 CURVE SMOOTH",
"618 472 OFFCURVE",
"577 502 OFFCURVE",
"519 502 CURVE SMOOTH",
"493 502 OFFCURVE",
"468 498 OFFCURVE",
"445 486 CURVE SMOOTH",
"362 443 OFFCURVE",
"333 317 OFFCURVE",
"333 231 CURVE SMOOTH",
"333 157 OFFCURVE",
"356 72 OFFCURVE",
"416 24 CURVE SMOOTH",
"432 11 OFFCURVE",
"453 0 OFFCURVE",
"474 0 CURVE SMOOTH",
"521 0 OFFCURVE",
"560 26 OFFCURVE",
"560 76 CURVE SMOOTH",
"560 132 OFFCURVE",
"502 213 OFFCURVE",
"451 234 CURVE SMOOTH",
"432 242 OFFCURVE",
"390 246 OFFCURVE",
"369 246 CURVE SMOOTH",
"334 246 OFFCURVE",
"300 242 OFFCURVE",
"266 234 CURVE",
"263 314 OFFCURVE",
"205 399 OFFCURVE",
"118 399 CURVE SMOOTH",
"84 399 OFFCURVE",
"17 383 OFFCURVE",
"17 339 CURVE SMOOTH",
"17 317 OFFCURVE",
"45 266 OFFCURVE",
"70 266 CURVE SMOOTH",
"87 266 OFFCURVE",
"74 280 OFFCURVE",
"88 293 CURVE SMOOTH",
"106 310 OFFCURVE",
"136 318 OFFCURVE",
"160 318 CURVE SMOOTH"
);
}
);
width = 1115;
}
);
leftKerningGroup = general;
rightKerningGroup = general;
},
{
glyphname = A_i;
layers = (
{
layerId = "AD4F0B22-3094-4AE6-A818-B3E1049B6D0D";
paths = (
{
closed = 1;
nodes = (
"174 309 OFFCURVE",
"214 298 OFFCURVE",
"237 278 CURVE",
"237 276 LINE",
"237 248 OFFCURVE",
"188 238 OFFCURVE",
"167 238 CURVE SMOOTH",
"137 238 OFFCURVE",
"107 244 OFFCURVE",
"81 259 CURVE",
"81 259 LINE",
"81 334 OFFCURVE",
"201 415 OFFCURVE",
"270 415 CURVE SMOOTH",
"284 415 OFFCURVE",
"314 412 OFFCURVE",
"323 401 CURVE SMOOTH",
"325 399 OFFCURVE",
"327 390 OFFCURVE",
"328 387 CURVE SMOOTH",
"341 344 OFFCURVE",
"328 316 OFFCURVE",
"365 280 CURVE SMOOTH",
"370 275 OFFCURVE",
"382 266 OFFCURVE",
"389 266 CURVE SMOOTH",
"393 266 OFFCURVE",
"396 266 OFFCURVE",
"398 269 CURVE SMOOTH",
"400 272 OFFCURVE",
"400 277 OFFCURVE",
"400 281 CURVE SMOOTH",
"400 301 OFFCURVE",
"402 320 OFFCURVE",
"407 339 CURVE SMOOTH",
"421 389 OFFCURVE",
"460 419 OFFCURVE",
"512 419 CURVE SMOOTH",
"525 419 OFFCURVE",
"578 409 OFFCURVE",
"584 397 CURVE SMOOTH",
"590 385 OFFCURVE",
"593 363 OFFCURVE",
"593 350 CURVE SMOOTH",
"593 324 OFFCURVE",
"584 298 OFFCURVE",
"570 276 CURVE SMOOTH",
"501 164 OFFCURVE",
"387 231 OFFCURVE",
"324 137 CURVE SMOOTH",
"318 128 OFFCURVE",
"310 118 OFFCURVE",
"310 106 CURVE SMOOTH",
"310 91 OFFCURVE",
"316 76 OFFCURVE",
"324 63 CURVE SMOOTH",
"335 45 OFFCURVE",
"349 29 OFFCURVE",
"368 19 CURVE SMOOTH",
"419 -9 OFFCURVE",
"595 -1 OFFCURVE",
"659 -1 CURVE SMOOTH",
"691 -1 OFFCURVE",
"724 -2 OFFCURVE",
"756 -6 CURVE SMOOTH",
"764 -7 OFFCURVE",
"788 -14 OFFCURVE",
"790 -14 CURVE",
"798 -14 OFFCURVE",
"801 -10 OFFCURVE",
"801 -2 CURVE SMOOTH",
"801 26 OFFCURVE",
"772 58 OFFCURVE",
"747 68 CURVE SMOOTH",
"708 84 OFFCURVE",
"570 79 OFFCURVE",
"522 79 CURVE SMOOTH",
"481 79 OFFCURVE",
"440 80 OFFCURVE",
"399 83 CURVE",
"466 142 OFFCURVE",
"562 91 OFFCURVE",
"630 202 CURVE SMOOTH",
"647 229 OFFCURVE",
"656 261 OFFCURVE",
"656 293 CURVE SMOOTH",
"656 394 OFFCURVE",
"578 500 OFFCURVE",
"471 500 CURVE SMOOTH",
"416 500 OFFCURVE",
"375 478 OFFCURVE",
"352 426 CURVE",
"321 468 OFFCURVE",
"281 496 OFFCURVE",
"228 496 CURVE SMOOTH",
"143 496 OFFCURVE",
"17 406 OFFCURVE",
"17 315 CURVE SMOOTH",
"17 292 OFFCURVE",
"27 270 OFFCURVE",
"38 251 CURVE SMOOTH",
"75 188 OFFCURVE",
"138 157 OFFCURVE",
"210 157 CURVE SMOOTH",
"249 157 OFFCURVE",
"300 171 OFFCURVE",
"300 219 CURVE SMOOTH",
"300 238 OFFCURVE",
"293 256 OFFCURVE",
"285 273 CURVE SMOOTH",
"252 339 OFFCURVE",
"179 390 OFFCURVE",
"104 390 CURVE SMOOTH",
"88 390 OFFCURVE",
"33 386 OFFCURVE",
"33 363 CURVE SMOOTH",
"33 343 OFFCURVE",
"65 295 OFFCURVE",
"86 295 CURVE SMOOTH",
"94 295 OFFCURVE",
"102 301 OFFCURVE",
"110 304 CURVE SMOOTH",
"120 308 OFFCURVE",
"133 309 OFFCURVE",
"144 309 CURVE SMOOTH"
);
}
);
width = 818;
}
);
leftKerningGroup = general;
rightKerningGroup = general;
},
{
glyphname = A_I;
layers = (
{
guideLines = (
{
angle = 90;
position = "{217, 0}";
}
);
layerId = "AD4F0B22-3094-4AE6-A818-B3E1049B6D0D";
paths = (
{
closed = 1;
nodes = (
"174 309 OFFCURVE",
"214 298 OFFCURVE",
"237 278 CURVE",
"237 276 LINE",
"237 248 OFFCURVE",
"188 238 OFFCURVE",
"167 238 CURVE SMOOTH",
"137 238 OFFCURVE",
"107 244 OFFCURVE",
"81 259 CURVE",
"81 259 LINE",
"81 334 OFFCURVE",
"201 415 OFFCURVE",
"270 415 CURVE SMOOTH",
"284 415 OFFCURVE",
"314 412 OFFCURVE",
"323 401 CURVE SMOOTH",
"325 399 OFFCURVE",
"327 390 OFFCURVE",
"328 387 CURVE SMOOTH",
"341 344 OFFCURVE",
"328 316 OFFCURVE",
"365 280 CURVE SMOOTH",
"370 275 OFFCURVE",
"382 266 OFFCURVE",
"389 266 CURVE SMOOTH",
"393 266 OFFCURVE",
"396 266 OFFCURVE",
"398 269 CURVE",
"399 270 OFFCURVE",
"403 325 OFFCURVE",
"407 339 CURVE SMOOTH",
"421 389 OFFCURVE",
"460 419 OFFCURVE",
"512 419 CURVE SMOOTH",
"525 419 OFFCURVE",
"578 409 OFFCURVE",
"584 397 CURVE SMOOTH",
"590 385 OFFCURVE",
"593 363 OFFCURVE",
"593 350 CURVE SMOOTH",
"593 324 OFFCURVE",
"584 298 OFFCURVE",
"570 276 CURVE SMOOTH",
"501 164 OFFCURVE",
"387 230 OFFCURVE",
"324 137 CURVE SMOOTH",
"318 128 OFFCURVE",
"310 118 OFFCURVE",
"310 106 CURVE SMOOTH",
"310 70 OFFCURVE",
"343 30 OFFCURVE",
"375 17 CURVE SMOOTH",
"432 -7 OFFCURVE",
"624 -1 OFFCURVE",
"693 -1 CURVE SMOOTH",
"740 -1 OFFCURVE",
"786 -1 OFFCURVE",
"833 -5 CURVE SMOOTH",
"845 -6 OFFCURVE",
"856 -8 OFFCURVE",
"867 -12 CURVE",
"868 -12 OFFCURVE",
"873 -14 OFFCURVE",
"874 -14 CURVE",
"882 -14 OFFCURVE",
"885 -10 OFFCURVE",
"885 -2 CURVE SMOOTH",
"885 26 OFFCURVE",
"855 58 OFFCURVE",
"830 68 CURVE SMOOTH",
"786 86 OFFCURVE",
"572 79 OFFCURVE",
"509 79 CURVE SMOOTH",
"473 79 OFFCURVE",
"437 79 OFFCURVE",
"401 84 CURVE",
"458 139 OFFCURVE",
"562 91 OFFCURVE",
"630 202 CURVE SMOOTH",
"647 229 OFFCURVE",
"656 261 OFFCURVE",
"656 293 CURVE SMOOTH",
"656 394 OFFCURVE",
"578 500 OFFCURVE",
"471 500 CURVE SMOOTH",
"416 500 OFFCURVE",
"375 478 OFFCURVE",
"352 426 CURVE",
"321 468 OFFCURVE",
"281 496 OFFCURVE",
"228 496 CURVE SMOOTH",
"143 496 OFFCURVE",
"17 406 OFFCURVE",
"17 315 CURVE SMOOTH",
"17 292 OFFCURVE",
"27 270 OFFCURVE",
"38 251 CURVE SMOOTH",
"75 188 OFFCURVE",
"138 157 OFFCURVE",
"210 157 CURVE SMOOTH",
"249 157 OFFCURVE",
"300 171 OFFCURVE",
"300 219 CURVE SMOOTH",
"300 238 OFFCURVE",
"293 256 OFFCURVE",
"285 273 CURVE SMOOTH",
"252 339 OFFCURVE",
"179 390 OFFCURVE",
"104 390 CURVE SMOOTH",
"88 390 OFFCURVE",
"33 386 OFFCURVE",
"33 363 CURVE SMOOTH",
"33 343 OFFCURVE",
"65 295 OFFCURVE",
"86 295 CURVE SMOOTH",
"94 295 OFFCURVE",
"102 301 OFFCURVE",
"110 304 CURVE SMOOTH",
"121 307 OFFCURVE",
"133 309 OFFCURVE",
"144 309 CURVE SMOOTH"
);
},
{
closed = 1;
nodes = (
"753 438 OFFCURVE",
"767 448 OFFCURVE",
"785 448 CURVE SMOOTH",
"789 448 OFFCURVE",
"794 448 OFFCURVE",
"798 447 CURVE",
"798 442 LINE",
"798 428 OFFCURVE",
"796 414 OFFCURVE",
"796 400 CURVE SMOOTH",
"796 380 OFFCURVE",
"828 332 OFFCURVE",
"849 332 CURVE SMOOTH",
"876 332 OFFCURVE",
"895 448 OFFCURVE",
"955 448 CURVE SMOOTH",
"985 448 OFFCURVE",
"987 423 OFFCURVE",
"987 399 CURVE SMOOTH",
"987 376 OFFCURVE",
"985 350 OFFCURVE",
"976 329 CURVE SMOOTH",
"926 207 OFFCURVE",
"690 249 OFFCURVE",
"690 161 CURVE SMOOTH",
"690 141 OFFCURVE",
"722 93 OFFCURVE",
"743 93 CURVE SMOOTH",
"756 93 OFFCURVE",
"753 105 OFFCURVE",
"758 113 CURVE SMOOTH",
"764 122 OFFCURVE",
"785 130 OFFCURVE",
"795 134 CURVE SMOOTH",
"812 140 OFFCURVE",
"830 144 OFFCURVE",
"847 148 CURVE SMOOTH",
"967 179 OFFCURVE",
"1051 198 OFFCURVE",
"1051 343 CURVE SMOOTH",
"1051 369 OFFCURVE",
"1044 395 OFFCURVE",
"1034 419 CURVE SMOOTH",
"1015 464 OFFCURVE",
"966 529 OFFCURVE",
"911 529 CURVE SMOOTH",
"876 529 OFFCURVE",
"852 503 OFFCURVE",
"836 474 CURVE",
"817 506 OFFCURVE",
"781 529 OFFCURVE",
"744 529 CURVE SMOOTH",
"709 529 OFFCURVE",
"689 512 OFFCURVE",
"689 476 CURVE SMOOTH",
"689 435 OFFCURVE",
"719 364 OFFCURVE",
"751 339 CURVE SMOOTH",
"755 336 OFFCURVE",
"763 331 OFFCURVE",
"768 331 CURVE SMOOTH",
"776 331 OFFCURVE",
"779 335 OFFCURVE",
"779 343 CURVE SMOOTH",
"779 367 OFFCURVE",
"753 387 OFFCURVE",
"753 419 CURVE SMOOTH"
);
}
);
width = 1068;
}
);
leftKerningGroup = general;
rightKerningGroup = general;
},
{
glyphname = A_u;
layers = (
{
layerId = "AD4F0B22-3094-4AE6-A818-B3E1049B6D0D";
paths = (
{
closed = 1;
nodes = (
"137 406 LINE",
"146 394 OFFCURVE",
"154 373 OFFCURVE",
"154 358 CURVE SMOOTH",
"154 328 OFFCURVE",
"119 318 OFFCURVE",
"95 318 CURVE SMOOTH",
"90 318 OFFCURVE",
"85 319 OFFCURVE",
"80 320 CURVE",
"81 389 OFFCURVE",
"137 421 OFFCURVE",
"200 421 CURVE SMOOTH",
"226 421 OFFCURVE",
"258 414 OFFCURVE",
"279 399 CURVE",
"287 381 OFFCURVE",
"294 362 OFFCURVE",
"294 342 CURVE SMOOTH",
"294 227 OFFCURVE",
"165 202 OFFCURVE",
"165 127 CURVE SMOOTH",
"165 108 OFFCURVE",
"175 84 OFFCURVE",
"185 68 CURVE SMOOTH",
"197 49 OFFCURVE",
"212 32 OFFCURVE",
"232 21 CURVE SMOOTH",
"274 -2 OFFCURVE",
"348 -2 OFFCURVE",
"396 -2 CURVE SMOOTH",
"409 -2 OFFCURVE",
"510 -1 OFFCURVE",
"513 2 CURVE SMOOTH",
"516 5 OFFCURVE",
"517 9 OFFCURVE",
"517 13 CURVE SMOOTH",
"517 33 OFFCURVE",
"485 81 OFFCURVE",
"464 81 CURVE SMOOTH",
"427 81 OFFCURVE",
"392 79 OFFCURVE",
"355 79 CURVE SMOOTH",
"314 79 OFFCURVE",
"274 81 OFFCURVE",
"234 88 CURVE",
"234 88 LINE",
"234 88 LINE",
"245 105 OFFCURVE",
"260 118 OFFCURVE",
"275 132 CURVE SMOOTH",
"325 179 OFFCURVE",
"357 213 OFFCURVE",
"357 286 CURVE SMOOTH",
"357 310 OFFCURVE",
"350 335 OFFCURVE",
"342 358 CURVE SMOOTH",
"312 441 OFFCURVE",
"252 502 OFFCURVE",
"159 502 CURVE SMOOTH",
"76 502 OFFCURVE",
"17 462 OFFCURVE",
"17 374 CURVE SMOOTH",
"17 315 OFFCURVE",
"74 237 OFFCURVE",
"137 237 CURVE SMOOTH",
"180 237 OFFCURVE",
"217 252 OFFCURVE",
"217 301 CURVE SMOOTH",
"217 356 OFFCURVE",
"168 446 OFFCURVE",
"121 476 CURVE SMOOTH",
"113 481 OFFCURVE",
"102 487 OFFCURVE",
"92 487 CURVE SMOOTH",
"79 487 OFFCURVE",
"60 478 OFFCURVE",
"60 463 CURVE SMOOTH",
"60 443 OFFCURVE",
"92 395 OFFCURVE",
"113 395 CURVE SMOOTH",
"124 395 OFFCURVE",
"125 406 OFFCURVE",
"135 406 CURVE"
);
}
);
width = 534;
}
);
leftKerningGroup = general;
rightKerningGroup = general;
},
{
glyphname = A_U;
layers = (
{
guideLines = (
{
angle = 90;
position = "{217, 0}";
}
);
layerId = "AD4F0B22-3094-4AE6-A818-B3E1049B6D0D";
paths = (
{
closed = 1;
nodes = (
"375 14 OFFCURVE",
"377 2 OFFCURVE",
"377 -11 CURVE SMOOTH",
"377 -41 OFFCURVE",
"366 -92 OFFCURVE",
"327 -92 CURVE SMOOTH",
"324 -92 OFFCURVE",
"321 -92 OFFCURVE",
"318 -91 CURVE",
"318 -90 LINE",
"318 -55 OFFCURVE",
"368 -10 OFFCURVE",
"403 -10 CURVE SMOOTH",
"451 -10 OFFCURVE",
"465 -64 OFFCURVE",
"465 -103 CURVE SMOOTH",
"465 -155 OFFCURVE",
"426 -192 OFFCURVE",
"374 -192 CURVE SMOOTH",
"345 -192 OFFCURVE",
"330 -183 OFFCURVE",
"309 -165 CURVE",
"309 -165 LINE",
"306 -156 OFFCURVE",
"301 -142 OFFCURVE",
"301 -133 CURVE SMOOTH",
"301 -102 OFFCURVE",
"313 -72 OFFCURVE",
"334 -49 CURVE SMOOTH",
"341 -41 OFFCURVE",
"351 -35 OFFCURVE",
"357 -27 CURVE SMOOTH",
"359 -25 OFFCURVE",
"359 -21 OFFCURVE",
"359 -18 CURVE SMOOTH",
"359 2 OFFCURVE",
"327 50 OFFCURVE",
"306 50 CURVE SMOOTH",
"297 50 OFFCURVE",
"289 41 OFFCURVE",
"284 35 CURVE SMOOTH",
"253 2 OFFCURVE",
"238 -30 OFFCURVE",
"238 -76 CURVE SMOOTH",
"238 -161 OFFCURVE",
"326 -273 OFFCURVE",
"415 -273 CURVE SMOOTH",
"483 -273 OFFCURVE",
"529 -227 OFFCURVE",
"529 -159 CURVE SMOOTH",
"529 -82 OFFCURVE",
"482 7 OFFCURVE",
"418 50 CURVE SMOOTH",
"402 61 OFFCURVE",
"382 71 OFFCURVE",
"362 71 CURVE SMOOTH",
"353 71 OFFCURVE",
"344 70 OFFCURVE",
"335 67 CURVE SMOOTH",
"297 56 OFFCURVE",
"254 8 OFFCURVE",
"254 -33 CURVE SMOOTH",
"254 -46 OFFCURVE",
"256 -58 OFFCURVE",
"260 -70 CURVE SMOOTH",
"273 -112 OFFCURVE",
"321 -173 OFFCURVE",
"369 -173 CURVE SMOOTH",
"425 -173 OFFCURVE",
"440 -113 OFFCURVE",
"440 -67 CURVE SMOOTH",
"440 -28 OFFCURVE",
"439 -3 OFFCURVE",
"409 26 CURVE SMOOTH",
"404 30 OFFCURVE",
"393 39 OFFCURVE",
"386 39 CURVE SMOOTH",
"378 39 OFFCURVE",
"375 35 OFFCURVE",
"375 27 CURVE SMOOTH"
);
},
{
closed = 1;
nodes = (
"137 406 LINE",
"146 394 OFFCURVE",
"154 373 OFFCURVE",
"154 358 CURVE SMOOTH",
"154 328 OFFCURVE",
"119 318 OFFCURVE",
"95 318 CURVE SMOOTH",
"90 318 OFFCURVE",
"85 319 OFFCURVE",
"80 320 CURVE",
"81 389 OFFCURVE",
"137 421 OFFCURVE",
"200 421 CURVE SMOOTH",
"226 421 OFFCURVE",
"258 414 OFFCURVE",
"279 399 CURVE",
"287 381 OFFCURVE",
"294 362 OFFCURVE",
"294 342 CURVE SMOOTH",
"294 227 OFFCURVE",
"165 202 OFFCURVE",
"165 127 CURVE SMOOTH",
"165 108 OFFCURVE",
"175 84 OFFCURVE",
"185 68 CURVE SMOOTH",
"197 49 OFFCURVE",
"212 32 OFFCURVE",
"232 21 CURVE SMOOTH",
"274 -2 OFFCURVE",
"348 -2 OFFCURVE",
"396 -2 CURVE SMOOTH",
"409 -2 OFFCURVE",
"510 -1 OFFCURVE",
"513 2 CURVE SMOOTH",
"516 5 OFFCURVE",
"517 9 OFFCURVE",
"517 13 CURVE SMOOTH",
"517 33 OFFCURVE",
"485 81 OFFCURVE",
"464 81 CURVE SMOOTH",
"427 81 OFFCURVE",
"392 79 OFFCURVE",
"355 79 CURVE SMOOTH",
"314 79 OFFCURVE",
"274 81 OFFCURVE",
"234 88 CURVE",
"234 88 LINE",
"234 88 LINE",
"245 105 OFFCURVE",
"260 118 OFFCURVE",
"275 132 CURVE SMOOTH",
"325 179 OFFCURVE",
"357 213 OFFCURVE",
"357 286 CURVE SMOOTH",
"357 310 OFFCURVE",
"350 335 OFFCURVE",
"342 358 CURVE SMOOTH",
"312 441 OFFCURVE",
"252 502 OFFCURVE",
"159 502 CURVE SMOOTH",
"76 502 OFFCURVE",
"17 462 OFFCURVE",
"17 374 CURVE SMOOTH",
"17 315 OFFCURVE",
"74 237 OFFCURVE",
"137 237 CURVE SMOOTH",
"180 237 OFFCURVE",
"217 252 OFFCURVE",
"217 301 CURVE SMOOTH",
"217 356 OFFCURVE",
"168 446 OFFCURVE",
"121 476 CURVE SMOOTH",
"113 481 OFFCURVE",
"102 487 OFFCURVE",
"92 487 CURVE SMOOTH",
"79 487 OFFCURVE",
"60 478 OFFCURVE",
"60 463 CURVE SMOOTH",
"60 443 OFFCURVE",
"92 395 OFFCURVE",
"113 395 CURVE SMOOTH",
"124 395 OFFCURVE",
"125 406 OFFCURVE",
"135 406 CURVE"
);
}
);
width = 542;
}
);
leftKerningGroup = general;
rightKerningGroup = general;
},
{
glyphname = A_R;
layers = (
{
layerId = "AD4F0B22-3094-4AE6-A818-B3E1049B6D0D";
paths = (
{
closed = 1;
nodes = (
"269 380 OFFCURVE",
"262 401 OFFCURVE",
"251 420 CURVE SMOOTH",
"222 472 OFFCURVE",
"173 502 OFFCURVE",
"113 502 CURVE SMOOTH",
"50 502 OFFCURVE",
"17 468 OFFCURVE",
"17 405 CURVE SMOOTH",
"17 382 OFFCURVE",
"25 359 OFFCURVE",
"37 339 CURVE SMOOTH",
"98 233 OFFCURVE",
"223 245 OFFCURVE",
"322 202 CURVE SMOOTH",
"329 199 OFFCURVE",
"344 191 OFFCURVE",
"349 186 CURVE SMOOTH",
"356 178 OFFCURVE",
"360 162 OFFCURVE",
"360 152 CURVE SMOOTH",
"360 96 OFFCURVE",
"271 78 OFFCURVE",
"228 78 CURVE SMOOTH",
"216 78 OFFCURVE",
"204 79 OFFCURVE",
"192 81 CURVE",
"209 147 OFFCURVE",
"481 155 OFFCURVE",
"544 254 CURVE SMOOTH",
"556 273 OFFCURVE",
"558 300 OFFCURVE",
"558 322 CURVE SMOOTH",
"558 343 OFFCURVE",
"556 365 OFFCURVE",
"551 386 CURVE SMOOTH",
"539 433 OFFCURVE",
"493 499 OFFCURVE",
"439 499 CURVE SMOOTH",
"376 499 OFFCURVE",
"316 439 OFFCURVE",
"316 376 CURVE SMOOTH",
"316 307 OFFCURVE",
"375 242 OFFCURVE",
"434 213 CURVE SMOOTH",
"439 210 OFFCURVE",
"459 201 OFFCURVE",
"463 201 CURVE SMOOTH",
"471 201 OFFCURVE",
"474 205 OFFCURVE",
"474 213 CURVE SMOOTH",
"474 222 OFFCURVE",
"469 232 OFFCURVE",
"465 240 CURVE SMOOTH",
"436 292 OFFCURVE",
"404 279 OFFCURVE",
"380 307 CURVE",
"380 311 OFFCURVE",
"379 315 OFFCURVE",
"379 319 CURVE SMOOTH",
"379 365 OFFCURVE",
"436 418 OFFCURVE",
"481 418 CURVE SMOOTH",
"485 418 OFFCURVE",
"488 418 OFFCURVE",
"492 417 CURVE",
"494 408 OFFCURVE",
"495 398 OFFCURVE",
"495 389 CURVE SMOOTH",
"495 371 OFFCURVE",
"495 349 OFFCURVE",
"487 333 CURVE SMOOTH",
"430 224 OFFCURVE",
"127 241 OFFCURVE",
"127 132 CURVE SMOOTH",
"127 94 OFFCURVE",
"168 27 OFFCURVE",
"202 10 CURVE SMOOTH",
"222 0 OFFCURVE",
"247 -3 OFFCURVE",
"269 -3 CURVE SMOOTH",
"330 -3 OFFCURVE",
"423 18 OFFCURVE",
"423 95 CURVE SMOOTH",
"423 127 OFFCURVE",
"409 163 OFFCURVE",
"392 190 CURVE SMOOTH",
"335 285 OFFCURVE",
"257 292 OFFCURVE",
"159 318 CURVE SMOOTH",
"132 325 OFFCURVE",
"105 333 OFFCURVE",
"81 347 CURVE",
"81 349 LINE",
"81 396 OFFCURVE",
"109 422 OFFCURVE",
"155 422 CURVE SMOOTH",
"172 422 OFFCURVE",
"189 419 OFFCURVE",
"205 413 CURVE",
"204 378 OFFCURVE",
"165 348 OFFCURVE",
"135 338 CURVE SMOOTH",
"129 336 OFFCURVE",
"109 332 OFFCURVE",
"106 330 CURVE SMOOTH",
"103 328 OFFCURVE",
"102 322 OFFCURVE",
"102 319 CURVE SMOOTH",
"102 299 OFFCURVE",
"134 251 OFFCURVE",
"155 251 CURVE SMOOTH",
"165 251 OFFCURVE",
"178 256 OFFCURVE",
"187 259 CURVE SMOOTH",
"229 275 OFFCURVE",
"269 310 OFFCURVE",
"269 358 CURVE SMOOTH"
);
}
);
width = 575;
}
);
leftKerningGroup = general;
rightKerningGroup = general;
},
{
glyphname = e_A;
layers = (
{
layerId = "AD4F0B22-3094-4AE6-A818-B3E1049B6D0D";
paths = (
{
closed = 1;
nodes = (
"174 318 OFFCURVE",
"187 316 OFFCURVE",
"200 310 CURVE",
"201 304 OFFCURVE",
"202 297 OFFCURVE",
"202 290 CURVE SMOOTH",
"202 244 OFFCURVE",
"141 217 OFFCURVE",
"105 203 CURVE SMOOTH",
"99 201 OFFCURVE",
"71 191 OFFCURVE",
"68 189 CURVE SMOOTH",
"65 187 OFFCURVE",
"64 182 OFFCURVE",
"64 178 CURVE SMOOTH",
"64 158 OFFCURVE",
"96 110 OFFCURVE",
"117 110 CURVE SMOOTH",
"175 110 OFFCURVE",
"231 131 OFFCURVE",
"286 146 CURVE SMOOTH",
"327 157 OFFCURVE",
"369 165 OFFCURVE",
"411 165 CURVE SMOOTH",
"426 165 OFFCURVE",
"440 164 OFFCURVE",
"455 162 CURVE SMOOTH",
"473 159 OFFCURVE",
"497 157 OFFCURVE",
"497 133 CURVE SMOOTH",
"497 100 OFFCURVE",
"462 81 OFFCURVE",
"433 81 CURVE SMOOTH",
"428 81 OFFCURVE",
"423 81 OFFCURVE",
"419 83 CURVE",
"410 105 OFFCURVE",
"409 134 OFFCURVE",
"409 157 CURVE SMOOTH",
"409 242 OFFCURVE",
"446 368 OFFCURVE",
"529 407 CURVE SMOOTH",
"547 415 OFFCURVE",
"567 417 OFFCURVE",
"586 417 CURVE SMOOTH",
"621 417 OFFCURVE",
"676 407 OFFCURVE",
"696 375 CURVE SMOOTH",
"711 351 OFFCURVE",
"716 306 OFFCURVE",
"716 278 CURVE SMOOTH",
"716 232 OFFCURVE",
"710 186 OFFCURVE",
"697 142 CURVE SMOOTH",
"694 131 OFFCURVE",
"674 79 OFFCURVE",
"674 73 CURVE SMOOTH",
"674 53 OFFCURVE",
"706 5 OFFCURVE",
"727 5 CURVE SMOOTH",
"739 5 OFFCURVE",
"743 25 OFFCURVE",
"746 34 CURVE SMOOTH",
"767 95 OFFCURVE",
"780 156 OFFCURVE",
"780 221 CURVE SMOOTH",
"780 357 OFFCURVE",
"693 498 OFFCURVE",
"545 498 CURVE SMOOTH",
"525 498 OFFCURVE",
"505 497 OFFCURVE",
"486 490 CURVE SMOOTH",
"388 453 OFFCURVE",
"346 309 OFFCURVE",
"346 214 CURVE SMOOTH",
"346 144 OFFCURVE",
"364 68 OFFCURVE",
"421 22 CURVE SMOOTH",
"436 10 OFFCURVE",
"455 0 OFFCURVE",
"474 0 CURVE SMOOTH",
"521 0 OFFCURVE",
"560 26 OFFCURVE",
"560 76 CURVE SMOOTH",
"560 132 OFFCURVE",
"502 213 OFFCURVE",
"451 234 CURVE SMOOTH",
"432 242 OFFCURVE",
"390 246 OFFCURVE",
"369 246 CURVE SMOOTH",
"334 246 OFFCURVE",
"300 242 OFFCURVE",
"266 234 CURVE",
"263 315 OFFCURVE",
"205 399 OFFCURVE",
"118 399 CURVE SMOOTH",
"84 399 OFFCURVE",
"17 383 OFFCURVE",
"17 339 CURVE SMOOTH",
"17 317 OFFCURVE",
"46 266 OFFCURVE",
"70 266 CURVE SMOOTH",
"87 266 OFFCURVE",
"74 280 OFFCURVE",
"88 293 CURVE SMOOTH",
"105 310 OFFCURVE",
"136 318 OFFCURVE",
"160 318 CURVE SMOOTH"
);
}
);
width = 788;
}
);
leftKerningGroup = general;
rightKerningGroup = general;
},
{
glyphname = E_A;
layers = (
{
layerId = "AD4F0B22-3094-4AE6-A818-B3E1049B6D0D";
paths = (
{
closed = 1;
nodes = (
"174 318 OFFCURVE",
"187 316 OFFCURVE",
"200 310 CURVE",
"201 304 OFFCURVE",
"202 297 OFFCURVE",
"202 290 CURVE SMOOTH",
"202 244 OFFCURVE",
"141 217 OFFCURVE",
"105 203 CURVE SMOOTH",
"99 201 OFFCURVE",
"71 191 OFFCURVE",
"68 189 CURVE SMOOTH",
"65 187 OFFCURVE",
"64 182 OFFCURVE",
"64 178 CURVE SMOOTH",
"64 158 OFFCURVE",
"96 110 OFFCURVE",
"117 110 CURVE SMOOTH",
"175 110 OFFCURVE",
"231 131 OFFCURVE",
"286 146 CURVE SMOOTH",
"327 157 OFFCURVE",
"369 165 OFFCURVE",
"411 165 CURVE SMOOTH",
"426 165 OFFCURVE",
"440 164 OFFCURVE",
"455 162 CURVE SMOOTH",
"473 159 OFFCURVE",
"497 157 OFFCURVE",
"497 133 CURVE SMOOTH",
"497 100 OFFCURVE",
"462 81 OFFCURVE",
"433 81 CURVE SMOOTH",
"428 81 OFFCURVE",
"423 81 OFFCURVE",
"419 83 CURVE",
"410 105 OFFCURVE",
"409 134 OFFCURVE",
"409 157 CURVE SMOOTH",
"409 241 OFFCURVE",
"446 369 OFFCURVE",
"529 407 CURVE SMOOTH",
"547 415 OFFCURVE",
"568 417 OFFCURVE",
"588 417 CURVE SMOOTH",
"620 417 OFFCURVE",
"666 408 OFFCURVE",
"689 383 CURVE SMOOTH",
"709 360 OFFCURVE",
"716 302 OFFCURVE",
"716 272 CURVE SMOOTH",
"716 219 OFFCURVE",
"708 167 OFFCURVE",
"694 116 CURVE SMOOTH",
"686 87 OFFCURVE",
"672 39 OFFCURVE",
"652 17 CURVE SMOOTH",
"589 -55 OFFCURVE",
"397 -55 OFFCURVE",
"306 -55 CURVE SMOOTH",
"204 -55 OFFCURVE",
"101 -50 OFFCURVE",
"-2 -50 CURVE SMOOTH",
"-76 -50 OFFCURVE",
"-243 -50 OFFCURVE",
"-289 -117 CURVE SMOOTH",
"-294 -124 OFFCURVE",
"-301 -138 OFFCURVE",
"-301 -146 CURVE SMOOTH",
"-301 -166 OFFCURVE",
"-269 -214 OFFCURVE",
"-248 -214 CURVE SMOOTH",
"-235 -214 OFFCURVE",
"-237 -203 OFFCURVE",
"-232 -194 CURVE SMOOTH",
"-219 -172 OFFCURVE",
"-192 -159 OFFCURVE",
"-169 -152 CURVE SMOOTH",
"-103 -131 OFFCURVE",
"-12 -131 OFFCURVE",
"57 -131 CURVE SMOOTH",
"155 -131 OFFCURVE",
"253 -136 OFFCURVE",
"351 -136 CURVE SMOOTH",
"449 -136 OFFCURVE",
"644 -136 OFFCURVE",
"712 -57 CURVE SMOOTH",
"733 -33 OFFCURVE",
"748 16 OFFCURVE",
"756 47 CURVE SMOOTH",
"771 102 OFFCURVE",
"779 159 OFFCURVE",
"779 216 CURVE SMOOTH",
"779 351 OFFCURVE",
"696 498 OFFCURVE",
"546 498 CURVE SMOOTH",
"526 498 OFFCURVE",
"505 497 OFFCURVE",
"486 490 CURVE SMOOTH",
"388 454 OFFCURVE",
"346 309 OFFCURVE",
"346 214 CURVE SMOOTH",
"346 144 OFFCURVE",
"364 68 OFFCURVE",
"421 22 CURVE SMOOTH",
"436 10 OFFCURVE",
"455 0 OFFCURVE",
"474 0 CURVE SMOOTH",
"521 0 OFFCURVE",
"560 26 OFFCURVE",
"560 76 CURVE SMOOTH",
"560 132 OFFCURVE",
"502 213 OFFCURVE",
"451 234 CURVE SMOOTH",
"432 242 OFFCURVE",
"390 246 OFFCURVE",
"369 246 CURVE SMOOTH",
"334 246 OFFCURVE",
"300 242 OFFCURVE",
"266 234 CURVE",
"263 315 OFFCURVE",
"205 399 OFFCURVE",
"118 399 CURVE SMOOTH",
"84 399 OFFCURVE",
"17 383 OFFCURVE",
"17 339 CURVE SMOOTH",
"17 317 OFFCURVE",
"45 266 OFFCURVE",
"70 266 CURVE SMOOTH",
"87 266 OFFCURVE",
"74 280 OFFCURVE",
"88 293 CURVE SMOOTH",
"106 310 OFFCURVE",
"136 318 OFFCURVE",
"160 318 CURVE SMOOTH"
);
}
);
width = 799;
}
);
leftKerningGroup = general;
rightKerningGroup = general;
},
